SplineFontDB: 3.0
FontName: Baskerville-Italic
FullName: Baskerville Italic
FamilyName: Baskerville
Weight: Book
Copyright: Digitized data copyright Monotype Typography, Ltd 1991-1997. All rights reserved. Monotype BaskervilleTM is a trademark of Monotype Typography, Ltd which may be registered in certain jurisdictions.
Version: 10.0d1e1
ItalicAngle: -17
UnderlinePosition: -256
UnderlineWidth: 102
Ascent: 1638
Descent: 410
InvalidEm: 0
sfntRevision: 0x00010000
LayerCount: 2
Layer: 0 1 "Back" 1
Layer: 1 1 "Fore" 0
XUID: [1021 497 124214582 5944014]
StyleMap: 0x0001
FSType: 4
OS2Version: 3
OS2_WeightWidthSlopeOnly: 0
OS2_UseTypoMetrics: 0
CreationTime: 719487180
ModificationTime: 1528057506
PfmFamily: 17
TTFWeight: 400
TTFWidth: 5
LineGap: 0
VLineGap: 0
Panose: 2 2 5 2 7 4 1 2 3 3
OS2TypoAscent: 1375
OS2TypoAOffset: 0
OS2TypoDescent: -487
OS2TypoDOffset: 0
OS2TypoLinegap: 329
OS2WinAscent: 1804
OS2WinAOffset: 0
OS2WinDescent: 504
OS2WinDOffset: 0
HheadAscent: 1804
HheadAOffset: 0
HheadDescent: -504
HheadDOffset: 0
OS2SubXSize: 1434
OS2SubYSize: 1331
OS2SubXOff: -54
OS2SubYOff: 177
OS2SupXSize: 1434
OS2SupYSize: 1331
OS2SupXOff: 147
OS2SupYOff: 482
OS2StrikeYSize: 102
OS2StrikeYPos: 511
OS2CapHeight: 1380
OS2XHeight: 847
OS2FamilyClass: 513
OS2Vendor: 'MONO'
OS2CodePages: 2000019f.4f010000
OS2UnicodeRanges: 80000067.00000000.00000000.00000000
Lookup: 4 0 0 "<27,0> Canonical Decomposition in Latin lookup 0" { "<27,0> Canonical Decomposition in Latin lookup 0 subtable"  } [<27,0> ('latn' <'dflt' > ) ]
Lookup: 4 0 0 "<27,0> Canonical Decomposition in Latin lookup 1" { "<27,0> Canonical Decomposition in Latin lookup 1 subtable"  } [<27,0> ('latn' <'dflt' > ) ]
Lookup: 4 0 0 "<27,0> Canonical Decomposition in Latin lookup 2" { "<27,0> Canonical Decomposition in Latin lookup 2 subtable"  } [<27,0> ('latn' <'dflt' > ) ]

StartChar: exclam
Encoding: 33 33 6
Width: 491
Flags: W
LayerCount: 2
Fore
SplineSet
255 394 m 1,0,-1
 209 394 l 1,1,-1
 399 1149 l 2,2,3
 439 1310 439 1310 469.5 1339.5 c 128,-1,4
 500 1369 500 1369 532 1369 c 0,5,6
 560 1369 560 1369 579.5 1349 c 128,-1,7
 599 1329 599 1329 599 1296 c 0,8,9
 599 1260 599 1260 560 1160 c 2,10,-1
 255 394 l 1,0,-1
31 78 m 256,11,12
 31 121 31 121 62 152 c 128,-1,13
 93 183 93 183 137 183 c 0,14,15
 180 183 180 183 211 152.5 c 128,-1,16
 242 122 242 122 242 78 c 256,17,18
 242 34 242 34 211 3 c 128,-1,19
 180 -28 180 -28 137 -28 c 0,20,21
 92 -28 92 -28 61.5 3.5 c 128,-1,22
 31 35 31 35 31 78 c 256,11,12
EndSplineSet
Substitution2: "<39,1> ????? lookup 11 subtable" exclam
Substitution2: "<21,0> Lower Case Numbers lookup 8 subtable" exclam
Substitution2: "<21,1> Upper Case Numbers lookup 7 subtable" exclam
EndChar

StartChar: quotedbl
Encoding: 34 34 7
Width: 853
Flags: W
LayerCount: 2
Fore
SplineSet
317 762 m 1,0,-1
 348 1058 l 2,1,2
 365 1227 365 1227 399 1286.5 c 128,-1,3
 433 1346 433 1346 506 1346 c 0,4,5
 582 1346 582 1346 582 1275 c 0,6,7
 582 1233 582 1233 499 1057 c 2,8,-1
 360 762 l 1,9,-1
 317 762 l 1,0,-1
684 762 m 1,10,-1
 713 1054 l 2,11,12
 725 1176 725 1176 739 1229.5 c 128,-1,13
 753 1283 753 1283 788.5 1314.5 c 128,-1,14
 824 1346 824 1346 876 1346 c 0,15,16
 949 1346 949 1346 949 1276 c 0,17,18
 949 1215 949 1215 872 1055 c 2,19,-1
 731 762 l 1,20,-1
 684 762 l 1,10,-1
EndSplineSet
Substitution2: "<39,1> ????? lookup 11 subtable" quotedbl
Substitution2: "<21,0> Lower Case Numbers lookup 8 subtable" quotedbl
Substitution2: "<21,1> Upper Case Numbers lookup 7 subtable" quotedbl
EndChar

StartChar: numbersign
Encoding: 35 35 8
Width: 1365
Flags: W
LayerCount: 2
Fore
SplineSet
175 960 m 1,0,-1
 506 960 l 1,1,-1
 593 1371 l 1,2,-1
 696 1371 l 1,3,-1
 609 960 l 1,4,-1
 1048 960 l 1,5,-1
 1134 1371 l 1,6,-1
 1238 1371 l 1,7,-1
 1151 960 l 1,8,-1
 1357 960 l 1,9,-1
 1357 856 l 1,10,-1
 1131 856 l 1,11,-1
 1050 466 l 1,12,-1
 1357 466 l 1,13,-1
 1357 362 l 1,14,-1
 1029 362 l 1,15,-1
 944 -47 l 1,16,-1
 839 -47 l 1,17,-1
 926 362 l 1,18,-1
 483 362 l 1,19,-1
 400 -47 l 1,20,-1
 295 -47 l 1,21,-1
 381 362 l 1,22,-1
 175 362 l 1,23,-1
 175 466 l 1,24,-1
 403 466 l 1,25,-1
 484 856 l 1,26,-1
 175 856 l 1,27,-1
 175 960 l 1,0,-1
587 856 m 1,28,-1
 505 468 l 1,29,-1
 947 468 l 1,30,-1
 1028 856 l 1,31,-1
 587 856 l 1,28,-1
EndSplineSet
Substitution2: "<39,1> ????? lookup 11 subtable" numbersign
Substitution2: "<21,0> Lower Case Numbers lookup 8 subtable" numbersign
Substitution2: "<21,1> Upper Case Numbers lookup 7 subtable" numbersign
EndChar

StartChar: dollar
Encoding: 36 36 9
Width: 1024
Flags: W
LayerCount: 2
Fore
SplineSet
276 -9 m 1,0,1
 191 25 191 25 142 74.5 c 128,-1,2
 93 124 93 124 93 164 c 0,3,4
 93 186 93 186 107.5 202.5 c 128,-1,5
 122 219 122 219 144 219 c 0,6,7
 198 219 198 219 255 120 c 0,8,9
 279 78 279 78 297 61 c 1,10,-1
 483 688 l 1,11,12
 341 815 341 815 341 974 c 0,13,14
 341 1105 341 1105 434 1205.5 c 128,-1,15
 527 1306 527 1306 672 1323 c 1,16,-1
 688 1377 l 1,17,-1
 735 1377 l 1,18,-1
 720 1326 l 1,19,20
 816 1326 816 1326 886 1298 c 1,21,-1
 910 1377 l 1,22,-1
 957 1377 l 1,23,-1
 928 1279 l 1,24,25
 1066 1204 1066 1204 1066 1114 c 0,26,27
 1066 1065 1066 1065 1014 1065 c 0,28,29
 985 1065 985 1065 963 1087.5 c 128,-1,30
 941 1110 941 1110 898 1179 c 1,31,-1
 738 639 l 1,32,33
 900 486 900 486 900 325 c 0,34,35
 900 195 900 195 804 94 c 128,-1,36
 708 -7 708 -7 537 -33 c 1,37,-1
 482 -218 l 1,38,-1
 435 -218 l 1,39,-1
 488 -38 l 1,40,41
 466 -39 466 -39 445 -39 c 0,42,43
 378 -39 378 -39 318 -22 c 1,44,-1
 260 -218 l 1,45,-1
 214 -218 l 1,46,-1
 276 -9 l 1,0,1
708 1288 m 1,47,-1
 564 802 l 1,48,49
 572 794 572 794 586 781 c 0,50,51
 675 702 675 702 701 675 c 1,52,-1
 865 1226 l 1,53,54
 808 1288 808 1288 708 1288 c 1,47,-1
528 839 m 1,55,-1
 660 1283 l 1,56,57
 552 1261 552 1261 499 1184 c 128,-1,58
 446 1107 446 1107 446 1028 c 0,59,60
 446 937 446 937 528 839 c 1,55,-1
520 655 m 1,61,-1
 334 30 l 1,62,63
 383 1 383 1 464 1 c 0,64,65
 482 1 482 1 501 3 c 1,66,-1
 657 527 l 1,67,68
 620 566 620 566 520 655 c 1,61,-1
693 488 m 1,69,-1
 550 9 l 1,70,71
 672 33 672 33 733 106.5 c 128,-1,72
 794 180 794 180 794 262 c 0,73,74
 794 373 794 373 693 488 c 1,69,-1
EndSplineSet
Substitution2: "<39,1> ????? lookup 11 subtable" dollar
Substitution2: "<21,0> Lower Case Numbers lookup 8 subtable" dollar
Substitution2: "<21,1> Upper Case Numbers lookup 7 subtable" dollar
EndChar

StartChar: percent
Encoding: 37 37 10
Width: 1792
Flags: W
LayerCount: 2
Fore
SplineSet
251 898 m 0,0,1
 251 1097 251 1097 363 1238 c 128,-1,2
 475 1379 475 1379 590 1379 c 0,3,4
 659 1379 659 1379 712 1319 c 128,-1,5
 765 1259 765 1259 765 1132 c 0,6,7
 765 1023 765 1023 710 905.5 c 128,-1,8
 655 788 655 788 580 728 c 128,-1,9
 505 668 505 668 434 668 c 0,10,11
 351 668 351 668 301 732.5 c 128,-1,12
 251 797 251 797 251 898 c 0,0,1
354 809 m 0,13,14
 354 757 354 757 371.5 730.5 c 128,-1,15
 389 704 389 704 424 704 c 0,16,17
 467 704 467 704 514 760.5 c 128,-1,18
 561 817 561 817 613 975 c 128,-1,19
 665 1133 665 1133 665 1238 c 0,20,21
 665 1289 665 1289 647.5 1314.5 c 128,-1,22
 630 1340 630 1340 594 1340 c 0,23,24
 519 1340 519 1340 436.5 1148.5 c 128,-1,25
 354 957 354 957 354 809 c 0,13,14
449 0 m 1,26,-1
 376 0 l 1,27,-1
 1509 1356 l 1,28,-1
 1581 1356 l 1,29,-1
 449 0 l 1,26,-1
1180 204 m 0,30,31
 1180 403 1180 403 1292 544 c 128,-1,32
 1404 685 1404 685 1519 685 c 0,33,34
 1596 685 1596 685 1645 619.5 c 128,-1,35
 1694 554 1694 554 1694 438 c 0,36,37
 1694 328 1694 328 1639.5 211 c 128,-1,38
 1585 94 1585 94 1509.5 34 c 128,-1,39
 1434 -26 1434 -26 1363 -26 c 0,40,41
 1280 -26 1280 -26 1230 38 c 128,-1,42
 1180 102 1180 102 1180 204 c 0,30,31
1283 115 m 0,43,44
 1283 63 1283 63 1300.5 36.5 c 128,-1,45
 1318 10 1318 10 1353 10 c 0,46,47
 1403 10 1403 10 1452.5 78 c 128,-1,48
 1502 146 1502 146 1548 300 c 128,-1,49
 1594 454 1594 454 1594 544 c 0,50,51
 1594 595 1594 595 1576.5 620.5 c 128,-1,52
 1559 646 1559 646 1523 646 c 0,53,54
 1442 646 1442 646 1362.5 447 c 128,-1,55
 1283 248 1283 248 1283 115 c 0,43,44
EndSplineSet
Substitution2: "<39,1> ????? lookup 11 subtable" percent
Substitution2: "<21,0> Lower Case Numbers lookup 8 subtable" percent
Substitution2: "<21,1> Upper Case Numbers lookup 7 subtable" percent
EndChar

StartChar: ampersand
Encoding: 38 38 11
Width: 1749
Flags: W
LayerCount: 2
Fore
SplineSet
476 841 m 1,0,1
 431 938 431 938 431 1022 c 0,2,3
 431 1117 431 1117 487 1198.5 c 128,-1,4
 543 1280 543 1280 629.5 1330 c 128,-1,5
 716 1380 716 1380 809 1380 c 0,6,7
 913 1380 913 1380 982.5 1322.5 c 128,-1,8
 1052 1265 1052 1265 1052 1185 c 0,9,10
 1052 1125 1052 1125 1018.5 1074 c 128,-1,11
 985 1023 985 1023 948 1023 c 0,12,13
 930 1023 930 1023 930 1042 c 0,14,15
 930 1049 930 1049 940 1073 c 0,16,17
 956 1112 956 1112 956 1152 c 0,18,19
 956 1212 956 1212 907 1249.5 c 128,-1,20
 858 1287 858 1287 789 1287 c 0,21,22
 678 1287 678 1287 581.5 1195.5 c 128,-1,23
 485 1104 485 1104 485 986 c 0,24,25
 485 933 485 933 499 896.5 c 128,-1,26
 513 860 513 860 524.5 849 c 128,-1,27
 536 838 536 838 557 838 c 0,28,29
 695 838 695 838 695 758 c 0,30,31
 695 738 695 738 680.5 720 c 128,-1,32
 666 702 666 702 638 702 c 0,33,34
 607 702 607 702 559 743 c 0,35,36
 508 787 508 787 459 787 c 0,37,38
 396 787 396 787 339.5 724.5 c 128,-1,39
 283 662 283 662 283 576 c 0,40,41
 283 409 283 409 449 260.5 c 128,-1,42
 615 112 615 112 862 112 c 0,43,44
 1096 112 1096 112 1262.5 228.5 c 128,-1,45
 1429 345 1429 345 1429 507 c 0,46,47
 1429 615 1429 615 1347 694.5 c 128,-1,48
 1265 774 1265 774 1125 774 c 0,49,50
 1012 774 1012 774 923.5 712 c 128,-1,51
 835 650 835 650 835 557 c 0,52,53
 835 501 835 501 867 465 c 128,-1,54
 899 429 899 429 933 429 c 0,55,56
 972 429 972 429 972 471 c 2,57,-1
 971 483 l 2,58,59
 970 496 970 496 970 501 c 0,60,61
 970 545 970 545 994 573.5 c 128,-1,62
 1018 602 1018 602 1055 602 c 0,63,64
 1090 602 1090 602 1116 577.5 c 128,-1,65
 1142 553 1142 553 1142 509 c 0,66,67
 1142 446 1142 446 1098.5 404 c 128,-1,68
 1055 362 1055 362 987 362 c 0,69,70
 906 362 906 362 847.5 419.5 c 128,-1,71
 789 477 789 477 789 561 c 0,72,73
 789 684 789 684 892 785 c 256,74,75
 995 886 995 886 1266 886 c 0,76,77
 1509 886 1509 886 1619 953 c 0,78,79
 1729 1019 1729 1019 1729 1154 c 0,80,81
 1729 1234 1729 1234 1680 1285.5 c 128,-1,82
 1631 1337 1631 1337 1556 1337 c 0,83,84
 1519 1337 1519 1337 1500.5 1326.5 c 128,-1,85
 1482 1316 1482 1316 1482 1294 c 0,86,87
 1482 1280 1482 1280 1500 1254 c 0,88,89
 1523 1221 1523 1221 1523 1190 c 0,90,91
 1523 1153 1523 1153 1494.5 1125 c 128,-1,92
 1466 1097 1466 1097 1424 1097 c 0,93,94
 1374 1097 1374 1097 1348 1129 c 128,-1,95
 1322 1161 1322 1161 1322 1204 c 0,96,97
 1322 1272 1322 1272 1388.5 1326 c 128,-1,98
 1455 1380 1455 1380 1558 1380 c 0,99,100
 1664 1380 1664 1380 1734.5 1302.5 c 128,-1,101
 1805 1225 1805 1225 1805 1116 c 0,102,103
 1805 1013 1805 1013 1744.5 928 c 128,-1,104
 1684 843 1684 843 1591.5 808 c 128,-1,105
 1499 773 1499 773 1332 767 c 1,106,107
 1492 654 1492 654 1492 477 c 0,108,109
 1492 344 1492 344 1394 220 c 128,-1,110
 1296 96 1296 96 1156.5 36 c 128,-1,111
 1017 -24 1017 -24 816 -24 c 0,112,113
 653 -24 653 -24 552 11.5 c 128,-1,114
 451 47 451 47 359.5 115 c 128,-1,115
 268 183 268 183 215.5 281.5 c 128,-1,116
 163 380 163 380 163 493 c 0,117,118
 163 631 163 631 242 725 c 128,-1,119
 321 819 321 819 476 841 c 1,0,1
EndSplineSet
Substitution2: "<39,1> ????? lookup 11 subtable" ampersand
Substitution2: "<21,0> Lower Case Numbers lookup 8 subtable" ampersand
Substitution2: "<21,1> Upper Case Numbers lookup 7 subtable" ampersand
EndChar

StartChar: quotesingle
Encoding: 39 39 12
Width: 448
Flags: W
LayerCount: 2
Fore
SplineSet
298 762 m 1,0,-1
 329 1058 l 2,1,2
 341 1179 341 1179 355 1230.5 c 128,-1,3
 369 1282 369 1282 403.5 1314 c 128,-1,4
 438 1346 438 1346 485 1346 c 0,5,6
 564 1346 564 1346 564 1275 c 0,7,8
 564 1235 564 1235 480 1057 c 2,9,-1
 342 762 l 1,10,-1
 298 762 l 1,0,-1
EndSplineSet
Substitution2: "<39,1> ????? lookup 11 subtable" quotesingle
Substitution2: "<21,0> Lower Case Numbers lookup 8 subtable" quotesingle
Substitution2: "<21,1> Upper Case Numbers lookup 7 subtable" quotesingle
EndChar

StartChar: parenleft
Encoding: 40 40 13
Width: 619
Flags: W
LayerCount: 2
Fore
SplineSet
346 -471 m 1,0,-1
 318 -489 l 1,1,2
 181 -210 181 -210 181 124 c 0,3,4
 181 408 181 408 264.5 638.5 c 128,-1,5
 348 869 348 869 494 1054.5 c 128,-1,6
 640 1240 640 1240 837 1369 c 1,7,-1
 857 1344 l 1,8,9
 563 1100 563 1100 413 746 c 128,-1,10
 263 392 263 392 263 18 c 0,11,12
 263 -103 263 -103 289 -249.5 c 128,-1,13
 315 -396 315 -396 346 -471 c 1,0,-1
EndSplineSet
Substitution2: "<39,1> ????? lookup 11 subtable" parenleft
Substitution2: "<21,0> Lower Case Numbers lookup 8 subtable" parenleft
Substitution2: "<21,1> Upper Case Numbers lookup 7 subtable" parenleft
EndChar

StartChar: parenright
Encoding: 41 41 14
Width: 619
Flags: W
LayerCount: 2
Fore
SplineSet
322 1351 m 1,0,-1
 350 1369 l 1,1,2
 487 1090 487 1090 487 756 c 0,3,4
 487 351 487 351 306.5 26.5 c 128,-1,5
 126 -298 126 -298 -169 -489 c 1,6,-1
 -189 -464 l 1,7,8
 106 -220 106 -220 255.5 134 c 128,-1,9
 405 488 405 488 405 862 c 0,10,11
 405 983 405 983 379 1129.5 c 128,-1,12
 353 1276 353 1276 322 1351 c 1,0,-1
EndSplineSet
Substitution2: "<39,1> ????? lookup 11 subtable" parenright
Substitution2: "<21,0> Lower Case Numbers lookup 8 subtable" parenright
Substitution2: "<21,1> Upper Case Numbers lookup 7 subtable" parenright
EndChar

StartChar: asterisk
Encoding: 42 42 15
Width: 939
Flags: W
LayerCount: 2
Fore
SplineSet
646 980 m 1,0,1
 658 1059 658 1059 658 1117 c 2,2,-1
 657 1210 l 2,3,4
 657 1276 657 1276 684 1310 c 128,-1,5
 711 1344 711 1344 747 1344 c 0,6,7
 778 1344 778 1344 800 1318 c 128,-1,8
 822 1292 822 1292 822 1260 c 0,9,10
 822 1216 822 1216 759 1131 c 0,11,12
 706 1061 706 1061 673 972 c 1,13,14
 740 993 740 993 829 1049 c 0,15,16
 920 1106 920 1106 967 1106 c 0,17,18
 1002 1106 1002 1106 1025.5 1085 c 128,-1,19
 1049 1064 1049 1064 1049 1034 c 0,20,21
 1049 996 1049 996 1018 969.5 c 128,-1,22
 987 943 987 943 933 943 c 0,23,24
 921 943 921 943 871 948 c 0,25,26
 829 953 829 953 783 953 c 0,27,28
 731 953 731 953 680 945 c 1,29,30
 719 906 719 906 803 862 c 0,31,32
 950 786 950 786 950 713 c 0,33,34
 950 679 950 679 929 660 c 128,-1,35
 908 641 908 641 880 641 c 0,36,37
 808 641 808 641 745 775 c 0,38,39
 694 884 694 884 659 927 c 1,40,41
 642 849 642 849 642 786 c 0,42,43
 642 764 642 764 645 725 c 0,44,45
 647 695 647 695 647 685 c 0,46,47
 647 639 647 639 621 605 c 128,-1,48
 595 571 595 571 556 571 c 0,49,50
 527 571 527 571 505.5 594.5 c 128,-1,51
 484 618 484 618 484 653 c 0,52,53
 484 696 484 696 532 762 c 0,54,55
 601 855 601 855 632 935 c 1,56,57
 553 912 553 912 454 844 c 0,58,59
 393 802 393 802 353 802 c 0,60,61
 318 802 318 802 291 823.5 c 128,-1,62
 264 845 264 845 264 878 c 0,63,64
 264 916 264 916 295.5 942 c 128,-1,65
 327 968 327 968 388 968 c 0,66,67
 409 968 409 968 449 962 c 0,68,69
 514 954 514 954 556 954 c 0,70,71
 603 954 603 954 628 961 c 1,72,73
 555 1028 555 1028 477 1068 c 0,74,75
 364 1125 364 1125 364 1194 c 0,76,77
 364 1228 364 1228 387.5 1247 c 128,-1,78
 411 1266 411 1266 439 1266 c 0,79,80
 506 1266 506 1266 558 1147 c 0,81,82
 577 1104 577 1104 594 1075 c 2,83,-1
 646 980 l 1,0,1
EndSplineSet
Substitution2: "<39,1> ????? lookup 11 subtable" asterisk
Substitution2: "<21,0> Lower Case Numbers lookup 8 subtable" asterisk
Substitution2: "<21,1> Upper Case Numbers lookup 7 subtable" asterisk
EndChar

StartChar: plus
Encoding: 43 43 16
Width: 1365
Flags: W
LayerCount: 2
Fore
SplineSet
201 709 m 1,0,-1
 686 709 l 1,1,-1
 686 1196 l 1,2,-1
 794 1196 l 1,3,-1
 794 709 l 1,4,-1
 1283 709 l 1,5,-1
 1283 601 l 1,6,-1
 794 601 l 1,7,-1
 794 119 l 1,8,-1
 686 119 l 1,9,-1
 686 601 l 1,10,-1
 201 601 l 1,11,-1
 201 709 l 1,0,-1
EndSplineSet
Substitution2: "<39,1> ????? lookup 11 subtable" plus
Substitution2: "<21,0> Lower Case Numbers lookup 8 subtable" plus
Substitution2: "<21,1> Upper Case Numbers lookup 7 subtable" plus
EndChar

StartChar: comma
Encoding: 44 44 17
Width: 491
Flags: W
LayerCount: 2
Fore
SplineSet
-113 -358 m 1,0,-1
 -113 -318 l 1,1,2
 54 -295 54 -295 128 -207 c 128,-1,3
 202 -119 202 -119 202 -59 c 0,4,5
 202 -14 202 -14 163 -14 c 0,6,7
 156 -14 156 -14 148 -15 c 0,8,9
 128 -17 128 -17 121 -17 c 0,10,11
 85 -17 85 -17 55.5 8.5 c 128,-1,12
 26 34 26 34 26 82 c 0,13,14
 26 134 26 134 57.5 163 c 128,-1,15
 89 192 89 192 132 192 c 0,16,17
 194 192 194 192 231.5 140.5 c 128,-1,18
 269 89 269 89 269 8 c 0,19,20
 269 -122 269 -122 167 -234 c 128,-1,21
 65 -346 65 -346 -113 -358 c 1,0,-1
EndSplineSet
Substitution2: "<39,1> ????? lookup 11 subtable" comma
Substitution2: "<21,0> Lower Case Numbers lookup 8 subtable" comma
Substitution2: "<21,1> Upper Case Numbers lookup 7 subtable" comma
EndChar

StartChar: hyphen
Encoding: 45 45 18
Width: 683
Flags: W
LayerCount: 2
Fore
SplineSet
143 557 m 1,0,-1
 633 557 l 1,1,-1
 588 475 l 1,2,-1
 97 475 l 1,3,-1
 143 557 l 1,0,-1
EndSplineSet
Substitution2: "<39,1> ????? lookup 11 subtable" hyphen
Substitution2: "<21,0> Lower Case Numbers lookup 8 subtable" hyphen
Substitution2: "<21,1> Upper Case Numbers lookup 7 subtable" hyphen
EndChar

StartChar: period
Encoding: 46 46 19
Width: 491
Flags: W
LayerCount: 2
Fore
SplineSet
42 77 m 256,0,1
 42 120 42 120 73 151 c 128,-1,2
 104 182 104 182 148 182 c 0,3,4
 191 182 191 182 222 151 c 128,-1,5
 253 120 253 120 253 77 c 0,6,7
 253 33 253 33 222 2 c 128,-1,8
 191 -29 191 -29 148 -29 c 0,9,10
 103 -29 103 -29 72.5 2.5 c 128,-1,11
 42 34 42 34 42 77 c 256,0,1
EndSplineSet
Substitution2: "<39,1> ????? lookup 11 subtable" period
Substitution2: "<21,0> Lower Case Numbers lookup 8 subtable" period
Substitution2: "<21,1> Upper Case Numbers lookup 7 subtable" period
EndChar

StartChar: slash
Encoding: 47 47 20
Width: 1067
Flags: W
LayerCount: 2
Fore
SplineSet
1130 1343 m 1,0,-1
 1258 1343 l 1,1,-1
 155 -33 l 1,2,-1
 27 -33 l 1,3,-1
 1130 1343 l 1,0,-1
EndSplineSet
Substitution2: "<39,1> ????? lookup 11 subtable" slash
Substitution2: "<21,0> Lower Case Numbers lookup 8 subtable" slash
Substitution2: "<21,1> Upper Case Numbers lookup 7 subtable" slash
EndChar

StartChar: zero
Encoding: 48 48 21
Width: 1024
Flags: W
LayerCount: 2
Fore
SplineSet
176 369 m 0,0,1
 176 581 176 581 264.5 825 c 128,-1,2
 353 1069 353 1069 501.5 1208 c 128,-1,3
 650 1347 650 1347 777 1347 c 0,4,5
 881 1347 881 1347 945.5 1236 c 128,-1,6
 1010 1125 1010 1125 1010 958 c 0,7,8
 1010 747 1010 747 927.5 507 c 128,-1,9
 845 267 845 267 687.5 118 c 128,-1,10
 530 -31 530 -31 416 -31 c 0,11,12
 306 -31 306 -31 241 84 c 128,-1,13
 176 199 176 199 176 369 c 0,0,1
291 211 m 0,14,15
 291 109 291 109 321 58 c 128,-1,16
 351 7 351 7 410 7 c 0,17,18
 559 7 559 7 727 399.5 c 128,-1,19
 895 792 895 792 895 1116 c 0,20,21
 895 1212 895 1212 866 1260 c 128,-1,22
 837 1308 837 1308 779 1308 c 0,23,24
 615 1308 615 1308 453 905.5 c 128,-1,25
 291 503 291 503 291 211 c 0,14,15
EndSplineSet
Substitution2: "<39,1> ????? lookup 11 subtable" zero
Substitution2: "<21,0> Lower Case Numbers lookup 8 subtable" uni0030.proportional
Substitution2: "<21,1> Upper Case Numbers lookup 7 subtable" zero
EndChar

StartChar: one
Encoding: 49 49 22
Width: 1024
Flags: W
LayerCount: 2
Fore
SplineSet
808 1346 m 1,0,-1
 864 1346 l 1,1,-1
 508 174 l 2,2,3
 486 103 486 103 486 87 c 0,4,5
 486 62 486 62 507 54 c 128,-1,6
 528 46 528 46 586 46 c 2,7,-1
 655 46 l 1,8,-1
 641 0 l 1,9,-1
 144 0 l 1,10,-1
 158 46 l 1,11,-1
 214 46 l 2,12,13
 302 46 302 46 320.5 61.5 c 128,-1,14
 339 77 339 77 371 182 c 2,15,-1
 625 1018 l 2,16,17
 652 1107 652 1107 652 1127 c 0,18,19
 652 1190 652 1190 525 1195 c 2,20,-1
 466 1197 l 1,21,-1
 479 1240 l 1,22,23
 721 1244 721 1244 808 1346 c 1,0,-1
EndSplineSet
Substitution2: "<39,1> ????? lookup 11 subtable" one
Substitution2: "<21,0> Lower Case Numbers lookup 8 subtable" uni0031.proportional
Substitution2: "<21,1> Upper Case Numbers lookup 7 subtable" one
EndChar

StartChar: two
Encoding: 50 50 23
Width: 1024
Flags: W
LayerCount: 2
Fore
SplineSet
775 117 m 1,0,-1
 718 -71 l 1,1,-1
 687 -71 l 1,2,-1
 687 -60 l 2,3,4
 687 -20 687 -20 669 -10 c 128,-1,5
 651 0 651 0 562 0 c 2,6,-1
 60 0 l 1,7,8
 60 52 60 52 72.5 73.5 c 128,-1,9
 85 95 85 95 149 153 c 0,10,11
 621 585 621 585 732.5 760.5 c 128,-1,12
 844 936 844 936 844 1078 c 0,13,14
 844 1168 844 1168 784.5 1232.5 c 128,-1,15
 725 1297 725 1297 627 1297 c 0,16,17
 534 1297 534 1297 468.5 1241.5 c 128,-1,18
 403 1186 403 1186 403 1108 c 0,19,20
 403 1023 403 1023 460 976 c 0,21,22
 470 967 470 967 470 960 c 0,23,24
 470 948 470 948 428.5 915.5 c 128,-1,25
 387 883 387 883 366 883 c 0,26,27
 340 883 340 883 315.5 929 c 128,-1,28
 291 975 291 975 291 1038 c 0,29,30
 291 1157 291 1157 393.5 1252 c 128,-1,31
 496 1347 496 1347 662 1347 c 0,32,33
 823 1347 823 1347 904.5 1265 c 128,-1,34
 986 1183 986 1183 986 1061 c 0,35,36
 986 919 986 919 893 792.5 c 128,-1,37
 800 666 800 666 534 437 c 0,38,39
 343 273 343 273 174 117 c 1,40,-1
 775 117 l 1,0,-1
EndSplineSet
Substitution2: "<39,1> ????? lookup 11 subtable" two
Substitution2: "<21,0> Lower Case Numbers lookup 8 subtable" uni0032.proportional
Substitution2: "<21,1> Upper Case Numbers lookup 7 subtable" two
EndChar

StartChar: three
Encoding: 51 51 24
Width: 1024
Flags: W
LayerCount: 2
Fore
SplineSet
570 748 m 1,0,1
 683 748 683 748 757 673 c 128,-1,2
 831 598 831 598 831 474 c 0,3,4
 831 278 831 278 674 123 c 128,-1,5
 517 -32 517 -32 311 -32 c 0,6,7
 196 -32 196 -32 106.5 15 c 128,-1,8
 17 62 17 62 17 127 c 0,9,10
 17 197 17 197 80 197 c 0,11,12
 131 197 131 197 171 118 c 0,13,14
 224 11 224 11 320 11 c 0,15,16
 413 11 413 11 500 80.5 c 128,-1,17
 587 150 587 150 641 293 c 128,-1,18
 695 436 695 436 695 534 c 0,19,20
 695 611 695 611 656 660.5 c 128,-1,21
 617 710 617 710 553 710 c 0,22,23
 492 710 492 710 401 637 c 0,24,25
 361 606 361 606 344 606 c 0,26,27
 314 606 314 606 314 633 c 0,28,29
 314 652 314 652 353 676.5 c 128,-1,30
 392 701 392 701 543 782 c 0,31,32
 837 940 837 940 837 1133 c 0,33,34
 837 1224 837 1224 776.5 1264 c 128,-1,35
 716 1304 716 1304 629 1304 c 0,36,37
 526 1304 526 1304 473 1244.5 c 128,-1,38
 420 1185 420 1185 420 1115 c 0,39,40
 420 1076 420 1076 444 1034 c 0,41,42
 451 1022 451 1022 451 1017 c 0,43,44
 451 1005 451 1005 418 979.5 c 128,-1,45
 385 954 385 954 370 954 c 0,46,47
 350 954 350 954 328.5 991.5 c 128,-1,48
 307 1029 307 1029 307 1080 c 0,49,50
 307 1196 307 1196 406.5 1271 c 128,-1,51
 506 1346 506 1346 665 1346 c 0,52,53
 809 1346 809 1346 892 1286.5 c 128,-1,54
 975 1227 975 1227 975 1134 c 0,55,56
 975 1051 975 1051 912 973 c 128,-1,57
 849 895 849 895 649 791 c 0,58,59
 597 765 597 765 570 748 c 1,0,1
EndSplineSet
Substitution2: "<39,1> ????? lookup 11 subtable" three
Substitution2: "<21,0> Lower Case Numbers lookup 8 subtable" uni0033.proportional
Substitution2: "<21,1> Upper Case Numbers lookup 7 subtable" three
EndChar

StartChar: four
Encoding: 52 52 25
Width: 1024
Flags: W
LayerCount: 2
Fore
SplineSet
595 453 m 1,0,-1
 154 453 l 1,1,-1
 174 517 l 1,2,-1
 941 1346 l 1,3,-1
 1007 1346 l 1,4,-1
 755 517 l 1,5,-1
 820 517 l 2,6,7
 867 517 867 517 884 528 c 128,-1,8
 901 539 901 539 933 592 c 1,9,-1
 974 592 l 1,10,-1
 932 453 l 1,11,-1
 735 453 l 1,12,-1
 650 173 l 2,13,14
 628 102 628 102 628 85 c 256,15,16
 628 68 628 68 643 56.5 c 128,-1,17
 658 45 658 45 728 45 c 2,18,-1
 766 45 l 1,19,-1
 753 0 l 1,20,-1
 322 0 l 1,21,-1
 335 45 l 1,22,-1
 356 45 l 2,23,24
 444 45 444 45 462.5 60.5 c 128,-1,25
 481 76 481 76 513 181 c 2,26,-1
 595 453 l 1,0,-1
615 517 m 1,27,-1
 801 1129 l 1,28,-1
 236 517 l 1,29,-1
 615 517 l 1,27,-1
EndSplineSet
Substitution2: "<39,1> ????? lookup 11 subtable" four
Substitution2: "<21,0> Lower Case Numbers lookup 8 subtable" uni0034.proportional
Substitution2: "<21,1> Upper Case Numbers lookup 7 subtable" four
EndChar

StartChar: five
Encoding: 53 53 26
Width: 1024
Flags: W
LayerCount: 2
Fore
SplineSet
351 682 m 1,0,-1
 306 682 l 1,1,-1
 531 1315 l 1,2,-1
 1058 1315 l 1,3,4
 1031 1253 1031 1253 1010.5 1225 c 128,-1,5
 990 1197 990 1197 978 1193.5 c 128,-1,6
 966 1190 966 1190 920 1190 c 2,7,-1
 532 1190 l 1,8,-1
 398 805 l 1,9,10
 497 895 497 895 614 895 c 0,11,12
 724 895 724 895 812 803 c 128,-1,13
 900 711 900 711 900 551 c 0,14,15
 900 432 900 432 839 294 c 128,-1,16
 778 156 778 156 641.5 62.5 c 128,-1,17
 505 -31 505 -31 345 -31 c 0,18,19
 216 -31 216 -31 143 27.5 c 128,-1,20
 70 86 70 86 70 150 c 0,21,22
 70 174 70 174 86.5 193.5 c 128,-1,23
 103 213 103 213 133 213 c 0,24,25
 195 213 195 213 232 118 c 0,26,27
 256 59 256 59 284 35 c 0,28,29
 311 11 311 11 368 11 c 0,30,31
 448 11 448 11 543 94.5 c 128,-1,32
 638 178 638 178 702 339 c 128,-1,33
 766 500 766 500 766 634 c 0,34,35
 766 729 766 729 722.5 790 c 128,-1,36
 679 851 679 851 598 851 c 0,37,38
 461 851 461 851 351 682 c 1,0,-1
EndSplineSet
Substitution2: "<39,1> ????? lookup 11 subtable" five
Substitution2: "<21,0> Lower Case Numbers lookup 8 subtable" uni0035.proportional
Substitution2: "<21,1> Upper Case Numbers lookup 7 subtable" five
EndChar

StartChar: six
Encoding: 54 54 27
Width: 1024
Flags: W
LayerCount: 2
Fore
SplineSet
407 740 m 1,0,1
 511 851 511 851 644 851 c 0,2,3
 778 851 778 851 868 749 c 128,-1,4
 958 647 958 647 958 478 c 0,5,6
 958 341 958 341 892 218.5 c 128,-1,7
 826 96 826 96 719 32.5 c 128,-1,8
 612 -31 612 -31 512 -31 c 0,9,10
 423 -31 423 -31 345 20 c 128,-1,11
 267 71 267 71 224 169.5 c 128,-1,12
 181 268 181 268 181 405 c 0,13,14
 181 551 181 551 231.5 700 c 128,-1,15
 282 849 282 849 350.5 967.5 c 128,-1,16
 419 1086 419 1086 526 1179 c 128,-1,17
 633 1272 633 1272 719.5 1309.5 c 128,-1,18
 806 1347 806 1347 900 1347 c 0,19,20
 1025 1347 1025 1347 1090.5 1294 c 128,-1,21
 1156 1241 1156 1241 1156 1197 c 0,22,23
 1156 1174 1156 1174 1139 1155 c 128,-1,24
 1122 1136 1122 1136 1094 1136 c 0,25,26
 1049 1136 1049 1136 1018 1195 c 0,27,28
 961 1304 961 1304 878 1304 c 0,29,30
 734 1304 734 1304 597.5 1108 c 128,-1,31
 461 912 461 912 407 740 c 1,0,1
289 263 m 0,32,33
 289 143 289 143 352 78 c 128,-1,34
 415 13 415 13 498 13 c 0,35,36
 651 13 651 13 742.5 229.5 c 128,-1,37
 834 446 834 446 834 609 c 0,38,39
 834 707 834 707 780.5 756 c 128,-1,40
 727 805 727 805 643 805 c 0,41,42
 480 805 480 805 384.5 628 c 128,-1,43
 289 451 289 451 289 263 c 0,32,33
EndSplineSet
Substitution2: "<39,1> ????? lookup 11 subtable" six
Substitution2: "<21,0> Lower Case Numbers lookup 8 subtable" uni0036.proportional
Substitution2: "<21,1> Upper Case Numbers lookup 7 subtable" six
EndChar

StartChar: seven
Encoding: 55 55 28
Width: 1024
Flags: W
LayerCount: 2
Fore
SplineSet
352 1061 m 1,0,-1
 306 1061 l 1,1,-1
 417 1378 l 1,2,-1
 460 1378 l 1,3,4
 455 1364 455 1364 455 1352 c 0,5,6
 455 1327 455 1327 476 1321 c 128,-1,7
 497 1315 497 1315 592 1315 c 2,8,-1
 1065 1315 l 1,9,-1
 1065 1291 l 1,10,-1
 472 207 l 2,11,12
 379 38 379 38 348.5 3 c 128,-1,13
 318 -32 318 -32 279 -32 c 0,14,15
 215 -32 215 -32 215 24 c 0,16,17
 215 53 215 53 254 110 c 2,18,-1
 291 165 l 1,19,-1
 961 1190 l 1,20,-1
 576 1190 l 2,21,22
 461 1190 461 1190 442 1181.5 c 128,-1,23
 423 1173 423 1173 402 1157 c 128,-1,24
 381 1141 381 1141 352 1061 c 1,0,-1
EndSplineSet
Substitution2: "<39,1> ????? lookup 11 subtable" seven
Substitution2: "<21,0> Lower Case Numbers lookup 8 subtable" uni0037.proportional
Substitution2: "<21,1> Upper Case Numbers lookup 7 subtable" seven
EndChar

StartChar: eight
Encoding: 56 56 29
Width: 1024
Flags: W
LayerCount: 2
Fore
SplineSet
689 682 m 1,0,1
 782 653 782 653 840 572 c 128,-1,2
 898 491 898 491 898 387 c 0,3,4
 898 221 898 221 769 95 c 128,-1,5
 640 -31 640 -31 459 -31 c 0,6,7
 312 -31 312 -31 215.5 63 c 128,-1,8
 119 157 119 157 119 290 c 0,9,10
 119 437 119 437 226.5 553.5 c 128,-1,11
 334 670 334 670 538 700 c 1,12,13
 454 742 454 742 412 808 c 128,-1,14
 370 874 370 874 370 965 c 0,15,16
 370 1112 370 1112 485.5 1229.5 c 128,-1,17
 601 1347 601 1347 765 1347 c 0,18,19
 890 1347 890 1347 966 1265 c 128,-1,20
 1042 1183 1042 1183 1042 1071 c 0,21,22
 1042 931 1042 931 949.5 817.5 c 128,-1,23
 857 704 857 704 689 682 c 1,0,1
499 877 m 0,24,25
 499 793 499 793 534.5 751 c 128,-1,26
 570 709 570 709 640 709 c 0,27,28
 754 709 754 709 833.5 865 c 128,-1,29
 913 1021 913 1021 913 1153 c 0,30,31
 913 1232 913 1232 869 1267.5 c 128,-1,32
 825 1303 825 1303 768 1303 c 0,33,34
 651 1303 651 1303 575 1143.5 c 128,-1,35
 499 984 499 984 499 877 c 0,24,25
249 207 m 0,36,37
 249 108 249 108 303.5 60.5 c 128,-1,38
 358 13 358 13 447 13 c 0,39,40
 542 13 542 13 614.5 79 c 128,-1,41
 687 145 687 145 726 277.5 c 128,-1,42
 765 410 765 410 765 504 c 0,43,44
 765 572 765 572 717.5 618.5 c 128,-1,45
 670 665 670 665 579 665 c 0,46,47
 477 665 477 665 410 603 c 128,-1,48
 343 541 343 541 296 406.5 c 128,-1,49
 249 272 249 272 249 207 c 0,36,37
EndSplineSet
Substitution2: "<39,1> ????? lookup 11 subtable" eight
Substitution2: "<21,0> Lower Case Numbers lookup 8 subtable" uni0038.proportional
Substitution2: "<21,1> Upper Case Numbers lookup 7 subtable" eight
EndChar

StartChar: nine
Encoding: 57 57 30
Width: 1024
Flags: W
LayerCount: 2
Fore
SplineSet
771 584 m 1,0,1
 665 472 665 472 537 472 c 0,2,3
 401 472 401 472 319.5 583 c 128,-1,4
 238 694 238 694 238 845 c 0,5,6
 238 1055 238 1055 372 1201 c 128,-1,7
 506 1347 506 1347 673 1347 c 0,8,9
 813 1347 813 1347 903 1239.5 c 128,-1,10
 993 1132 993 1132 993 943 c 0,11,12
 993 713 993 713 882 461.5 c 128,-1,13
 771 210 771 210 632 89.5 c 128,-1,14
 493 -31 493 -31 337 -31 c 0,15,16
 227 -31 227 -31 172.5 17 c 128,-1,17
 118 65 118 65 118 116 c 0,18,19
 118 149 118 149 140 168.5 c 128,-1,20
 162 188 162 188 187 188 c 0,21,22
 243 188 243 188 274 95 c 0,23,24
 300 15 300 15 372 15 c 0,25,26
 433 15 433 15 496.5 69 c 128,-1,27
 560 123 560 123 639.5 277 c 128,-1,28
 719 431 719 431 771 584 c 1,0,1
362 693 m 0,29,30
 362 610 362 610 411 562.5 c 128,-1,31
 460 515 460 515 544 515 c 0,32,33
 692 515 692 515 788 683.5 c 128,-1,34
 884 852 884 852 884 1053 c 0,35,36
 884 1181 884 1181 826 1241.5 c 128,-1,37
 768 1302 768 1302 692 1302 c 0,38,39
 610 1302 610 1302 534 1222.5 c 128,-1,40
 458 1143 458 1143 410 978.5 c 128,-1,41
 362 814 362 814 362 693 c 0,29,30
EndSplineSet
Substitution2: "<39,1> ????? lookup 11 subtable" nine
Substitution2: "<21,0> Lower Case Numbers lookup 8 subtable" uni0039.proportional
Substitution2: "<21,1> Upper Case Numbers lookup 7 subtable" nine
EndChar

StartChar: colon
Encoding: 58 58 31
Width: 491
Flags: W
LayerCount: 2
Fore
SplineSet
240 741 m 0,0,1
 240 785 240 785 271 816 c 128,-1,2
 302 847 302 847 345 847 c 0,3,4
 389 847 389 847 420 816 c 128,-1,5
 451 785 451 785 451 741 c 256,6,7
 451 697 451 697 420 666.5 c 128,-1,8
 389 636 389 636 345 636 c 256,9,10
 301 636 301 636 270.5 667.5 c 128,-1,11
 240 699 240 699 240 741 c 0,0,1
34 78 m 256,12,13
 34 121 34 121 65 152 c 128,-1,14
 96 183 96 183 140 183 c 0,15,16
 183 183 183 183 214 152.5 c 128,-1,17
 245 122 245 122 245 78 c 256,18,19
 245 34 245 34 214 3 c 128,-1,20
 183 -28 183 -28 140 -28 c 0,21,22
 95 -28 95 -28 64.5 3.5 c 128,-1,23
 34 35 34 35 34 78 c 256,12,13
EndSplineSet
Substitution2: "<39,1> ????? lookup 11 subtable" colon
Substitution2: "<21,0> Lower Case Numbers lookup 8 subtable" colon
Substitution2: "<21,1> Upper Case Numbers lookup 7 subtable" colon
EndChar

StartChar: semicolon
Encoding: 59 59 32
Width: 491
Flags: W
LayerCount: 2
Fore
SplineSet
232 741 m 0,0,1
 232 785 232 785 263 816 c 128,-1,2
 294 847 294 847 337 847 c 0,3,4
 381 847 381 847 412 816 c 128,-1,5
 443 785 443 785 443 741 c 0,6,7
 443 698 443 698 412 667 c 128,-1,8
 381 636 381 636 337 636 c 256,9,10
 293 636 293 636 262.5 667.5 c 128,-1,11
 232 699 232 699 232 741 c 0,0,1
-113 -358 m 1,12,-1
 -113 -318 l 1,13,14
 54 -295 54 -295 128 -207 c 128,-1,15
 202 -119 202 -119 202 -59 c 0,16,17
 202 -14 202 -14 163 -14 c 0,18,19
 156 -14 156 -14 148 -15 c 0,20,21
 128 -17 128 -17 121 -17 c 0,22,23
 85 -17 85 -17 55.5 8.5 c 128,-1,24
 26 34 26 34 26 82 c 0,25,26
 26 134 26 134 57.5 163 c 128,-1,27
 89 192 89 192 132 192 c 0,28,29
 194 192 194 192 231.5 140.5 c 128,-1,30
 269 89 269 89 269 8 c 0,31,32
 269 -122 269 -122 167 -234 c 128,-1,33
 65 -346 65 -346 -113 -358 c 1,12,-1
EndSplineSet
Substitution2: "<39,1> ????? lookup 11 subtable" semicolon
Substitution2: "<21,0> Lower Case Numbers lookup 8 subtable" semicolon
Substitution2: "<21,1> Upper Case Numbers lookup 7 subtable" semicolon
EndChar

StartChar: less
Encoding: 60 60 33
Width: 1365
Flags: W
LayerCount: 2
Fore
SplineSet
1281 154 m 1,0,-1
 203 610 l 1,1,-1
 203 707 l 1,2,-1
 1281 1161 l 1,3,-1
 1281 1044 l 1,4,-1
 347 659 l 1,5,-1
 1281 271 l 1,6,-1
 1281 154 l 1,0,-1
EndSplineSet
Substitution2: "<39,1> ????? lookup 11 subtable" less
Substitution2: "<21,0> Lower Case Numbers lookup 8 subtable" less
Substitution2: "<21,1> Upper Case Numbers lookup 7 subtable" less
EndChar

StartChar: equal
Encoding: 61 61 34
Width: 1365
Flags: W
LayerCount: 2
Fore
SplineSet
217 944 m 1,0,-1
 1295 944 l 1,1,-1
 1295 836 l 1,2,-1
 217 836 l 1,3,-1
 217 944 l 1,0,-1
217 479 m 1,4,-1
 1295 479 l 1,5,-1
 1295 371 l 1,6,-1
 217 371 l 1,7,-1
 217 479 l 1,4,-1
EndSplineSet
Substitution2: "<39,1> ????? lookup 11 subtable" equal
Substitution2: "<21,0> Lower Case Numbers lookup 8 subtable" equal
Substitution2: "<21,1> Upper Case Numbers lookup 7 subtable" equal
EndChar

StartChar: greater
Encoding: 62 62 35
Width: 1365
Flags: W
LayerCount: 2
Fore
SplineSet
239 1161 m 1,0,-1
 1317 705 l 1,1,-1
 1317 608 l 1,2,-1
 239 154 l 1,3,-1
 239 271 l 1,4,-1
 1173 656 l 1,5,-1
 239 1044 l 1,6,-1
 239 1161 l 1,0,-1
EndSplineSet
Substitution2: "<39,1> ????? lookup 11 subtable" greater
Substitution2: "<21,0> Lower Case Numbers lookup 8 subtable" greater
Substitution2: "<21,1> Upper Case Numbers lookup 7 subtable" greater
EndChar

StartChar: question
Encoding: 63 63 36
Width: 704
Flags: W
LayerCount: 2
Fore
SplineSet
280 392 m 1,0,-1
 234 392 l 1,1,-1
 346 760 l 1,2,-1
 377 760 l 1,3,4
 383 679 383 679 440 679 c 0,5,6
 518 679 518 679 581.5 830.5 c 128,-1,7
 645 982 645 982 645 1147 c 0,8,9
 645 1234 645 1234 603.5 1277.5 c 128,-1,10
 562 1321 562 1321 509 1321 c 0,11,12
 464 1321 464 1321 428 1273 c 0,13,14
 386 1216 386 1216 352 1216 c 0,15,16
 303 1216 303 1216 303 1263 c 0,17,18
 303 1303 303 1303 357 1336.5 c 128,-1,19
 411 1370 411 1370 482 1370 c 0,20,21
 585 1370 585 1370 674.5 1278 c 128,-1,22
 764 1186 764 1186 764 1032 c 0,23,24
 764 866 764 866 671.5 749.5 c 128,-1,25
 579 633 579 633 456 633 c 0,26,27
 407 633 407 633 360 654 c 1,28,-1
 280 392 l 1,0,-1
72 78 m 256,29,30
 72 121 72 121 103 152 c 128,-1,31
 134 183 134 183 178 183 c 0,32,33
 221 183 221 183 252 152.5 c 128,-1,34
 283 122 283 122 283 78 c 256,35,36
 283 34 283 34 252 3 c 128,-1,37
 221 -28 221 -28 178 -28 c 0,38,39
 133 -28 133 -28 102.5 3.5 c 128,-1,40
 72 35 72 35 72 78 c 256,29,30
EndSplineSet
Substitution2: "<39,1> ????? lookup 11 subtable" question
Substitution2: "<21,0> Lower Case Numbers lookup 8 subtable" question
Substitution2: "<21,1> Upper Case Numbers lookup 7 subtable" question
EndChar

StartChar: at
Encoding: 64 64 37
Width: 1877
Flags: W
LayerCount: 2
Fore
SplineSet
1406 958 m 1,0,-1
 1289 559 l 2,1,2
 1196 241 1196 241 1196 181 c 0,3,4
 1196 151 1196 151 1216 127 c 128,-1,5
 1236 103 1236 103 1272 103 c 0,6,7
 1353 103 1353 103 1455.5 183.5 c 128,-1,8
 1558 264 1558 264 1626.5 424 c 128,-1,9
 1695 584 1695 584 1695 756 c 0,10,11
 1695 1022 1695 1022 1514.5 1196.5 c 128,-1,12
 1334 1371 1334 1371 1047 1371 c 0,13,14
 811 1371 811 1371 616.5 1247 c 128,-1,15
 422 1123 422 1123 305.5 896.5 c 128,-1,16
 189 670 189 670 189 414 c 0,17,18
 189 64 189 64 409.5 -158.5 c 128,-1,19
 630 -381 630 -381 966 -381 c 0,20,21
 1167 -381 1167 -381 1335 -303.5 c 128,-1,22
 1503 -226 1503 -226 1608.5 -100 c 128,-1,23
 1714 26 1714 26 1776 172 c 1,24,-1
 1834 172 l 1,25,26
 1749 -101 1749 -101 1507 -271.5 c 128,-1,27
 1265 -442 1265 -442 970 -442 c 0,28,29
 590 -442 590 -442 342.5 -189 c 128,-1,30
 95 64 95 64 95 440 c 0,31,32
 95 853 95 853 368.5 1137.5 c 128,-1,33
 642 1422 642 1422 1052 1422 c 0,34,35
 1371 1422 1371 1422 1563 1228 c 128,-1,36
 1755 1034 1755 1034 1755 735 c 0,37,38
 1755 456 1755 456 1596.5 243.5 c 128,-1,39
 1438 31 1438 31 1205 31 c 0,40,41
 1128 31 1128 31 1089 66 c 128,-1,42
 1050 101 1050 101 1050 170 c 0,43,44
 1050 224 1050 224 1068 315 c 1,45,46
 838 30 838 30 674 30 c 0,47,48
 593 30 593 30 543 100.5 c 128,-1,49
 493 171 493 171 493 265 c 0,50,51
 493 401 493 401 578.5 571 c 128,-1,52
 664 741 664 741 801 852.5 c 128,-1,53
 938 964 938 964 1046 964 c 0,54,55
 1115 964 1115 964 1157.5 929.5 c 128,-1,56
 1200 895 1200 895 1216 826 c 1,57,-1
 1249 936 l 1,58,-1
 1406 958 l 1,0,-1
1055 917 m 0,59,60
 924 917 924 917 787.5 680.5 c 128,-1,61
 651 444 651 444 651 296 c 0,62,63
 651 239 651 239 682.5 195 c 128,-1,64
 714 151 714 151 767 151 c 0,65,66
 862 151 862 151 974.5 272.5 c 128,-1,67
 1087 394 1087 394 1133.5 541 c 128,-1,68
 1180 688 1180 688 1180 770 c 0,69,70
 1180 832 1180 832 1147 874.5 c 128,-1,71
 1114 917 1114 917 1055 917 c 0,59,60
EndSplineSet
Substitution2: "<39,1> ????? lookup 11 subtable" at
Substitution2: "<21,0> Lower Case Numbers lookup 8 subtable" at
Substitution2: "<21,1> Upper Case Numbers lookup 7 subtable" at
EndChar

StartChar: A
Encoding: 65 65 38
Width: 1173
Flags: W
LayerCount: 2
Fore
SplineSet
760 513 m 1,0,-1
 372 513 l 1,1,-1
 248 323 l 2,2,3
 187 229 187 229 174 203 c 128,-1,4
 161 177 161 177 161 149 c 0,5,6
 161 51 161 51 304 47 c 2,7,-1
 337 46 l 1,8,-1
 323 0 l 1,9,-1
 -152 0 l 1,10,-1
 -138 46 l 1,11,12
 -40 54 -40 54 25 110.5 c 128,-1,13
 90 167 90 167 211 349 c 2,14,-1
 901 1380 l 1,15,-1
 971 1380 l 1,16,-1
 924 281 l 1,17,-1
 918 159 l 2,18,19
 918 93 918 93 956.5 71 c 128,-1,20
 995 49 995 49 1082 46 c 1,21,-1
 1068 0 l 1,22,-1
 536 0 l 1,23,-1
 550 46 l 1,24,25
 656 48 656 48 693.5 76.5 c 128,-1,26
 731 105 731 105 738 144.5 c 128,-1,27
 745 184 745 184 750 294 c 2,28,-1
 760 513 l 1,0,-1
762 559 m 1,29,-1
 788 1138 l 1,30,-1
 402 559 l 1,31,-1
 762 559 l 1,29,-1
EndSplineSet
Substitution2: "<39,1> ????? lookup 11 subtable" A
Substitution2: "<21,0> Lower Case Numbers lookup 8 subtable" A
Substitution2: "<21,1> Upper Case Numbers lookup 7 subtable" A
EndChar

StartChar: B
Encoding: 66 66 39
Width: 1216
Flags: W
LayerCount: 2
Fore
SplineSet
833 715 m 1,0,1
 972 688 972 688 1057.5 604 c 128,-1,2
 1143 520 1143 520 1143 402 c 0,3,4
 1143 305 1143 305 1090.5 218.5 c 128,-1,5
 1038 132 1038 132 941.5 78.5 c 128,-1,6
 845 25 845 25 735 12.5 c 128,-1,7
 625 0 625 0 420 0 c 2,8,-1
 -46 0 l 1,9,-1
 -32 46 l 1,10,-1
 5 46 l 2,11,12
 67 46 67 46 109.5 68.5 c 128,-1,13
 152 91 152 91 168 121 c 128,-1,14
 184 151 184 151 214 250 c 2,15,-1
 476 1113 l 2,16,17
 506 1213 506 1213 506 1239 c 0,18,19
 506 1310 506 1310 377 1310 c 2,20,-1
 349 1310 l 1,21,-1
 363 1356 l 1,22,-1
 798 1356 l 2,23,24
 912 1356 912 1356 977.5 1345.5 c 128,-1,25
 1043 1335 1043 1335 1111 1294.5 c 128,-1,26
 1179 1254 1179 1254 1214.5 1193 c 128,-1,27
 1250 1132 1250 1132 1250 1063 c 0,28,29
 1250 941 1250 941 1145.5 843.5 c 128,-1,30
 1041 746 1041 746 833 715 c 1,0,1
541 738 m 1,31,-1
 645 738 l 2,32,33
 794 738 794 738 882 777.5 c 128,-1,34
 970 817 970 817 1020.5 902 c 128,-1,35
 1071 987 1071 987 1071 1099 c 0,36,37
 1071 1177 1071 1177 1031 1230 c 128,-1,38
 991 1283 991 1283 942.5 1296.5 c 128,-1,39
 894 1310 894 1310 791 1310 c 2,40,-1
 716 1310 l 1,41,-1
 541 738 l 1,31,-1
527 692 m 1,42,-1
 383 219 l 2,43,44
 364 158 364 158 364 135 c 0,45,46
 364 44 364 44 559 44 c 0,47,48
 756 44 756 44 858.5 167 c 128,-1,49
 961 290 961 290 961 464 c 0,50,51
 961 551 961 551 917.5 606.5 c 128,-1,52
 874 662 874 662 816.5 677 c 128,-1,53
 759 692 759 692 634 692 c 2,54,-1
 527 692 l 1,42,-1
EndSplineSet
Substitution2: "<39,1> ????? lookup 11 subtable" B
Substitution2: "<21,0> Lower Case Numbers lookup 8 subtable" B
Substitution2: "<21,1> Upper Case Numbers lookup 7 subtable" B
EndChar

StartChar: C
Encoding: 67 67 40
Width: 1237
Flags: W
LayerCount: 2
Fore
SplineSet
1117 423 m 1,0,-1
 1162 423 l 1,1,-1
 1026 -17 l 1,2,-1
 984 -17 l 1,3,4
 984 46 984 46 974 118 c 1,5,6
 828 -24 828 -24 639 -24 c 0,7,8
 421 -24 421 -24 293 133.5 c 128,-1,9
 165 291 165 291 165 492 c 0,10,11
 165 813 165 813 396 1096.5 c 128,-1,12
 627 1380 627 1380 919 1380 c 0,13,14
 1041 1380 1041 1380 1124.5 1327 c 128,-1,15
 1208 1274 1208 1274 1253 1168 c 1,16,17
 1298 1244 1298 1244 1321 1324 c 1,18,-1
 1365 1324 l 1,19,-1
 1275 929 l 1,20,-1
 1233 929 l 1,21,22
 1236 956 1236 956 1236 980 c 0,23,24
 1236 1152 1236 1152 1155 1245 c 128,-1,25
 1074 1338 1074 1338 941 1338 c 0,26,27
 795 1338 795 1338 669 1232 c 128,-1,28
 543 1126 543 1126 445.5 869.5 c 128,-1,29
 348 613 348 613 348 416 c 0,30,31
 348 243 348 243 430.5 132 c 128,-1,32
 513 21 513 21 656 21 c 0,33,34
 936 21 936 21 1117 423 c 1,0,-1
EndSplineSet
Substitution2: "<39,1> ????? lookup 11 subtable" C
Substitution2: "<21,0> Lower Case Numbers lookup 8 subtable" C
Substitution2: "<21,1> Upper Case Numbers lookup 7 subtable" C
EndChar

StartChar: D
Encoding: 68 68 41
Width: 1387
Flags: W
LayerCount: 2
Fore
SplineSet
331 1356 m 1,0,-1
 429 1356 l 2,1,2
 514 1356 514 1356 636 1360 c 0,3,4
 752 1365 752 1365 799 1365 c 0,5,6
 994 1365 994 1365 1129.5 1292 c 128,-1,7
 1265 1219 1265 1219 1331.5 1077.5 c 128,-1,8
 1398 936 1398 936 1398 777 c 0,9,10
 1398 634 1398 634 1340.5 486 c 128,-1,11
 1283 338 1283 338 1182 231.5 c 128,-1,12
 1081 125 1081 125 965 73.5 c 128,-1,13
 849 22 849 22 751.5 11 c 128,-1,14
 654 0 654 0 470 0 c 2,15,-1
 -75 0 l 1,16,-1
 -61 46 l 1,17,-1
 -3 46 l 2,18,19
 59 46 59 46 101.5 68.5 c 128,-1,20
 144 91 144 91 160 120.5 c 128,-1,21
 176 150 176 150 206 250 c 2,22,-1
 468 1113 l 2,23,24
 498 1213 498 1213 498 1239 c 0,25,26
 498 1310 498 1310 369 1310 c 2,27,-1
 317 1310 l 1,28,-1
 331 1356 l 1,0,-1
710 1318 m 1,29,-1
 387 256 l 2,30,31
 359 163 359 163 359 139 c 0,32,33
 359 43 359 43 564 43 c 0,34,35
 875 43 875 43 1043.5 297 c 128,-1,36
 1212 551 1212 551 1212 839 c 0,37,38
 1212 1053 1212 1053 1107 1188 c 128,-1,39
 1002 1323 1002 1323 788 1323 c 0,40,41
 755 1323 755 1323 710 1318 c 1,29,-1
EndSplineSet
Substitution2: "<39,1> ????? lookup 11 subtable" D
Substitution2: "<21,0> Lower Case Numbers lookup 8 subtable" D
Substitution2: "<21,1> Upper Case Numbers lookup 7 subtable" D
EndChar

StartChar: E
Encoding: 69 69 42
Width: 1259
Flags: W
LayerCount: 2
Fore
SplineSet
1175 343 m 1,0,-1
 1219 343 l 1,1,-1
 1114 0 l 1,2,-1
 -21 0 l 1,3,-1
 -7 46 l 1,4,-1
 22 46 l 2,5,6
 84 46 84 46 126.5 68.5 c 128,-1,7
 169 91 169 91 185 120.5 c 128,-1,8
 201 150 201 150 231 250 c 2,9,-1
 493 1113 l 2,10,11
 523 1213 523 1213 523 1239 c 0,12,13
 523 1310 523 1310 394 1310 c 2,14,-1
 354 1310 l 1,15,-1
 368 1356 l 1,16,-1
 1335 1356 l 1,17,-1
 1340 1050 l 1,18,-1
 1298 1050 l 1,19,20
 1268 1170 1268 1170 1219 1228.5 c 128,-1,21
 1170 1287 1170 1287 1118.5 1298.5 c 128,-1,22
 1067 1310 1067 1310 909 1310 c 2,23,-1
 733 1310 l 1,24,-1
 558 730 l 1,25,-1
 656 730 l 2,26,27
 796 730 796 730 868 769 c 128,-1,28
 940 808 940 808 1002 951 c 1,29,-1
 1048 951 l 1,30,-1
 887 419 l 1,31,-1
 841 419 l 1,32,33
 852 472 852 472 852 521 c 0,34,35
 852 603 852 603 831.5 635 c 128,-1,36
 811 667 811 667 777 675.5 c 128,-1,37
 743 684 743 684 655 684 c 2,38,-1
 544 684 l 1,39,-1
 417 263 l 2,40,41
 387 162 387 162 387 142 c 0,42,43
 387 88 387 88 433.5 66 c 128,-1,44
 480 44 480 44 595 44 c 2,45,-1
 674 44 l 2,46,47
 880 44 880 44 991 116.5 c 128,-1,48
 1102 189 1102 189 1175 343 c 1,0,-1
EndSplineSet
Substitution2: "<39,1> ????? lookup 11 subtable" E
Substitution2: "<21,0> Lower Case Numbers lookup 8 subtable" E
Substitution2: "<21,1> Upper Case Numbers lookup 7 subtable" E
EndChar

StartChar: F
Encoding: 70 70 43
Width: 1109
Flags: W
LayerCount: 2
Fore
SplineSet
1305 1356 m 1,0,-1
 1312 1050 l 1,1,-1
 1268 1050 l 1,2,3
 1247 1164 1247 1164 1197.5 1226 c 128,-1,4
 1148 1288 1148 1288 1102.5 1299 c 128,-1,5
 1057 1310 1057 1310 928 1310 c 2,6,-1
 709 1310 l 1,7,-1
 541 724 l 1,8,-1
 648 724 l 2,9,10
 819 724 819 724 893.5 784 c 128,-1,11
 968 844 968 844 1003 948 c 1,12,-1
 1050 948 l 1,13,-1
 893 400 l 1,14,-1
 845 400 l 1,15,16
 862 462 862 462 862 520 c 0,17,18
 862 589 862 589 835 625.5 c 128,-1,19
 808 662 808 662 767 670 c 128,-1,20
 726 678 726 678 630 678 c 2,21,-1
 528 678 l 1,22,-1
 408 260 l 2,23,24
 381 165 381 165 381 142 c 0,25,26
 381 92 381 92 424 69 c 128,-1,27
 467 46 467 46 522 46 c 2,28,-1
 555 46 l 1,29,-1
 542 0 l 1,30,-1
 -21 0 l 1,31,-1
 -7 46 l 1,32,-1
 20 46 l 2,33,34
 82 46 82 46 124.5 68.5 c 128,-1,35
 167 91 167 91 182.5 120.5 c 128,-1,36
 198 150 198 150 226 250 c 2,37,-1
 473 1113 l 2,38,39
 501 1211 501 1211 501 1237 c 0,40,41
 501 1310 501 1310 371 1310 c 2,42,-1
 342 1310 l 1,43,-1
 355 1356 l 1,44,-1
 1305 1356 l 1,0,-1
EndSplineSet
Substitution2: "<39,1> ????? lookup 11 subtable" F
Substitution2: "<21,0> Lower Case Numbers lookup 8 subtable" F
Substitution2: "<21,1> Upper Case Numbers lookup 7 subtable" F
EndChar

StartChar: G
Encoding: 71 71 44
Width: 1301
Flags: W
LayerCount: 2
Fore
SplineSet
1343 564 m 1,0,-1
 1329 521 l 1,1,2
 1268 521 1268 521 1242.5 508.5 c 128,-1,3
 1217 496 1217 496 1204.5 473 c 128,-1,4
 1192 450 1192 450 1167 365 c 2,5,-1
 1075 62 l 1,6,7
 1005 125 1005 125 984 125 c 0,8,9
 974 125 974 125 960 114 c 0,10,11
 789 -24 789 -24 600 -24 c 0,12,13
 398 -24 398 -24 269.5 119 c 128,-1,14
 141 262 141 262 141 497 c 0,15,16
 141 824 141 824 366.5 1102 c 128,-1,17
 592 1380 592 1380 912 1380 c 0,18,19
 1149 1380 1149 1380 1262 1203 c 1,20,-1
 1328 1328 l 1,21,-1
 1370 1328 l 1,22,-1
 1287 921 l 1,23,-1
 1246 921 l 1,24,25
 1250 967 1250 967 1250 1003 c 0,26,27
 1250 1114 1250 1114 1216 1181.5 c 128,-1,28
 1182 1249 1182 1249 1106 1294.5 c 128,-1,29
 1030 1340 1030 1340 933 1340 c 0,30,31
 817 1340 817 1340 711.5 1273.5 c 128,-1,32
 606 1207 606 1207 525 1085.5 c 128,-1,33
 444 964 444 964 378.5 759.5 c 128,-1,34
 313 555 313 555 313 395 c 0,35,36
 313 197 313 197 406 108 c 128,-1,37
 499 19 499 19 630 19 c 0,38,39
 878 19 878 19 964 298 c 2,40,-1
 978 344 l 2,41,42
 1001 419 1001 419 1001 445 c 0,43,44
 1001 518 1001 518 872 518 c 2,45,-1
 834 518 l 1,46,-1
 848 564 l 1,47,-1
 1343 564 l 1,0,-1
EndSplineSet
Substitution2: "<39,1> ????? lookup 11 subtable" G
Substitution2: "<21,0> Lower Case Numbers lookup 8 subtable" G
Substitution2: "<21,1> Upper Case Numbers lookup 7 subtable" G
EndChar

StartChar: H
Encoding: 72 72 45
Width: 1536
Flags: W
LayerCount: 2
Fore
SplineSet
1174 679 m 1,0,-1
 527 679 l 1,1,-1
 400 260 l 2,2,3
 370 164 370 164 370 140 c 0,4,5
 370 46 370 46 517 46 c 1,6,-1
 503 0 l 1,7,-1
 -18 0 l 1,8,-1
 -4 46 l 1,9,10
 63 46 63 46 107 66 c 128,-1,11
 151 86 151 86 168.5 116 c 128,-1,12
 186 146 186 146 217 250 c 2,13,-1
 479 1113 l 2,14,15
 509 1213 509 1213 509 1239 c 0,16,17
 509 1277 509 1277 476.5 1293.5 c 128,-1,18
 444 1310 444 1310 362 1310 c 1,19,-1
 376 1356 l 1,20,-1
 887 1356 l 1,21,-1
 873 1310 l 1,22,23
 800 1310 800 1310 762.5 1292.5 c 128,-1,24
 725 1275 725 1275 707.5 1245 c 128,-1,25
 690 1215 690 1215 651 1086 c 2,26,-1
 544 735 l 1,27,-1
 1191 735 l 1,28,-1
 1305 1113 l 2,29,30
 1336 1213 1336 1213 1336 1238 c 0,31,32
 1336 1310 1336 1310 1198 1310 c 1,33,-1
 1212 1356 l 1,34,-1
 1699 1356 l 1,35,-1
 1686 1310 l 1,36,37
 1627 1310 1627 1310 1587.5 1292.5 c 128,-1,38
 1548 1275 1548 1275 1531.5 1244.5 c 128,-1,39
 1515 1214 1515 1214 1478 1091 c 2,40,-1
 1226 260 l 2,41,42
 1197 165 1197 165 1197 141 c 0,43,44
 1197 46 1197 46 1351 46 c 1,45,-1
 1337 0 l 1,46,-1
 803 0 l 1,47,-1
 817 46 l 1,48,49
 890 46 890 46 934.5 68.5 c 128,-1,50
 979 91 979 91 996.5 122.5 c 128,-1,51
 1014 154 1014 154 1046 258 c 2,52,-1
 1174 679 l 1,0,-1
EndSplineSet
Substitution2: "<39,1> ????? lookup 11 subtable" H
Substitution2: "<21,0> Lower Case Numbers lookup 8 subtable" H
Substitution2: "<21,1> Upper Case Numbers lookup 7 subtable" H
EndChar

StartChar: I
Encoding: 73 73 46
Width: 704
Flags: W
LayerCount: 2
Fore
SplineSet
547 46 m 1,0,-1
 533 0 l 1,1,-1
 -39 0 l 1,2,-1
 -25 46 l 1,3,-1
 6 46 l 2,4,5
 68 46 68 46 111 68.5 c 128,-1,6
 154 91 154 91 169.5 120.5 c 128,-1,7
 185 150 185 150 215 250 c 2,8,-1
 476 1113 l 2,9,10
 507 1213 507 1213 507 1238 c 0,11,12
 507 1310 507 1310 378 1310 c 2,13,-1
 342 1310 l 1,14,-1
 356 1356 l 1,15,-1
 889 1356 l 1,16,-1
 875 1310 l 1,17,-1
 847 1310 l 2,18,19
 799 1310 799 1310 760 1293 c 128,-1,20
 721 1276 721 1276 704.5 1246 c 128,-1,21
 688 1216 688 1216 650 1091 c 2,22,-1
 397 260 l 2,23,24
 368 165 368 165 368 140 c 0,25,26
 368 91 368 91 410.5 68.5 c 128,-1,27
 453 46 453 46 508 46 c 2,28,-1
 547 46 l 1,0,-1
EndSplineSet
Substitution2: "<39,1> ????? lookup 11 subtable" I
Substitution2: "<21,0> Lower Case Numbers lookup 8 subtable" I
Substitution2: "<21,1> Upper Case Numbers lookup 7 subtable" I
EndChar

StartChar: J
Encoding: 74 74 47
Width: 960
Flags: W
LayerCount: 2
Fore
SplineSet
774 672 m 1,0,-1
 680 275 l 2,1,2
 629 61 629 61 568 -86.5 c 128,-1,3
 507 -234 507 -234 429 -321 c 128,-1,4
 351 -408 351 -408 257.5 -448.5 c 128,-1,5
 164 -489 164 -489 48 -489 c 0,6,7
 -108 -489 -108 -489 -186 -417 c 128,-1,8
 -264 -345 -264 -345 -264 -272 c 0,9,10
 -264 -226 -264 -226 -240.5 -199 c 128,-1,11
 -217 -172 -217 -172 -184 -172 c 256,12,13
 -151 -172 -151 -172 -127.5 -198 c 128,-1,14
 -104 -224 -104 -224 -104 -266 c 0,15,16
 -104 -279 -104 -279 -106 -299 c 0,17,18
 -109 -321 -109 -321 -109 -329 c 0,19,20
 -109 -377 -109 -377 -64 -410 c 0,21,22
 -20 -444 -20 -444 49 -444 c 0,23,24
 139 -444 139 -444 217 -378 c 128,-1,25
 295 -312 295 -312 352.5 -165 c 128,-1,26
 410 -18 410 -18 487 249 c 0,27,28
 545 448 545 448 627 672 c 1,29,-1
 379 672 l 1,30,-1
 393 718 l 1,31,-1
 644 718 l 1,32,33
 783 1089 783 1089 889 1227 c 1,34,35
 752 1175 752 1175 578 1175 c 0,36,37
 515 1175 515 1175 419 1186 c 0,38,39
 366 1193 366 1193 343 1193 c 0,40,41
 214 1193 214 1193 167 1093 c 1,42,-1
 121 1093 l 1,43,44
 145 1197 145 1197 224 1282.5 c 128,-1,45
 303 1368 303 1368 414 1368 c 0,46,47
 490 1368 490 1368 597 1302 c 0,48,49
 698 1240 698 1240 760 1240 c 0,50,51
 852 1240 852 1240 932 1319 c 0,52,53
 981 1367 981 1367 1007 1367 c 0,54,55
 1043 1367 1043 1367 1043 1333 c 256,56,57
 1043 1299 1043 1299 978 1242 c 0,58,59
 931 1201 931 1201 910.5 1165.5 c 128,-1,60
 890 1130 890 1130 860 1021 c 128,-1,61
 830 912 830 912 785 718 c 1,62,-1
 956 718 l 1,63,-1
 942 672 l 1,64,-1
 774 672 l 1,0,-1
EndSplineSet
Substitution2: "<39,1> ????? lookup 11 subtable" J
Substitution2: "<21,0> Lower Case Numbers lookup 8 subtable" J
Substitution2: "<21,1> Upper Case Numbers lookup 7 subtable" J
EndChar

StartChar: K
Encoding: 75 75 48
Width: 1195
Flags: W
LayerCount: 2
Fore
SplineSet
1097 131 m 1,0,-1
 1146 131 l 1,1,2
 1112 61 1112 61 1056.5 26 c 128,-1,3
 1001 -9 1001 -9 925 -9 c 0,4,5
 824 -9 824 -9 775 47.5 c 128,-1,6
 726 104 726 104 726 179 c 0,7,8
 726 220 726 220 749 326 c 0,9,10
 773 435 773 435 773 496 c 0,11,12
 773 577 773 577 733 620 c 128,-1,13
 693 663 693 663 631 663 c 0,14,15
 568 663 568 663 531 618.5 c 128,-1,16
 494 574 494 574 449 424 c 2,17,-1
 399 260 l 2,18,19
 370 164 370 164 370 140 c 0,20,21
 370 46 370 46 527 46 c 1,22,-1
 513 0 l 1,23,-1
 -19 0 l 1,24,-1
 -5 46 l 1,25,26
 57 46 57 46 102 67 c 128,-1,27
 147 88 147 88 165.5 120 c 128,-1,28
 184 152 184 152 217 258 c 2,29,-1
 476 1113 l 2,30,31
 507 1213 507 1213 507 1239 c 0,32,33
 507 1310 507 1310 378 1310 c 2,34,-1
 340 1310 l 1,35,-1
 354 1356 l 1,36,-1
 882 1356 l 1,37,-1
 868 1310 l 1,38,39
 808 1310 808 1310 770.5 1296 c 128,-1,40
 733 1282 733 1282 710.5 1249 c 128,-1,41
 688 1216 688 1216 648 1086 c 2,42,-1
 532 702 l 1,43,44
 839 1051 839 1051 1037 1215.5 c 128,-1,45
 1235 1380 1235 1380 1366 1380 c 0,46,47
 1419 1380 1419 1380 1454 1351 c 128,-1,48
 1489 1322 1489 1322 1489 1276 c 0,49,50
 1489 1241 1489 1241 1466 1219.5 c 128,-1,51
 1443 1198 1443 1198 1412 1198 c 0,52,53
 1363 1198 1363 1198 1349 1252 c 0,54,55
 1335 1307 1335 1307 1289 1307 c 0,56,57
 1257 1307 1257 1307 1218.5 1290.5 c 128,-1,58
 1180 1274 1180 1274 1047.5 1165 c 128,-1,59
 915 1056 915 1056 752 883 c 128,-1,60
 589 710 589 710 577 690 c 1,61,62
 628 707 628 707 669 707 c 0,63,64
 788 707 788 707 860 614 c 128,-1,65
 932 521 932 521 932 362 c 0,66,67
 932 319 932 319 921 225 c 0,68,69
 917 192 917 192 917 170 c 0,70,71
 917 76 917 76 997 76 c 0,72,73
 1027 76 1027 76 1052 90 c 128,-1,74
 1077 104 1077 104 1097 131 c 1,0,-1
EndSplineSet
Substitution2: "<39,1> ????? lookup 11 subtable" K
Substitution2: "<21,0> Lower Case Numbers lookup 8 subtable" K
Substitution2: "<21,1> Upper Case Numbers lookup 7 subtable" K
EndChar

StartChar: L
Encoding: 76 76 49
Width: 1109
Flags: W
LayerCount: 2
Fore
SplineSet
1106 340 m 1,0,-1
 1149 340 l 1,1,-1
 1038 0 l 1,2,-1
 -37 0 l 1,3,-1
 -23 46 l 1,4,-1
 9 46 l 2,5,6
 71 46 71 46 114 68.5 c 128,-1,7
 157 91 157 91 172.5 120.5 c 128,-1,8
 188 150 188 150 218 250 c 2,9,-1
 480 1113 l 2,10,11
 511 1213 511 1213 511 1239 c 0,12,13
 511 1310 511 1310 381 1310 c 2,14,-1
 354 1310 l 1,15,-1
 368 1356 l 1,16,-1
 922 1356 l 1,17,-1
 908 1310 l 1,18,-1
 872 1310 l 2,19,20
 804 1310 804 1310 766 1293 c 128,-1,21
 728 1276 728 1276 709.5 1245.5 c 128,-1,22
 691 1215 691 1215 652 1086 c 2,23,-1
 400 256 l 2,24,25
 371 160 371 160 371 138 c 0,26,27
 371 91 371 91 408.5 66.5 c 128,-1,28
 446 42 446 42 575 42 c 2,29,-1
 643 42 l 2,30,31
 852 42 852 42 958 143.5 c 128,-1,32
 1064 245 1064 245 1106 340 c 1,0,-1
EndSplineSet
Substitution2: "<39,1> ????? lookup 11 subtable" L
Substitution2: "<21,0> Lower Case Numbers lookup 8 subtable" L
Substitution2: "<21,1> Upper Case Numbers lookup 7 subtable" L
EndChar

StartChar: M
Encoding: 77 77 50
Width: 1792
Flags: W
LayerCount: 2
Fore
SplineSet
829 209 m 1,0,-1
 1612 1356 l 1,1,-1
 1951 1356 l 1,2,-1
 1937 1310 l 1,3,4
 1835 1310 1835 1310 1801.5 1293 c 128,-1,5
 1768 1276 1768 1276 1753 1244.5 c 128,-1,6
 1738 1213 1738 1213 1713 1104 c 2,7,-1
 1504 260 l 2,8,9
 1481 169 1481 169 1481 146 c 0,10,11
 1481 94 1481 94 1525 70 c 128,-1,12
 1569 46 1569 46 1626 46 c 2,13,-1
 1657 46 l 1,14,-1
 1643 0 l 1,15,-1
 1076 0 l 1,16,-1
 1090 46 l 1,17,-1
 1114 46 l 2,18,19
 1177 46 1177 46 1220.5 67.5 c 128,-1,20
 1264 89 1264 89 1280.5 120.5 c 128,-1,21
 1297 152 1297 152 1324 258 c 2,22,-1
 1561 1205 l 1,23,-1
 733 0 l 1,24,-1
 685 0 l 1,25,-1
 551 1104 l 1,26,-1
 282 400 l 2,27,28
 212 217 212 217 212 172 c 0,29,30
 212 102 212 102 252 75 c 128,-1,31
 292 48 292 48 384 46 c 1,32,-1
 370 0 l 1,33,-1
 -86 0 l 1,34,-1
 -72 46 l 1,35,36
 2 48 2 48 55 82 c 128,-1,37
 108 116 108 116 141 179 c 128,-1,38
 174 242 174 242 239 412 c 2,39,-1
 496 1077 l 2,40,41
 540 1193 540 1193 540 1226 c 0,42,43
 540 1267 540 1267 516 1288.5 c 128,-1,44
 492 1310 492 1310 415 1310 c 2,45,-1
 357 1310 l 1,46,-1
 370 1356 l 1,47,-1
 686 1356 l 1,48,-1
 829 209 l 1,0,-1
EndSplineSet
Substitution2: "<39,1> ????? lookup 11 subtable" M
Substitution2: "<21,0> Lower Case Numbers lookup 8 subtable" M
Substitution2: "<21,1> Upper Case Numbers lookup 7 subtable" M
EndChar

StartChar: N
Encoding: 78 78 51
Width: 1323
Flags: W
LayerCount: 2
Fore
SplineSet
1011 -13 m 1,0,-1
 964 -13 l 1,1,-1
 587 1136 l 1,2,-1
 467 644 l 2,3,4
 398 356 398 356 343.5 196.5 c 128,-1,5
 289 37 289 37 215 -30 c 128,-1,6
 141 -97 141 -97 64 -97 c 0,7,8
 -10 -97 -10 -97 -59 -55.5 c 128,-1,9
 -108 -14 -108 -14 -108 51 c 0,10,11
 -108 153 -108 153 -31 153 c 0,12,13
 -1 153 -1 153 20.5 132 c 128,-1,14
 42 111 42 111 42 77 c 0,15,16
 42 52 42 52 24 18 c 0,17,18
 14 -2 14 -2 14 -14 c 0,19,20
 14 -33 14 -33 28 -43 c 128,-1,21
 42 -53 42 -53 69 -53 c 0,22,23
 161 -53 161 -53 236 65 c 128,-1,24
 311 183 311 183 429 675 c 2,25,-1
 531 1102 l 2,26,27
 559 1215 559 1215 559 1226 c 0,28,29
 559 1259 559 1259 527 1283.5 c 128,-1,30
 495 1308 495 1308 367 1310 c 1,31,-1
 378 1356 l 1,32,-1
 691 1356 l 1,33,-1
 1039 299 l 1,34,-1
 1122 644 l 2,35,36
 1250 1176 1250 1176 1318.5 1274.5 c 128,-1,37
 1387 1373 1387 1373 1476 1373 c 0,38,39
 1529 1373 1529 1373 1559 1347.5 c 128,-1,40
 1589 1322 1589 1322 1589 1284 c 0,41,42
 1589 1250 1589 1250 1565.5 1229 c 128,-1,43
 1542 1208 1542 1208 1512 1208 c 0,44,45
 1474 1208 1474 1208 1443 1256 c 0,46,47
 1426 1284 1426 1284 1403 1284 c 0,48,49
 1362 1284 1362 1284 1315.5 1172 c 128,-1,50
 1269 1060 1269 1060 1163 619 c 2,51,-1
 1011 -13 l 1,0,-1
EndSplineSet
Substitution2: "<39,1> ????? lookup 11 subtable" N
Substitution2: "<21,0> Lower Case Numbers lookup 8 subtable" N
Substitution2: "<21,1> Upper Case Numbers lookup 7 subtable" N
EndChar

StartChar: O
Encoding: 79 79 52
Width: 1344
Flags: W
LayerCount: 2
Fore
SplineSet
181 519 m 0,0,1
 181 709 181 709 294.5 928.5 c 128,-1,2
 408 1148 408 1148 578 1264 c 128,-1,3
 748 1380 748 1380 907 1380 c 0,4,5
 990 1380 990 1380 1090.5 1336 c 128,-1,6
 1191 1292 1191 1292 1265.5 1162 c 128,-1,7
 1340 1032 1340 1032 1340 846 c 0,8,9
 1340 522 1340 522 1119 249 c 128,-1,10
 898 -24 898 -24 636 -24 c 0,11,12
 441 -24 441 -24 311 118 c 128,-1,13
 181 260 181 260 181 519 c 0,0,1
360 418 m 0,14,15
 360 276 360 276 387 199 c 128,-1,16
 414 122 414 122 478 71 c 128,-1,17
 542 20 542 20 632 20 c 0,18,19
 773 20 773 20 894.5 159 c 128,-1,20
 1016 298 1016 298 1094 547 c 128,-1,21
 1172 796 1172 796 1172 972 c 0,22,23
 1172 1152 1172 1152 1096.5 1242.5 c 128,-1,24
 1021 1333 1021 1333 903 1333 c 0,25,26
 765 1333 765 1333 642 1200 c 128,-1,27
 519 1067 519 1067 439.5 829 c 128,-1,28
 360 591 360 591 360 418 c 0,14,15
EndSplineSet
Substitution2: "<39,1> ????? lookup 11 subtable" O
Substitution2: "<21,0> Lower Case Numbers lookup 8 subtable" O
Substitution2: "<21,1> Upper Case Numbers lookup 7 subtable" O
EndChar

StartChar: P
Encoding: 80 80 53
Width: 1109
Flags: W
LayerCount: 2
Fore
SplineSet
520 658 m 1,0,-1
 401 260 l 2,1,2
 372 163 372 163 372 141 c 0,3,4
 372 93 372 93 411 69.5 c 128,-1,5
 450 46 450 46 511 46 c 2,6,-1
 543 46 l 1,7,-1
 529 0 l 1,8,-1
 -10 0 l 1,9,-1
 4 46 l 1,10,11
 67 46 67 46 110 68 c 128,-1,12
 153 90 153 90 168.5 120 c 128,-1,13
 184 150 184 150 214 250 c 2,14,-1
 476 1113 l 2,15,16
 507 1213 507 1213 507 1239 c 0,17,18
 507 1310 507 1310 377 1310 c 2,19,-1
 331 1310 l 1,20,-1
 345 1356 l 1,21,-1
 722 1356 l 2,22,23
 874 1356 874 1356 948.5 1347.5 c 128,-1,24
 1023 1339 1023 1339 1100 1296 c 128,-1,25
 1177 1253 1177 1253 1218.5 1183 c 128,-1,26
 1260 1113 1260 1113 1260 1035 c 0,27,28
 1260 891 1260 891 1134.5 774.5 c 128,-1,29
 1009 658 1009 658 618 658 c 2,30,-1
 520 658 l 1,0,-1
533 704 m 1,31,-1
 592 704 l 2,32,33
 743 704 743 704 838.5 731 c 128,-1,34
 934 758 934 758 1003.5 856.5 c 128,-1,35
 1073 955 1073 955 1073 1073 c 0,36,37
 1073 1164 1073 1164 1031.5 1223 c 128,-1,38
 990 1282 990 1282 933.5 1296 c 128,-1,39
 877 1310 877 1310 765 1310 c 2,40,-1
 717 1310 l 1,41,-1
 533 704 l 1,31,-1
EndSplineSet
Substitution2: "<39,1> ????? lookup 11 subtable" P
Substitution2: "<21,0> Lower Case Numbers lookup 8 subtable" P
Substitution2: "<21,1> Upper Case Numbers lookup 7 subtable" P
EndChar

StartChar: Q
Encoding: 81 81 54
Width: 1344
Flags: W
LayerCount: 2
Fore
SplineSet
615 -24 m 1,0,1
 412 -10 412 -10 297.5 136 c 128,-1,2
 183 282 183 282 183 507 c 0,3,4
 183 718 183 718 303.5 939.5 c 128,-1,5
 424 1161 424 1161 591 1270.5 c 128,-1,6
 758 1380 758 1380 909 1380 c 0,7,8
 1009 1380 1009 1380 1110.5 1326.5 c 128,-1,9
 1212 1273 1212 1273 1277 1144.5 c 128,-1,10
 1342 1016 1342 1016 1342 846 c 0,11,12
 1342 568 1342 568 1169 313 c 128,-1,13
 996 58 996 58 756 -9 c 1,14,-1
 509 -113 l 1,15,16
 533 -112 533 -112 545 -112 c 0,17,18
 698 -112 698 -112 979 -216 c 0,19,20
 1140 -277 1140 -277 1225 -298 c 128,-1,21
 1310 -319 1310 -319 1403 -319 c 0,22,23
 1503 -319 1503 -319 1579 -282.5 c 128,-1,24
 1655 -246 1655 -246 1706 -174 c 1,25,-1
 1764 -174 l 1,26,27
 1699 -334 1699 -334 1596 -414.5 c 128,-1,28
 1493 -495 1493 -495 1352 -495 c 0,29,30
 1186 -495 1186 -495 971 -342 c 0,31,32
 789 -211 789 -211 686 -180.5 c 128,-1,33
 583 -150 583 -150 506 -150 c 0,34,35
 421 -150 421 -150 323 -225 c 0,36,37
 282 -256 282 -256 262 -256 c 0,38,39
 225 -256 225 -256 225 -222 c 256,40,41
 225 -188 225 -188 302 -157 c 2,42,-1
 615 -24 l 1,0,1
362 418 m 0,43,44
 362 276 362 276 389 199 c 128,-1,45
 416 122 416 122 480 71 c 128,-1,46
 544 20 544 20 634 20 c 0,47,48
 775 20 775 20 896.5 159 c 128,-1,49
 1018 298 1018 298 1096 547 c 128,-1,50
 1174 796 1174 796 1174 972 c 0,51,52
 1174 1152 1174 1152 1098.5 1242.5 c 128,-1,53
 1023 1333 1023 1333 905 1333 c 0,54,55
 767 1333 767 1333 644 1200 c 128,-1,56
 521 1067 521 1067 441.5 829 c 128,-1,57
 362 591 362 591 362 418 c 0,43,44
EndSplineSet
Substitution2: "<39,1> ????? lookup 11 subtable" Q
Substitution2: "<21,0> Lower Case Numbers lookup 8 subtable" Q
Substitution2: "<21,1> Upper Case Numbers lookup 7 subtable" Q
EndChar

StartChar: R
Encoding: 82 82 55
Width: 1280
Flags: W
LayerCount: 2
Fore
SplineSet
1235 112 m 1,0,-1
 1257 65 l 1,1,2
 1146 -19 1146 -19 1030 -19 c 0,3,4
 913 -19 913 -19 855 51 c 256,5,6
 797 121 797 121 797 275 c 2,7,-1
 798 357 l 2,8,9
 798 496 798 496 774 554 c 128,-1,10
 750 612 750 612 707 632 c 128,-1,11
 664 652 664 652 569 652 c 2,12,-1
 519 652 l 1,13,-1
 399 260 l 2,14,15
 369 162 369 162 369 142 c 0,16,17
 369 89 369 89 412.5 67.5 c 128,-1,18
 456 46 456 46 508 46 c 2,19,-1
 536 46 l 1,20,-1
 522 0 l 1,21,-1
 -27 0 l 1,22,-1
 -13 46 l 1,23,-1
 9 46 l 2,24,25
 71 46 71 46 114 68.5 c 128,-1,26
 157 91 157 91 172.5 120.5 c 128,-1,27
 188 150 188 150 218 250 c 2,28,-1
 480 1113 l 2,29,30
 510 1213 510 1213 510 1239 c 0,31,32
 510 1274 510 1274 480 1292 c 128,-1,33
 450 1310 450 1310 363 1310 c 1,34,-1
 377 1356 l 1,35,-1
 732 1356 l 2,36,37
 880 1356 880 1356 953.5 1348.5 c 128,-1,38
 1027 1341 1027 1341 1104 1299.5 c 128,-1,39
 1181 1258 1181 1258 1222.5 1191 c 128,-1,40
 1264 1124 1264 1124 1264 1041 c 0,41,42
 1264 885 1264 885 1136.5 781 c 128,-1,43
 1009 677 1009 677 731 669 c 1,44,45
 877 616 877 616 934 524 c 128,-1,46
 991 432 991 432 998 268 c 0,47,48
 1003 143 1003 143 1024 100 c 256,49,50
 1045 57 1045 57 1104 57 c 0,51,52
 1155 57 1155 57 1235 112 c 1,0,-1
533 695 m 1,53,-1
 573 695 l 2,54,55
 829 695 829 695 956 793 c 128,-1,56
 1083 891 1083 891 1083 1067 c 0,57,58
 1083 1191 1083 1191 1005.5 1252.5 c 128,-1,59
 928 1314 928 1314 773 1314 c 0,60,61
 749 1314 749 1314 721 1312 c 1,62,-1
 533 695 l 1,53,-1
EndSplineSet
Substitution2: "<39,1> ????? lookup 11 subtable" R
Substitution2: "<21,0> Lower Case Numbers lookup 8 subtable" R
Substitution2: "<21,1> Upper Case Numbers lookup 7 subtable" R
EndChar

StartChar: S
Encoding: 83 83 56
Width: 960
Flags: W
LayerCount: 2
Fore
SplineSet
109 454 m 1,0,-1
 150 454 l 1,1,2
 160 227 160 227 256.5 127.5 c 128,-1,3
 353 28 353 28 479 28 c 0,4,5
 586 28 586 28 664.5 99.5 c 128,-1,6
 743 171 743 171 743 278 c 0,7,8
 743 356 743 356 708 418.5 c 128,-1,9
 673 481 673 481 583 565 c 0,10,11
 438 702 438 702 386.5 786 c 128,-1,12
 335 870 335 870 335 982 c 0,13,14
 335 1138 335 1138 447 1259 c 128,-1,15
 559 1380 559 1380 704 1380 c 0,16,17
 874 1380 874 1380 958 1208 c 1,18,19
 999 1273 999 1273 1020 1356 c 1,20,-1
 1061 1356 l 1,21,-1
 1008 958 l 1,22,-1
 963 958 l 1,23,24
 962 1100 962 1100 924.5 1177.5 c 128,-1,25
 887 1255 887 1255 828.5 1295.5 c 128,-1,26
 770 1336 770 1336 699 1336 c 0,27,28
 594 1336 594 1336 531 1255.5 c 128,-1,29
 468 1175 468 1175 468 1072 c 0,30,31
 468 988 468 988 511 925.5 c 128,-1,32
 554 863 554 863 676 751 c 0,33,34
 818 620 818 620 854 536 c 128,-1,35
 890 452 890 452 890 366 c 0,36,37
 890 196 890 196 767 86 c 128,-1,38
 644 -24 644 -24 491 -24 c 0,39,40
 307 -24 307 -24 177 154 c 1,41,42
 131 93 131 93 110 16 c 1,43,-1
 60 16 l 1,44,-1
 109 454 l 1,0,-1
EndSplineSet
Substitution2: "<39,1> ????? lookup 11 subtable" S
Substitution2: "<21,0> Lower Case Numbers lookup 8 subtable" S
Substitution2: "<21,1> Upper Case Numbers lookup 7 subtable" S
EndChar

StartChar: T
Encoding: 84 84 57
Width: 1344
Flags: W
LayerCount: 2
Fore
SplineSet
1059 1270 m 1,0,-1
 752 260 l 2,1,2
 723 165 723 165 723 141 c 0,3,4
 723 91 723 91 766.5 68.5 c 128,-1,5
 810 46 810 46 864 46 c 2,6,-1
 900 46 l 1,7,-1
 886 0 l 1,8,-1
 305 0 l 1,9,-1
 319 46 l 1,10,-1
 349 46 l 2,11,12
 412 46 412 46 456.5 67.5 c 128,-1,13
 501 89 501 89 519.5 120.5 c 128,-1,14
 538 152 538 152 571 258 c 2,15,-1
 883 1282 l 1,16,17
 717 1297 717 1297 601 1297 c 0,18,19
 475 1297 475 1297 412 1276 c 128,-1,20
 349 1255 349 1255 349 1213 c 0,21,22
 349 1197 349 1197 360 1168 c 0,23,24
 370 1140 370 1140 370 1126 c 0,25,26
 370 1099 370 1099 350.5 1079.5 c 128,-1,27
 331 1060 331 1060 300 1060 c 0,28,29
 261 1060 261 1060 239.5 1090 c 128,-1,30
 218 1120 218 1120 218 1157 c 0,31,32
 218 1237 218 1237 308.5 1296.5 c 128,-1,33
 399 1356 399 1356 627 1356 c 0,34,35
 744 1356 744 1356 1071 1329 c 0,36,37
 1305 1309 1305 1309 1422 1309 c 0,38,39
 1534 1309 1534 1309 1546 1368 c 0,40,41
 1554 1410 1554 1410 1588 1410 c 0,42,43
 1636 1410 1636 1410 1636 1359 c 0,44,45
 1636 1250 1636 1250 1405 1250 c 0,46,47
 1295 1250 1295 1250 1059 1270 c 1,0,-1
EndSplineSet
Substitution2: "<39,1> ????? lookup 11 subtable" T
Substitution2: "<21,0> Lower Case Numbers lookup 8 subtable" T
Substitution2: "<21,1> Upper Case Numbers lookup 7 subtable" T
EndChar

StartChar: U
Encoding: 85 85 58
Width: 1451
Flags: W
LayerCount: 2
Fore
SplineSet
1242 1356 m 1,0,-1
 1674 1356 l 1,1,-1
 1660 1310 l 1,2,3
 1583 1308 1583 1308 1534 1277.5 c 128,-1,4
 1485 1247 1485 1247 1461.5 1197.5 c 128,-1,5
 1438 1148 1438 1148 1401 1025 c 2,6,-1
 1230 462 l 2,7,8
 1184 313 1184 313 1153.5 245.5 c 128,-1,9
 1123 178 1123 178 1058 114 c 128,-1,10
 993 50 993 50 897.5 13 c 128,-1,11
 802 -24 802 -24 686 -24 c 0,12,13
 453 -24 453 -24 336.5 58 c 128,-1,14
 220 140 220 140 220 304 c 0,15,16
 220 362 220 362 270 527 c 2,17,-1
 448 1113 l 2,18,19
 478 1213 478 1213 478 1239 c 0,20,21
 478 1310 478 1310 349 1310 c 2,22,-1
 318 1310 l 1,23,-1
 332 1356 l 1,24,-1
 886 1356 l 1,25,-1
 872 1310 l 1,26,-1
 842 1310 l 2,27,28
 772 1310 772 1310 733.5 1292.5 c 128,-1,29
 695 1275 695 1275 677 1244.5 c 128,-1,30
 659 1214 659 1214 619 1086 c 2,31,-1
 445 511 l 2,32,33
 391 333 391 333 391 274 c 0,34,35
 391 151 391 151 484 88 c 128,-1,36
 577 25 577 25 706 25 c 0,37,38
 827 25 827 25 932.5 81 c 128,-1,39
 1038 137 1038 137 1087 221.5 c 128,-1,40
 1136 306 1136 306 1185 468 c 2,41,-1
 1357 1034 l 2,42,43
 1400 1174 1400 1174 1400 1203 c 0,44,45
 1400 1288 1400 1288 1228 1310 c 1,46,-1
 1242 1356 l 1,0,-1
EndSplineSet
Substitution2: "<39,1> ????? lookup 11 subtable" U
Substitution2: "<21,0> Lower Case Numbers lookup 8 subtable" U
Substitution2: "<21,1> Upper Case Numbers lookup 7 subtable" U
EndChar

StartChar: V
Encoding: 86 86 59
Width: 1216
Flags: W
LayerCount: 2
Fore
SplineSet
482 -33 m 1,0,-1
 402 -33 l 1,1,-1
 470 1138 l 1,2,-1
 474 1203 l 2,3,4
 474 1265 474 1265 440.5 1287.5 c 128,-1,5
 407 1310 407 1310 295 1310 c 1,6,-1
 301 1356 l 1,7,-1
 845 1356 l 1,8,-1
 839 1310 l 1,9,10
 757 1310 757 1310 714 1291.5 c 128,-1,11
 671 1273 671 1273 657 1243.5 c 128,-1,12
 643 1214 643 1214 639 1131 c 2,13,-1
 590 211 l 1,14,-1
 1162 1063 l 2,15,16
 1235 1172 1235 1172 1235 1212 c 0,17,18
 1235 1255 1235 1255 1200.5 1280.5 c 128,-1,19
 1166 1306 1166 1306 1066 1310 c 1,20,-1
 1078 1356 l 1,21,-1
 1519 1356 l 1,22,-1
 1505 1310 l 1,23,24
 1429 1306 1429 1306 1369.5 1255 c 128,-1,25
 1310 1204 1310 1204 1202 1043 c 2,26,-1
 482 -33 l 1,0,-1
EndSplineSet
Substitution2: "<39,1> ????? lookup 11 subtable" V
Substitution2: "<21,0> Lower Case Numbers lookup 8 subtable" V
Substitution2: "<21,1> Upper Case Numbers lookup 7 subtable" V
EndChar

StartChar: W
Encoding: 87 87 60
Width: 1899
Flags: W
LayerCount: 2
Fore
SplineSet
1192 -33 m 1,0,-1
 1129 -33 l 1,1,-1
 1157 1085 l 1,2,-1
 415 -33 l 1,3,-1
 355 -33 l 1,4,-1
 414 1136 l 1,5,-1
 418 1203 l 2,6,7
 418 1263 418 1263 386 1286 c 128,-1,8
 354 1309 354 1309 269 1310 c 1,9,-1
 282 1356 l 1,10,-1
 766 1356 l 1,11,-1
 753 1310 l 1,12,13
 643 1307 643 1307 617.5 1276 c 128,-1,14
 592 1245 592 1245 586 1124 c 2,15,-1
 542 230 l 1,16,-1
 1288 1356 l 1,17,-1
 1332 1356 l 1,18,-1
 1304 230 l 1,19,-1
 1828 1047 l 2,20,21
 1902 1162 1902 1162 1902 1204 c 0,22,23
 1902 1295 1902 1295 1758 1310 c 1,24,-1
 1771 1356 l 1,25,-1
 2180 1356 l 1,26,-1
 2166 1310 l 1,27,28
 2085 1305 2085 1305 2028 1251.5 c 128,-1,29
 1971 1198 1971 1198 1865 1026 c 2,30,-1
 1192 -33 l 1,0,-1
EndSplineSet
Substitution2: "<39,1> ????? lookup 11 subtable" W
Substitution2: "<21,0> Lower Case Numbers lookup 8 subtable" W
Substitution2: "<21,1> Upper Case Numbers lookup 7 subtable" W
EndChar

StartChar: X
Encoding: 88 88 61
Width: 1323
Flags: W
LayerCount: 2
Fore
SplineSet
845 750 m 1,0,-1
 993 232 l 2,1,2
 1021 134 1021 134 1032.5 109.5 c 128,-1,3
 1044 85 1044 85 1079.5 66.5 c 128,-1,4
 1115 48 1115 48 1208 46 c 1,5,-1
 1197 0 l 1,6,-1
 666 0 l 1,7,-1
 679 46 l 1,8,9
 784 46 784 46 810 71.5 c 128,-1,10
 836 97 836 97 836 123 c 0,11,12
 836 145 836 145 811 231 c 2,13,-1
 704 613 l 1,14,-1
 383 296 l 2,15,16
 287 201 287 201 287 140 c 0,17,18
 287 55 287 55 445 46 c 1,19,-1
 431 0 l 1,20,-1
 -46 0 l 1,21,-1
 -32 46 l 1,22,23
 22 51 22 51 95.5 95 c 128,-1,24
 169 139 169 139 342 314 c 2,25,-1
 691 664 l 1,26,-1
 556 1150 l 2,27,28
 529 1247 529 1247 517.5 1268 c 128,-1,29
 506 1289 506 1289 478.5 1299.5 c 128,-1,30
 451 1310 451 1310 369 1310 c 1,31,-1
 376 1356 l 1,32,-1
 868 1356 l 1,33,-1
 863 1310 l 1,34,35
 761 1310 761 1310 737 1284.5 c 128,-1,36
 713 1259 713 1259 713 1236 c 0,37,38
 713 1219 713 1219 739 1127 c 2,39,-1
 830 799 l 1,40,-1
 1119 1086 l 2,41,42
 1212 1178 1212 1178 1212 1227 c 0,43,44
 1212 1301 1212 1301 1076 1310 c 1,45,-1
 1089 1356 l 1,46,-1
 1512 1356 l 1,47,-1
 1499 1310 l 1,48,49
 1435 1307 1435 1307 1382.5 1271 c 128,-1,50
 1330 1235 1330 1235 1176 1082 c 2,51,-1
 845 750 l 1,0,-1
EndSplineSet
Substitution2: "<39,1> ????? lookup 11 subtable" X
Substitution2: "<21,0> Lower Case Numbers lookup 8 subtable" X
Substitution2: "<21,1> Upper Case Numbers lookup 7 subtable" X
EndChar

StartChar: Y
Encoding: 89 89 62
Width: 1131
Flags: W
LayerCount: 2
Fore
SplineSet
239 951 m 1,0,-1
 194 951 l 1,1,2
 271 1151 271 1151 363.5 1265.5 c 128,-1,3
 456 1380 456 1380 539 1380 c 0,4,5
 607 1380 607 1380 654 1295.5 c 128,-1,6
 701 1211 701 1211 701 1062 c 0,7,8
 701 864 701 864 641 597 c 1,9,10
 772 900 772 900 940.5 1140 c 128,-1,11
 1109 1380 1109 1380 1241 1380 c 0,12,13
 1300 1380 1300 1380 1337.5 1347 c 128,-1,14
 1375 1314 1375 1314 1375 1264 c 0,15,16
 1375 1236 1375 1236 1357.5 1211 c 128,-1,17
 1340 1186 1340 1186 1310 1186 c 0,18,19
 1249 1186 1249 1186 1248 1271 c 0,20,21
 1248 1321 1248 1321 1202 1321 c 0,22,23
 1148 1321 1148 1321 1051.5 1213 c 128,-1,24
 955 1105 955 1105 830 885.5 c 128,-1,25
 705 666 705 666 626.5 424 c 128,-1,26
 548 182 548 182 548 142 c 0,27,28
 548 90 548 90 591.5 68 c 128,-1,29
 635 46 635 46 688 46 c 2,30,-1
 747 46 l 1,31,-1
 733 0 l 1,32,-1
 105 0 l 1,33,-1
 119 46 l 1,34,-1
 179 46 l 2,35,36
 292 46 292 46 341 108.5 c 128,-1,37
 390 171 390 171 467.5 507.5 c 128,-1,38
 545 844 545 844 545 1055 c 0,39,40
 545 1174 545 1174 527.5 1233 c 128,-1,41
 510 1292 510 1292 474 1292 c 0,42,43
 425 1292 425 1292 350 1173 c 128,-1,44
 275 1054 275 1054 239 951 c 1,0,-1
EndSplineSet
Substitution2: "<39,1> ????? lookup 11 subtable" Y
Substitution2: "<21,0> Lower Case Numbers lookup 8 subtable" Y
Substitution2: "<21,1> Upper Case Numbers lookup 7 subtable" Y
EndChar

StartChar: Z
Encoding: 90 90 63
Width: 1216
Flags: W
LayerCount: 2
Fore
SplineSet
1228 -138 m 1,0,-1
 1272 -138 l 1,1,2
 1246 -300 1246 -300 1164.5 -389 c 128,-1,3
 1083 -478 1083 -478 964 -478 c 0,4,5
 856 -478 856 -478 782 -405.5 c 128,-1,6
 708 -333 708 -333 628 -177 c 0,7,8
 519 33 519 33 448 86 c 0,9,10
 376 139 376 139 312 139 c 0,11,12
 163 139 163 139 117 15 c 0,13,14
 92 -52 92 -52 53 -52 c 0,15,16
 16 -52 16 -52 16 -12 c 0,17,18
 16 34 16 34 126 164 c 128,-1,19
 236 294 236 294 489 497 c 0,20,21
 877 807 877 807 1021 939 c 128,-1,22
 1165 1071 1165 1071 1241 1166 c 1,23,24
 1170 1144 1170 1144 1095 1144 c 0,25,26
 1007 1144 1007 1144 884 1169 c 0,27,28
 745 1198 745 1198 678 1198 c 0,29,30
 507 1198 507 1198 457 1066 c 1,31,-1
 408 1066 l 1,32,33
 466 1216 466 1216 566.5 1298 c 128,-1,34
 667 1380 667 1380 769 1380 c 0,35,36
 868 1380 868 1380 1025 1278 c 0,37,38
 1140 1203 1140 1203 1190 1203 c 0,39,40
 1268 1203 1268 1203 1301 1308 c 0,41,42
 1324 1380 1324 1380 1360 1380 c 0,43,44
 1399 1380 1399 1380 1399 1336 c 0,45,46
 1399 1314 1399 1314 1375.5 1266.5 c 128,-1,47
 1352 1219 1352 1219 1251 1100 c 128,-1,48
 1150 981 1150 981 1035 878.5 c 128,-1,49
 920 776 920 776 599 521 c 0,50,51
 267 256 267 256 178 151 c 1,52,53
 264 194 264 194 354 194 c 0,54,55
 430 194 430 194 501 159.5 c 128,-1,56
 572 125 572 125 625 69 c 128,-1,57
 678 13 678 13 768 -112 c 0,58,59
 907 -303 907 -303 1049 -303 c 0,60,61
 1195 -303 1195 -303 1228 -138 c 1,0,-1
EndSplineSet
Substitution2: "<39,1> ????? lookup 11 subtable" Z
Substitution2: "<21,0> Lower Case Numbers lookup 8 subtable" Z
Substitution2: "<21,1> Upper Case Numbers lookup 7 subtable" Z
EndChar

StartChar: bracketleft
Encoding: 91 91 64
Width: 683
Flags: W
LayerCount: 2
Fore
SplineSet
449 -351 m 1,0,-1
 437 -391 l 1,1,-1
 45 -391 l 1,2,-1
 538 1356 l 1,3,-1
 936 1356 l 1,4,-1
 924 1316 l 1,5,-1
 597 1316 l 1,6,-1
 125 -351 l 1,7,-1
 449 -351 l 1,0,-1
EndSplineSet
Substitution2: "<39,1> ????? lookup 11 subtable" bracketleft
Substitution2: "<21,0> Lower Case Numbers lookup 8 subtable" bracketleft
Substitution2: "<21,1> Upper Case Numbers lookup 7 subtable" bracketleft
EndChar

StartChar: backslash
Encoding: 92 92 65
Width: 1067
Flags: W
LayerCount: 2
Fore
SplineSet
542 1343 m 1,0,-1
 804 -33 l 1,1,-1
 698 -33 l 1,2,-1
 436 1343 l 1,3,-1
 542 1343 l 1,0,-1
EndSplineSet
Substitution2: "<39,1> ????? lookup 11 subtable" backslash
Substitution2: "<21,0> Lower Case Numbers lookup 8 subtable" backslash
Substitution2: "<21,1> Upper Case Numbers lookup 7 subtable" backslash
EndChar

StartChar: bracketright
Encoding: 93 93 66
Width: 683
Flags: W
LayerCount: 2
Fore
SplineSet
259 1316 m 1,0,-1
 271 1356 l 1,1,-1
 663 1356 l 1,2,-1
 170 -391 l 1,3,-1
 -228 -391 l 1,4,-1
 -216 -351 l 1,5,-1
 111 -351 l 1,6,-1
 582 1316 l 1,7,-1
 259 1316 l 1,0,-1
EndSplineSet
Substitution2: "<39,1> ????? lookup 11 subtable" bracketright
Substitution2: "<21,0> Lower Case Numbers lookup 8 subtable" bracketright
Substitution2: "<21,1> Upper Case Numbers lookup 7 subtable" bracketright
EndChar

StartChar: asciicircum
Encoding: 94 94 67
Width: 875
Flags: W
LayerCount: 2
Fore
SplineSet
551 1375 m 1,0,-1
 976 658 l 1,1,-1
 830 658 l 1,2,-1
 522 1178 l 1,3,-1
 215 658 l 1,4,-1
 66 658 l 1,5,-1
 497 1375 l 1,6,-1
 551 1375 l 1,0,-1
EndSplineSet
Substitution2: "<39,1> ????? lookup 11 subtable" asciicircum
Substitution2: "<21,0> Lower Case Numbers lookup 8 subtable" asciicircum
Substitution2: "<21,1> Upper Case Numbers lookup 7 subtable" asciicircum
EndChar

StartChar: underscore
Encoding: 95 95 68
Width: 1024
Flags: W
LayerCount: 2
Fore
SplineSet
-158 -154 m 1,0,-1
 890 -154 l 1,1,-1
 890 -256 l 1,2,-1
 -158 -256 l 1,3,-1
 -158 -154 l 1,0,-1
EndSplineSet
Substitution2: "<39,1> ????? lookup 11 subtable" underscore
Substitution2: "<21,0> Lower Case Numbers lookup 8 subtable" underscore
Substitution2: "<21,1> Upper Case Numbers lookup 7 subtable" underscore
EndChar

StartChar: grave
Encoding: 96 96 69
Width: 683
Flags: W
LayerCount: 2
Fore
SplineSet
583 910 m 1,0,-1
 359 1101 l 2,1,2
 279 1170 279 1170 279 1208 c 0,3,4
 279 1234 279 1234 298.5 1250.5 c 128,-1,5
 318 1267 318 1267 340 1267 c 0,6,7
 360 1267 360 1267 384 1252 c 128,-1,8
 408 1237 408 1237 461 1153 c 2,9,-1
 603 928 l 1,10,-1
 583 910 l 1,0,-1
EndSplineSet
Substitution2: "<39,1> ????? lookup 11 subtable" grave
Substitution2: "<21,0> Lower Case Numbers lookup 8 subtable" grave
Substitution2: "<21,1> Upper Case Numbers lookup 7 subtable" grave
EndChar

StartChar: a
Encoding: 97 97 70
Width: 853
Flags: W
LayerCount: 2
Fore
SplineSet
695 832 m 1,0,-1
 815 832 l 1,1,-1
 637 246 l 2,2,3
 598 119 598 119 598 92 c 0,4,5
 598 72 598 72 607 61.5 c 128,-1,6
 616 51 616 51 634 51 c 0,7,8
 703 51 703 51 793 209 c 1,9,-1
 835 209 l 1,10,11
 796 119 796 119 723.5 45.5 c 128,-1,12
 651 -28 651 -28 590 -28 c 0,13,14
 543 -28 543 -28 518 7 c 128,-1,15
 493 42 493 42 493 93 c 0,16,17
 493 134 493 134 513 200 c 1,18,19
 468 123 468 123 382.5 47.5 c 128,-1,20
 297 -28 297 -28 222 -28 c 0,21,22
 152 -28 152 -28 101.5 31.5 c 128,-1,23
 51 91 51 91 51 192 c 0,24,25
 51 328 51 328 129 483.5 c 128,-1,26
 207 639 207 639 332.5 743 c 128,-1,27
 458 847 458 847 547 847 c 0,28,29
 599 847 599 847 629.5 822 c 128,-1,30
 660 797 660 797 670 747 c 1,31,-1
 695 832 l 1,0,-1
172 162 m 0,32,33
 172 96 172 96 192 62.5 c 128,-1,34
 212 29 212 29 252 29 c 0,35,36
 318 29 318 29 410.5 126 c 128,-1,37
 503 223 503 223 571 423 c 128,-1,38
 639 623 639 623 639 695 c 0,39,40
 639 737 639 737 617.5 766.5 c 128,-1,41
 596 796 596 796 556 796 c 0,42,43
 434 796 434 796 303 555 c 128,-1,44
 172 314 172 314 172 162 c 0,32,33
EndSplineSet
Substitution2: "<39,1> ????? lookup 11 subtable" a
Substitution2: "<21,0> Lower Case Numbers lookup 8 subtable" a
Substitution2: "<21,1> Upper Case Numbers lookup 7 subtable" a
EndChar

StartChar: b
Encoding: 98 98 71
Width: 853
Flags: W
LayerCount: 2
Fore
SplineSet
340 650 m 1,0,1
 472 847 472 847 597 847 c 0,2,3
 685 847 685 847 731.5 775 c 128,-1,4
 778 703 778 703 778 614 c 0,5,6
 778 495 778 495 713.5 338.5 c 128,-1,7
 649 182 649 182 517 77 c 128,-1,8
 385 -28 385 -28 271 -28 c 0,9,10
 192 -28 192 -28 138.5 20.5 c 128,-1,11
 85 69 85 69 85 151 c 0,12,13
 85 204 85 204 128 346 c 2,14,-1
 371 1147 l 2,15,16
 399 1238 399 1238 399 1254 c 0,17,18
 399 1277 399 1277 386 1287 c 128,-1,19
 373 1297 373 1297 320 1297 c 2,20,-1
 288 1297 l 1,21,-1
 300 1339 l 1,22,23
 459 1343 459 1343 535 1375 c 1,24,-1
 560 1375 l 1,25,-1
 340 650 l 1,0,1
191 110 m 0,26,27
 191 64 191 64 212.5 40.5 c 128,-1,28
 234 17 234 17 276 17 c 0,29,30
 420 17 420 17 542 263 c 128,-1,31
 664 509 664 509 664 661 c 0,32,33
 664 721 664 721 640.5 757 c 128,-1,34
 617 793 617 793 577 793 c 0,35,36
 512 793 512 793 426.5 700.5 c 128,-1,37
 341 608 341 608 266 394 c 128,-1,38
 191 180 191 180 191 110 c 0,26,27
EndSplineSet
Substitution2: "<39,1> ????? lookup 11 subtable" b
Substitution2: "<21,0> Lower Case Numbers lookup 8 subtable" b
Substitution2: "<21,1> Upper Case Numbers lookup 7 subtable" b
EndChar

StartChar: c
Encoding: 99 99 72
Width: 661
Flags: W
LayerCount: 2
Fore
SplineSet
516 284 m 1,0,-1
 556 284 l 1,1,2
 507 141 507 141 419 56.5 c 128,-1,3
 331 -28 331 -28 236 -28 c 0,4,5
 156 -28 156 -28 106.5 32.5 c 128,-1,6
 57 93 57 93 57 203 c 0,7,8
 57 332 57 332 123.5 484.5 c 128,-1,9
 190 637 190 637 310.5 742 c 128,-1,10
 431 847 431 847 523 847 c 0,11,12
 576 847 576 847 613 813 c 128,-1,13
 650 779 650 779 650 731 c 0,14,15
 650 660 650 660 593 660 c 0,16,17
 535 660 535 660 532 739 c 0,18,19
 530 798 530 798 487 798 c 0,20,21
 431 798 431 798 357 694.5 c 128,-1,22
 283 591 283 591 230 418.5 c 128,-1,23
 177 246 177 246 177 156 c 0,24,25
 177 99 177 99 206 65 c 128,-1,26
 235 31 235 31 276 31 c 0,27,28
 335 31 335 31 404.5 99.5 c 128,-1,29
 474 168 474 168 516 284 c 1,0,-1
EndSplineSet
Substitution2: "<39,1> ????? lookup 11 subtable" c
Substitution2: "<21,0> Lower Case Numbers lookup 8 subtable" c
Substitution2: "<21,1> Upper Case Numbers lookup 7 subtable" c
EndChar

StartChar: d
Encoding: 100 100 73
Width: 853
Flags: W
LayerCount: 2
Fore
SplineSet
767 182 m 1,0,-1
 816 182 l 1,1,2
 771 100 771 100 702.5 36 c 128,-1,3
 634 -28 634 -28 577 -28 c 0,4,5
 524 -28 524 -28 497 4 c 128,-1,6
 470 36 470 36 470 99 c 0,7,8
 470 128 470 128 475 152 c 1,9,10
 333 -28 333 -28 212 -28 c 0,11,12
 144 -28 144 -28 96 27 c 128,-1,13
 48 82 48 82 48 186 c 0,14,15
 48 331 48 331 128 497.5 c 128,-1,16
 208 664 208 664 326 755.5 c 128,-1,17
 444 847 444 847 531 847 c 0,18,19
 576 847 576 847 607.5 826 c 128,-1,20
 639 805 639 805 658 763 c 1,21,-1
 780 1166 l 2,22,23
 802 1238 802 1238 802 1253 c 0,24,25
 802 1277 802 1277 788.5 1287 c 128,-1,26
 775 1297 775 1297 722 1297 c 2,27,-1
 694 1297 l 1,28,-1
 707 1339 l 1,29,30
 852 1339 852 1339 938 1375 c 1,31,-1
 963 1375 l 1,32,-1
 643 322 l 2,33,34
 584 127 584 127 584 92 c 0,35,36
 584 67 584 67 593.5 54.5 c 128,-1,37
 603 42 603 42 621 42 c 0,38,39
 651 42 651 42 687.5 77 c 128,-1,40
 724 112 724 112 767 182 c 1,0,-1
163 140 m 0,41,42
 163 84 163 84 182.5 55.5 c 128,-1,43
 202 27 202 27 240 27 c 0,44,45
 307 27 307 27 395 120.5 c 128,-1,46
 483 214 483 214 557 428.5 c 128,-1,47
 631 643 631 643 631 700 c 0,48,49
 631 737 631 737 606 767 c 128,-1,50
 581 797 581 797 540 797 c 0,51,52
 475 797 475 797 403.5 720.5 c 128,-1,53
 332 644 332 644 247.5 455.5 c 128,-1,54
 163 267 163 267 163 140 c 0,41,42
EndSplineSet
Substitution2: "<39,1> ????? lookup 11 subtable" d
Substitution2: "<21,0> Lower Case Numbers lookup 8 subtable" d
Substitution2: "<21,1> Upper Case Numbers lookup 7 subtable" d
EndChar

StartChar: e
Encoding: 101 101 74
Width: 619
Flags: W
LayerCount: 2
Fore
SplineSet
504 255 m 1,0,-1
 552 255 l 1,1,2
 425 -28 425 -28 226 -28 c 0,3,4
 144 -28 144 -28 92.5 29.5 c 128,-1,5
 41 87 41 87 41 185 c 0,6,7
 41 309 41 309 107.5 465 c 128,-1,8
 174 621 174 621 296.5 734 c 128,-1,9
 419 847 419 847 510 847 c 0,10,11
 566 847 566 847 595 811.5 c 128,-1,12
 624 776 624 776 624 723 c 0,13,14
 624 615 624 615 516 515.5 c 128,-1,15
 408 416 408 416 192 324 c 1,16,17
 164 237 164 237 164 159 c 0,18,19
 164 95 164 95 189 63 c 128,-1,20
 214 31 214 31 263 31 c 0,21,22
 400 31 400 31 504 255 c 1,0,-1
207 375 m 1,23,24
 336 433 336 433 439 535 c 128,-1,25
 542 637 542 637 542 720 c 0,26,27
 542 758 542 758 526.5 776.5 c 128,-1,28
 511 795 511 795 480 795 c 0,29,30
 420 795 420 795 338.5 678.5 c 128,-1,31
 257 562 257 562 207 375 c 1,23,24
EndSplineSet
Substitution2: "<39,1> ????? lookup 11 subtable" e
Substitution2: "<21,0> Lower Case Numbers lookup 8 subtable" e
Substitution2: "<21,1> Upper Case Numbers lookup 7 subtable" e
EndChar

StartChar: f
Encoding: 102 102 75
Width: 512
Flags: W
LayerCount: 2
Fore
SplineSet
611 819 m 1,0,-1
 598 775 l 1,1,-1
 423 775 l 1,2,-1
 268 190 l 2,3,4
 162 -207 162 -207 36 -343 c 128,-1,5
 -90 -479 -90 -479 -241 -479 c 0,6,7
 -325 -479 -325 -479 -392.5 -440 c 128,-1,8
 -460 -401 -460 -401 -460 -343 c 0,9,10
 -460 -310 -460 -310 -439 -289 c 128,-1,11
 -418 -268 -418 -268 -390 -268 c 0,12,13
 -357 -268 -357 -268 -337 -291.5 c 128,-1,14
 -317 -315 -317 -315 -317 -342 c 0,15,16
 -317 -349 -317 -349 -320 -367 c 2,17,-1
 -322 -384 l 2,18,19
 -322 -403 -322 -403 -298 -419 c 256,20,21
 -274 -435 -274 -435 -240 -435 c 0,22,23
 -120 -435 -120 -435 -38 -307 c 128,-1,24
 44 -179 44 -179 148 206 c 2,25,-1
 301 775 l 1,26,-1
 104 775 l 1,27,-1
 117 819 l 1,28,-1
 315 819 l 1,29,30
 318 831 318 831 331 877 c 0,31,32
 466 1375 466 1375 768 1375 c 0,33,34
 854 1375 854 1375 899.5 1337 c 128,-1,35
 945 1299 945 1299 945 1262 c 0,36,37
 945 1209 945 1209 895 1209 c 0,38,39
 855 1209 855 1209 810 1278 c 0,40,41
 778 1328 778 1328 733 1328 c 0,42,43
 665 1328 665 1328 603 1265.5 c 128,-1,44
 541 1203 541 1203 466 926 c 2,45,-1
 437 819 l 1,46,-1
 611 819 l 1,0,-1
EndSplineSet
Substitution2: "<39,1> ????? lookup 11 subtable" f
Substitution2: "<21,0> Lower Case Numbers lookup 8 subtable" f
Substitution2: "<21,1> Upper Case Numbers lookup 7 subtable" f
EndChar

StartChar: g
Encoding: 103 103 76
Width: 725
Flags: W
LayerCount: 2
Fore
SplineSet
244 240 m 1,0,1
 179 276 179 276 146.5 333.5 c 128,-1,2
 114 391 114 391 114 471 c 0,3,4
 114 617 114 617 218 731.5 c 128,-1,5
 322 846 322 846 453 846 c 0,6,7
 494 846 494 846 529.5 833 c 128,-1,8
 565 820 565 820 594 793 c 1,9,10
 661 848 661 848 705 848 c 0,11,12
 741 848 741 848 764 827.5 c 128,-1,13
 787 807 787 807 787 776 c 0,14,15
 787 728 787 728 741 728 c 0,16,17
 715 728 715 728 690 762 c 0,18,19
 674 784 674 784 658 784 c 0,20,21
 641 784 641 784 623 759 c 1,22,23
 663 693 663 693 663 602 c 0,24,25
 663 429 663 429 562 329 c 0,26,27
 460 229 460 229 314 210 c 0,28,29
 97 182 97 182 97 94 c 0,30,31
 97 66 97 66 122 48 c 256,32,33
 147 30 147 30 227 13 c 0,34,35
 366 -18 366 -18 454 -43 c 128,-1,36
 542 -68 542 -68 584.5 -116.5 c 128,-1,37
 627 -165 627 -165 627 -231 c 0,38,39
 627 -333 627 -333 523 -410 c 128,-1,40
 419 -487 419 -487 227 -487 c 0,41,42
 46 -487 46 -487 -55 -428 c 128,-1,43
 -156 -369 -156 -369 -156 -281 c 0,44,45
 -156 -216 -156 -216 -107 -171.5 c 128,-1,46
 -58 -127 -58 -127 -23 -127 c 256,47,48
 12 -127 12 -127 12 -153 c 0,49,50
 12 -167 12 -167 -12 -192 c 0,51,52
 -53 -236 -53 -236 -53 -278 c 0,53,54
 -53 -343 -53 -343 13 -393 c 128,-1,55
 79 -443 79 -443 215 -443 c 0,56,57
 361 -443 361 -443 436.5 -393 c 128,-1,58
 512 -343 512 -343 512 -276 c 0,59,60
 512 -223 512 -223 459 -190 c 256,61,62
 406 -157 406 -157 229 -116 c 0,63,64
 75 -80 75 -80 38 -41 c 0,65,66
 0 -3 0 -3 0 42 c 0,67,68
 0 105 0 105 64 161.5 c 128,-1,69
 128 218 128 218 244 240 c 1,0,1
223 381 m 0,70,71
 223 325 223 325 254.5 291 c 128,-1,72
 286 257 286 257 333 257 c 0,73,74
 388 257 388 257 431.5 301 c 128,-1,75
 475 345 475 345 516.5 464 c 128,-1,76
 558 583 558 583 558 667 c 0,77,78
 558 736 558 736 533.5 770.5 c 128,-1,79
 509 805 509 805 460 805 c 0,80,81
 372 805 372 805 297.5 659.5 c 128,-1,82
 223 514 223 514 223 381 c 0,70,71
EndSplineSet
Substitution2: "<39,1> ????? lookup 11 subtable" g
Substitution2: "<21,0> Lower Case Numbers lookup 8 subtable" g
Substitution2: "<21,1> Upper Case Numbers lookup 7 subtable" g
EndChar

StartChar: h
Encoding: 104 104 77
Width: 853
Flags: W
LayerCount: 2
Fore
SplineSet
121 -15 m 1,0,-1
 2 -15 l 1,1,-1
 353 1140 l 2,2,3
 383 1238 383 1238 383 1254 c 0,4,5
 383 1277 383 1277 369.5 1287 c 128,-1,6
 356 1297 356 1297 303 1297 c 2,7,-1
 271 1297 l 1,8,-1
 283 1339 l 1,9,10
 442 1343 442 1343 519 1375 c 1,11,-1
 544 1375 l 1,12,-1
 317 629 l 1,13,14
 497 847 497 847 645 847 c 0,15,16
 712 847 712 847 745 819 c 128,-1,17
 778 791 778 791 778 734 c 0,18,19
 778 689 778 689 719 520 c 2,20,-1
 631 269 l 2,21,22
 580 122 580 122 580 99 c 0,23,24
 580 74 580 74 590 61 c 128,-1,25
 600 48 600 48 620 48 c 0,26,27
 656 48 656 48 701 91 c 128,-1,28
 746 134 746 134 778 198 c 1,29,-1
 827 198 l 1,30,31
 776 96 776 96 706 34 c 128,-1,32
 636 -28 636 -28 573 -28 c 0,33,34
 527 -28 527 -28 494 6 c 128,-1,35
 461 40 461 40 461 96 c 0,36,37
 461 156 461 156 517 309 c 2,38,-1
 602 540 l 2,39,40
 661 699 661 699 661 740 c 0,41,42
 661 765 661 765 647.5 777.5 c 128,-1,43
 634 790 634 790 606 790 c 0,44,45
 561 790 561 790 500 753.5 c 128,-1,46
 439 717 439 717 373 631.5 c 128,-1,47
 307 546 307 546 276.5 471 c 128,-1,48
 246 396 246 396 197 232 c 2,49,-1
 121 -15 l 1,0,-1
EndSplineSet
Substitution2: "<39,1> ????? lookup 11 subtable" h
Substitution2: "<21,0> Lower Case Numbers lookup 8 subtable" h
Substitution2: "<21,1> Upper Case Numbers lookup 7 subtable" h
EndChar

StartChar: i
Encoding: 105 105 78
Width: 491
Flags: W
LayerCount: 2
Fore
SplineSet
353 1288 m 0,0,1
 353 1324 353 1324 378.5 1349.5 c 128,-1,2
 404 1375 404 1375 440 1375 c 256,3,4
 476 1375 476 1375 501.5 1349.5 c 128,-1,5
 527 1324 527 1324 527 1288 c 256,6,7
 527 1252 527 1252 501.5 1226 c 128,-1,8
 476 1200 476 1200 440 1200 c 0,9,10
 403 1200 403 1200 378 1226.5 c 128,-1,11
 353 1253 353 1253 353 1288 c 0,0,1
427 219 m 1,12,-1
 475 219 l 1,13,14
 428 122 428 122 352.5 47 c 128,-1,15
 277 -28 277 -28 207 -28 c 0,16,17
 160 -28 160 -28 124.5 5.5 c 128,-1,18
 89 39 89 39 89 104 c 0,19,20
 89 157 89 157 145 307 c 2,21,-1
 260 612 l 2,22,23
 300 719 300 719 300 742 c 0,24,25
 300 762 300 762 290.5 772 c 128,-1,26
 281 782 281 782 262 782 c 0,27,28
 223 782 223 782 169.5 721.5 c 128,-1,29
 116 661 116 661 94 612 c 1,30,-1
 46 612 l 1,31,32
 101 721 101 721 171.5 784 c 128,-1,33
 242 847 242 847 303 847 c 0,34,35
 350 847 350 847 380 815 c 128,-1,36
 410 783 410 783 410 731 c 0,37,38
 410 678 410 678 357 537 c 2,39,-1
 261 277 l 2,40,41
 208 136 208 136 208 100 c 0,42,43
 208 71 208 71 219.5 56.5 c 128,-1,44
 231 42 231 42 253 42 c 0,45,46
 327 42 327 42 427 219 c 1,12,-1
EndSplineSet
Substitution2: "<39,1> ????? lookup 11 subtable" i
Substitution2: "<21,0> Lower Case Numbers lookup 8 subtable" i
Substitution2: "<21,1> Upper Case Numbers lookup 7 subtable" i
EndChar

StartChar: j
Encoding: 106 106 79
Width: 427
Flags: W
LayerCount: 2
Fore
SplineSet
327 1288 m 0,0,1
 327 1323 327 1323 352 1349 c 128,-1,2
 377 1375 377 1375 415 1375 c 0,3,4
 451 1375 451 1375 476.5 1349.5 c 128,-1,5
 502 1324 502 1324 502 1288 c 0,6,7
 502 1251 502 1251 476.5 1225.5 c 128,-1,8
 451 1200 451 1200 415 1200 c 256,9,10
 379 1200 379 1200 353 1226 c 128,-1,11
 327 1252 327 1252 327 1288 c 0,0,1
74 581 m 1,12,-1
 27 581 l 1,13,14
 65 691 65 691 132.5 769 c 128,-1,15
 200 847 200 847 265 847 c 0,16,17
 309 847 309 847 341 810.5 c 128,-1,18
 373 774 373 774 373 715 c 0,19,20
 373 655 373 655 317 445 c 2,21,-1
 209 44 l 2,22,23
 116 -299 116 -299 5 -393.5 c 128,-1,24
 -106 -488 -106 -488 -223 -488 c 0,25,26
 -311 -488 -311 -488 -371 -444.5 c 128,-1,27
 -431 -401 -431 -401 -431 -345 c 0,28,29
 -431 -318 -431 -318 -414 -299.5 c 128,-1,30
 -397 -281 -397 -281 -371 -281 c 0,31,32
 -343 -281 -343 -281 -328 -298 c 128,-1,33
 -313 -315 -313 -315 -299 -365 c 0,34,35
 -277 -442 -277 -442 -211 -442 c 0,36,37
 -151 -442 -151 -442 -97 -396.5 c 128,-1,38
 -43 -351 -43 -351 -7 -254 c 128,-1,39
 29 -157 29 -157 90 62 c 2,40,-1
 207 483 l 2,41,42
 269 707 269 707 269 737 c 0,43,44
 269 760 269 760 261 771 c 128,-1,45
 253 782 253 782 236 782 c 0,46,47
 205 782 205 782 159.5 732 c 128,-1,48
 114 682 114 682 74 581 c 1,12,-1
EndSplineSet
Substitution2: "<39,1> ????? lookup 11 subtable" j
Substitution2: "<21,0> Lower Case Numbers lookup 8 subtable" j
Substitution2: "<21,1> Upper Case Numbers lookup 7 subtable" j
EndChar

StartChar: k
Encoding: 107 107 80
Width: 789
Flags: W
LayerCount: 2
Fore
SplineSet
734 228 m 1,0,-1
 776 228 l 1,1,2
 743 91 743 91 681 31.5 c 128,-1,3
 619 -28 619 -28 554 -28 c 0,4,5
 426 -28 426 -28 426 135 c 0,6,7
 426 156 426 156 433 234 c 0,8,9
 443 360 443 360 443 377 c 0,10,11
 443 473 443 473 367 473 c 0,12,13
 330 473 330 473 295.5 448 c 128,-1,14
 261 423 261 423 245.5 386 c 128,-1,15
 230 349 230 349 197 242 c 2,16,-1
 119 -15 l 1,17,-1
 0 -15 l 1,18,-1
 354 1149 l 2,19,20
 381 1238 381 1238 381 1253 c 0,21,22
 381 1277 381 1277 368 1287 c 128,-1,23
 355 1297 355 1297 302 1297 c 2,24,-1
 266 1297 l 1,25,-1
 279 1339 l 1,26,27
 441 1342 441 1342 517 1376 c 1,28,-1
 542 1376 l 1,29,-1
 268 474 l 1,30,31
 503 731 503 731 590.5 789 c 128,-1,32
 678 847 678 847 741 847 c 0,33,34
 830 847 830 847 830 782 c 0,35,36
 830 757 830 757 812.5 740 c 128,-1,37
 795 723 795 723 772 723 c 0,38,39
 752 723 752 723 718 744 c 0,40,41
 696 758 696 758 672 758 c 0,42,43
 576 758 576 758 355 504 c 1,44,45
 374 509 374 509 385 509 c 0,46,47
 544 509 544 509 557 185 c 0,48,49
 561 99 561 99 571.5 76 c 128,-1,50
 582 53 582 53 610 53 c 0,51,52
 645 53 645 53 681 104.5 c 128,-1,53
 717 156 717 156 734 228 c 1,0,-1
EndSplineSet
Substitution2: "<39,1> ????? lookup 11 subtable" k
Substitution2: "<21,0> Lower Case Numbers lookup 8 subtable" k
Substitution2: "<21,1> Upper Case Numbers lookup 7 subtable" k
EndChar

StartChar: l
Encoding: 108 108 81
Width: 491
Flags: W
LayerCount: 2
Fore
SplineSet
429 240 m 1,0,-1
 473 240 l 1,1,2
 371 -28 371 -28 211 -28 c 0,3,4
 156 -28 156 -28 123 8.5 c 128,-1,5
 90 45 90 45 90 100 c 0,6,7
 90 154 90 154 155 367 c 2,8,-1
 389 1139 l 2,9,10
 419 1237 419 1237 419 1253 c 0,11,12
 419 1277 419 1277 405.5 1287 c 128,-1,13
 392 1297 392 1297 338 1297 c 2,14,-1
 299 1297 l 1,15,-1
 312 1339 l 1,16,17
 477 1342 477 1342 555 1375 c 1,18,-1
 580 1375 l 1,19,-1
 258 315 l 2,20,21
 251 290 251 290 229 224 c 0,22,23
 200 137 200 137 200 92 c 0,24,25
 200 62 200 62 211.5 47 c 128,-1,26
 223 32 223 32 246 32 c 0,27,28
 280 32 280 32 331 79 c 128,-1,29
 382 126 382 126 429 240 c 1,0,-1
EndSplineSet
Substitution2: "<39,1> ????? lookup 11 subtable" l
Substitution2: "<21,0> Lower Case Numbers lookup 8 subtable" l
Substitution2: "<21,1> Upper Case Numbers lookup 7 subtable" l
EndChar

StartChar: m
Encoding: 109 109 82
Width: 1301
Flags: W
LayerCount: 2
Fore
SplineSet
1226 189 m 1,0,-1
 1269 189 l 1,1,2
 1226 96 1226 96 1157.5 34 c 128,-1,3
 1089 -28 1089 -28 1024 -28 c 0,4,5
 981 -28 981 -28 947.5 3 c 128,-1,6
 914 34 914 34 914 91 c 0,7,8
 914 142 914 142 963 285 c 2,9,-1
 1057 557 l 2,10,11
 1099 679 1099 679 1099 710 c 0,12,13
 1099 743 1099 743 1085.5 759.5 c 128,-1,14
 1072 776 1072 776 1045 776 c 0,15,16
 959 776 959 776 842.5 633 c 128,-1,17
 726 490 726 490 600 73 c 2,18,-1
 573 -14 l 1,19,-1
 454 -14 l 1,20,-1
 617 522 l 2,21,22
 659 662 659 662 659 711 c 0,23,24
 659 741 659 741 647.5 756 c 128,-1,25
 636 771 636 771 612 771 c 0,26,27
 542 771 542 771 423 623.5 c 128,-1,28
 304 476 304 476 186 84 c 2,29,-1
 156 -14 l 1,30,-1
 36 -14 l 1,31,-1
 219 586 l 2,32,33
 256 709 256 709 256 731 c 0,34,35
 256 747 256 747 250.5 755 c 128,-1,36
 245 763 245 763 233 763 c 0,37,38
 207 763 207 763 163.5 721 c 128,-1,39
 120 679 120 679 77 601 c 1,40,-1
 32 601 l 1,41,42
 80 702 80 702 150 767.5 c 128,-1,43
 220 833 220 833 274 833 c 0,44,45
 313 833 313 833 335.5 807 c 128,-1,46
 358 781 358 781 358 737 c 0,47,48
 358 664 358 664 297 490 c 1,49,50
 364 631 364 631 464 733 c 128,-1,51
 564 835 564 835 645 835 c 0,52,53
 703 835 703 835 731.5 801.5 c 128,-1,54
 760 768 760 768 760 701 c 0,55,56
 760 619 760 619 719 503 c 1,57,58
 804 677 804 677 899 756 c 128,-1,59
 994 835 994 835 1071 835 c 0,60,61
 1129 835 1129 835 1168 796.5 c 128,-1,62
 1207 758 1207 758 1207 692 c 0,63,64
 1207 651 1207 651 1200.5 624.5 c 128,-1,65
 1194 598 1194 598 1152 472 c 2,66,-1
 1074 247 l 2,67,68
 1026 110 1026 110 1026 78 c 0,69,70
 1026 56 1026 56 1035.5 44.5 c 128,-1,71
 1045 33 1045 33 1063 33 c 0,72,73
 1098 33 1098 33 1139 72 c 128,-1,74
 1180 111 1180 111 1226 189 c 1,0,-1
EndSplineSet
Substitution2: "<39,1> ????? lookup 11 subtable" m
Substitution2: "<21,0> Lower Case Numbers lookup 8 subtable" m
Substitution2: "<21,1> Upper Case Numbers lookup 7 subtable" m
EndChar

StartChar: n
Encoding: 110 110 83
Width: 875
Flags: W
LayerCount: 2
Fore
SplineSet
788 188 m 1,0,-1
 839 188 l 1,1,2
 779 80 779 80 716.5 26 c 128,-1,3
 654 -28 654 -28 589 -28 c 0,4,5
 544 -28 544 -28 511.5 -0.5 c 128,-1,6
 479 27 479 27 479 81 c 0,7,8
 479 126 479 126 525 259 c 2,9,-1
 632 564 l 2,10,11
 675 689 675 689 675 726 c 0,12,13
 675 759 675 759 660.5 775 c 128,-1,14
 646 791 646 791 616 791 c 0,15,16
 540 791 540 791 417.5 612.5 c 128,-1,17
 295 434 295 434 207 145 c 2,18,-1
 158 -15 l 1,19,-1
 36 -15 l 1,20,-1
 212 553 l 2,21,22
 260 710 260 710 260 733 c 0,23,24
 260 750 260 750 254 758 c 128,-1,25
 248 766 248 766 235 766 c 0,26,27
 176 766 176 766 95 620 c 1,28,-1
 49 620 l 1,29,30
 174 847 174 847 286 847 c 0,31,32
 325 847 325 847 344.5 823.5 c 128,-1,33
 364 800 364 800 364 752 c 0,34,35
 364 666 364 666 297 486 c 1,36,37
 478 847 478 847 649 847 c 0,38,39
 704 847 704 847 745 810.5 c 128,-1,40
 786 774 786 774 786 704 c 0,41,42
 786 659 786 659 745 536 c 2,43,-1
 638 217 l 2,44,45
 595 88 595 88 595 73 c 0,46,47
 595 54 595 54 604.5 44.5 c 128,-1,48
 614 35 614 35 632 35 c 0,49,50
 666 35 666 35 705 73.5 c 128,-1,51
 744 112 744 112 788 188 c 1,0,-1
EndSplineSet
Substitution2: "<39,1> ????? lookup 11 subtable" n
Substitution2: "<21,0> Lower Case Numbers lookup 8 subtable" n
Substitution2: "<21,1> Upper Case Numbers lookup 7 subtable" n
EndChar

StartChar: o
Encoding: 111 111 84
Width: 747
Flags: W
LayerCount: 2
Fore
SplineSet
63 263 m 0,0,1
 63 383 63 383 119 524.5 c 128,-1,2
 175 666 175 666 279 754 c 128,-1,3
 383 842 383 842 481 842 c 0,4,5
 570 842 570 842 627.5 766.5 c 128,-1,6
 685 691 685 691 685 562 c 0,7,8
 685 406 685 406 621 266 c 128,-1,9
 557 126 557 126 460.5 51.5 c 128,-1,10
 364 -23 364 -23 271 -23 c 0,11,12
 188 -23 188 -23 125.5 41 c 128,-1,13
 63 105 63 105 63 263 c 0,0,1
170 148 m 0,14,15
 170 94 170 94 198 56 c 128,-1,16
 226 18 226 18 275 18 c 0,17,18
 409 18 409 18 495.5 272 c 128,-1,19
 582 526 582 526 582 660 c 0,20,21
 582 729 582 729 555.5 763.5 c 128,-1,22
 529 798 529 798 476 798 c 0,23,24
 351 798 351 798 260.5 562.5 c 128,-1,25
 170 327 170 327 170 148 c 0,14,15
EndSplineSet
Substitution2: "<39,1> ????? lookup 11 subtable" o
Substitution2: "<21,0> Lower Case Numbers lookup 8 subtable" o
Substitution2: "<21,1> Upper Case Numbers lookup 7 subtable" o
EndChar

StartChar: p
Encoding: 112 112 85
Width: 853
Flags: W
LayerCount: 2
Fore
SplineSet
74 412 m 1,0,-1
 28 412 l 1,1,-1
 217 715 l 2,2,3
 300 847 300 847 326 902 c 128,-1,4
 352 957 352 957 386 1068 c 2,5,-1
 400 1116 l 1,6,-1
 520 1116 l 1,7,-1
 452 892 l 1,8,-1
 368 656 l 1,9,10
 504 847 504 847 626 847 c 0,11,12
 700 847 700 847 752 778.5 c 128,-1,13
 804 710 804 710 804 607 c 0,14,15
 804 486 804 486 742 330 c 128,-1,16
 680 174 680 174 566.5 73 c 128,-1,17
 453 -28 453 -28 340 -28 c 0,18,19
 232 -28 232 -28 203 74 c 1,20,-1
 86 -313 l 2,21,22
 64 -385 64 -385 64 -401 c 0,23,24
 64 -418 64 -418 78.5 -430 c 128,-1,25
 93 -442 93 -442 163 -442 c 2,26,-1
 208 -442 l 1,27,-1
 194 -486 l 1,28,-1
 -224 -486 l 1,29,-1
 -210 -442 l 1,30,-1
 -188 -442 l 2,31,32
 -100 -442 -100 -442 -83 -430 c 128,-1,33
 -66 -418 -66 -418 -31 -305 c 2,34,-1
 177 382 l 2,35,36
 243 597 243 597 329 821 c 1,37,38
 319 807 319 807 276 731 c 0,39,40
 271 723 271 723 244 680 c 2,41,-1
 74 412 l 1,0,-1
259 259 m 2,42,43
 232 170 232 170 232 131 c 0,44,45
 232 82 232 82 259 48 c 128,-1,46
 286 14 286 14 335 14 c 0,47,48
 408 14 408 14 484.5 97.5 c 128,-1,49
 561 181 561 181 624.5 375.5 c 128,-1,50
 688 570 688 570 688 668 c 0,51,52
 688 732 688 732 668 764 c 128,-1,53
 648 796 648 796 608 796 c 0,54,55
 554 796 554 796 464.5 717 c 128,-1,56
 375 638 375 638 299 390 c 2,57,-1
 259 259 l 2,42,43
EndSplineSet
Substitution2: "<39,1> ????? lookup 11 subtable" p
Substitution2: "<21,0> Lower Case Numbers lookup 8 subtable" p
Substitution2: "<21,1> Upper Case Numbers lookup 7 subtable" p
EndChar

StartChar: q
Encoding: 113 113 86
Width: 853
Flags: W
LayerCount: 2
Fore
SplineSet
713 835 m 1,0,-1
 832 835 l 1,1,-1
 484 -313 l 2,2,3
 462 -385 462 -385 462 -401 c 0,4,5
 462 -425 462 -425 483 -433.5 c 128,-1,6
 504 -442 504 -442 564 -442 c 2,7,-1
 590 -442 l 1,8,-1
 576 -486 l 1,9,-1
 174 -486 l 1,10,-1
 188 -442 l 1,11,-1
 210 -442 l 2,12,13
 293 -442 293 -442 312 -432.5 c 128,-1,14
 331 -423 331 -423 367 -305 c 2,15,-1
 501 136 l 1,16,17
 382 -28 382 -28 252 -28 c 0,18,19
 180 -28 180 -28 124.5 34.5 c 128,-1,20
 69 97 69 97 69 218 c 0,21,22
 69 341 69 341 142 498 c 128,-1,23
 215 655 215 655 339.5 751 c 128,-1,24
 464 847 464 847 548 847 c 0,25,26
 602 847 602 847 639 815.5 c 128,-1,27
 676 784 676 784 683 737 c 1,28,-1
 713 835 l 1,0,-1
611 499 m 2,29,30
 652 634 652 634 652 683 c 256,31,32
 652 732 652 732 624.5 766.5 c 128,-1,33
 597 801 597 801 553 801 c 0,34,35
 487 801 487 801 406 717 c 128,-1,36
 325 633 325 633 254.5 449.5 c 128,-1,37
 184 266 184 266 184 146 c 0,38,39
 184 82 184 82 206 50 c 128,-1,40
 228 18 228 18 272 18 c 0,41,42
 336 18 336 18 426 103.5 c 128,-1,43
 516 189 516 189 595 446 c 2,44,-1
 611 499 l 2,29,30
EndSplineSet
Substitution2: "<39,1> ????? lookup 11 subtable" q
Substitution2: "<21,0> Lower Case Numbers lookup 8 subtable" q
Substitution2: "<21,1> Upper Case Numbers lookup 7 subtable" q
EndChar

StartChar: r
Encoding: 114 114 87
Width: 597
Flags: W
LayerCount: 2
Fore
SplineSet
89 577 m 1,0,-1
 45 577 l 1,1,2
 87 689 87 689 150.5 768 c 128,-1,3
 214 847 214 847 276 847 c 0,4,5
 319 847 319 847 340 812.5 c 128,-1,6
 361 778 361 778 361 708 c 0,7,8
 361 621 361 621 316 460 c 1,9,10
 322 470 322 470 349 532 c 0,11,12
 423 699 423 699 479 773 c 128,-1,13
 535 847 535 847 591 847 c 0,14,15
 626 847 626 847 647 825 c 128,-1,16
 668 803 668 803 668 772 c 0,17,18
 668 742 668 742 650.5 723 c 128,-1,19
 633 704 633 704 609 704 c 0,20,21
 582 704 582 704 554 737 c 0,22,23
 543 750 543 750 532 750 c 0,24,25
 482 750 482 750 378 509.5 c 128,-1,26
 274 269 274 269 210 57 c 2,27,-1
 188 -15 l 1,28,-1
 68 -15 l 1,29,-1
 227 515 l 2,30,31
 272 667 272 667 272 721 c 0,32,33
 272 750 272 750 264.5 764 c 128,-1,34
 257 778 257 778 242 778 c 0,35,36
 209 778 209 778 159.5 707 c 128,-1,37
 110 636 110 636 89 577 c 1,0,-1
EndSplineSet
Substitution2: "<39,1> ????? lookup 11 subtable" r
Substitution2: "<21,0> Lower Case Numbers lookup 8 subtable" r
Substitution2: "<21,1> Upper Case Numbers lookup 7 subtable" r
EndChar

StartChar: s
Encoding: 115 115 88
Width: 640
Flags: W
LayerCount: 2
Fore
SplineSet
498 220 m 0,0,1
 498 127 498 127 426.5 49.5 c 128,-1,2
 355 -28 355 -28 216 -28 c 0,3,4
 113 -28 113 -28 61.5 17.5 c 128,-1,5
 10 63 10 63 10 115 c 0,6,7
 10 143 10 143 25.5 163 c 128,-1,8
 41 183 41 183 65 183 c 0,9,10
 119 183 119 183 119 126 c 0,11,12
 119 113 119 113 113 89 c 0,13,14
 109 78 109 78 109 72 c 0,15,16
 109 48 109 48 140 30.5 c 128,-1,17
 171 13 171 13 214 13 c 0,18,19
 281 13 281 13 336 55.5 c 128,-1,20
 391 98 391 98 391 173 c 0,21,22
 391 238 391 238 314 378 c 0,23,24
 224 540 224 540 224 615 c 0,25,26
 224 711 224 711 300 777 c 128,-1,27
 376 843 376 843 473 843 c 0,28,29
 544 843 544 843 594.5 807 c 128,-1,30
 645 771 645 771 645 730 c 0,31,32
 645 677 645 677 601 677 c 0,33,34
 568 677 568 677 553 736 c 0,35,36
 537 801 537 801 466 801 c 0,37,38
 409 801 409 801 367 770 c 128,-1,39
 325 739 325 739 325 689 c 0,40,41
 325 621 325 621 392 502 c 0,42,43
 455 394 455 394 476.5 337 c 128,-1,44
 498 280 498 280 498 220 c 0,0,1
EndSplineSet
Substitution2: "<39,1> ????? lookup 11 subtable" s
Substitution2: "<21,0> Lower Case Numbers lookup 8 subtable" s
Substitution2: "<21,1> Upper Case Numbers lookup 7 subtable" s
EndChar

StartChar: t
Encoding: 116 116 89
Width: 491
Flags: W
LayerCount: 2
Fore
SplineSet
558 819 m 1,0,-1
 544 775 l 1,1,-1
 394 775 l 1,2,-1
 262 338 l 2,3,4
 196 123 196 123 196 88 c 0,5,6
 196 64 196 64 206.5 51.5 c 128,-1,7
 217 39 217 39 237 39 c 0,8,9
 273 39 273 39 331 107 c 128,-1,10
 389 175 389 175 435 278 c 1,11,-1
 479 278 l 1,12,13
 418 129 418 129 339.5 50.5 c 128,-1,14
 261 -28 261 -28 196 -28 c 0,15,16
 145 -28 145 -28 114.5 8 c 128,-1,17
 84 44 84 44 84 99 c 0,18,19
 84 146 84 146 146 349 c 2,20,-1
 275 775 l 1,21,-1
 137 775 l 1,22,-1
 151 819 l 1,23,-1
 288 819 l 1,24,-1
 380 1122 l 1,25,-1
 500 1122 l 1,26,-1
 408 819 l 1,27,-1
 558 819 l 1,0,-1
EndSplineSet
Substitution2: "<39,1> ????? lookup 11 subtable" t
Substitution2: "<21,0> Lower Case Numbers lookup 8 subtable" t
Substitution2: "<21,1> Upper Case Numbers lookup 7 subtable" t
EndChar

StartChar: u
Encoding: 117 117 90
Width: 875
Flags: W
LayerCount: 2
Fore
SplineSet
795 206 m 1,0,-1
 837 206 l 1,1,2
 752 -28 752 -28 607 -28 c 0,3,4
 558 -28 558 -28 533.5 -1 c 128,-1,5
 509 26 509 26 509 80 c 0,6,7
 509 156 509 156 563 323 c 1,8,9
 388 -28 388 -28 217 -28 c 0,10,11
 154 -28 154 -28 118 11 c 128,-1,12
 82 50 82 50 82 108 c 0,13,14
 82 165 82 165 127 297 c 2,15,-1
 250 656 l 2,16,17
 277 736 277 736 277 752 c 0,18,19
 277 778 277 778 251 778 c 0,20,21
 188 778 188 778 113 609 c 1,22,-1
 65 609 l 1,23,24
 105 714 105 714 170 780.5 c 128,-1,25
 235 847 235 847 298 847 c 0,26,27
 337 847 337 847 364.5 822.5 c 128,-1,28
 392 798 392 798 392 749 c 0,29,30
 392 714 392 714 357 609 c 2,31,-1
 231 239 l 2,32,33
 195 131 195 131 195 97 c 0,34,35
 195 66 195 66 209 50 c 128,-1,36
 223 34 223 34 250 34 c 0,37,38
 338 34 338 34 459 221 c 128,-1,39
 580 408 580 408 691 777 c 2,40,-1
 708 834 l 1,41,-1
 828 834 l 1,42,-1
 653 260 l 2,43,44
 611 120 611 120 611 91 c 0,45,46
 611 66 611 66 621 53.5 c 128,-1,47
 631 41 631 41 651 41 c 0,48,49
 727 41 727 41 795 206 c 1,0,-1
EndSplineSet
Substitution2: "<39,1> ????? lookup 11 subtable" u
Substitution2: "<21,0> Lower Case Numbers lookup 8 subtable" u
Substitution2: "<21,1> Upper Case Numbers lookup 7 subtable" u
EndChar

StartChar: v
Encoding: 118 118 91
Width: 725
Flags: W
LayerCount: 2
Fore
SplineSet
90 692 m 1,0,-1
 49 692 l 1,1,2
 96 847 96 847 178 847 c 0,3,4
 222 847 222 847 265 774 c 0,5,6
 281 746 281 746 304 746 c 0,7,8
 328 746 328 746 341 787 c 0,9,10
 360 847 360 847 390 847 c 0,11,12
 413 847 413 847 413 825 c 0,13,14
 413 804 413 804 382 746 c 0,15,16
 262 522 262 522 216.5 399.5 c 128,-1,17
 171 277 171 277 171 180 c 0,18,19
 171 110 171 110 201 71.5 c 128,-1,20
 231 33 231 33 270 33 c 0,21,22
 387 33 387 33 497.5 215.5 c 128,-1,23
 608 398 608 398 608 570 c 0,24,25
 608 638 608 638 579 706 c 0,26,27
 561 748 561 748 561 779 c 0,28,29
 561 847 561 847 612 847 c 0,30,31
 642 847 642 847 661 812 c 128,-1,32
 680 777 680 777 680 717 c 0,33,34
 680 584 680 584 622 390.5 c 128,-1,35
 564 197 564 197 455 84.5 c 128,-1,36
 346 -28 346 -28 227 -28 c 0,37,38
 148 -28 148 -28 100.5 21 c 128,-1,39
 53 70 53 70 53 157 c 0,40,41
 53 247 53 247 102 357 c 128,-1,42
 151 467 151 467 267 636 c 0,43,44
 285 662 285 662 300 689 c 0,45,46
 313 711 313 711 318 718 c 1,47,48
 278 693 278 693 246 693 c 0,49,50
 213 693 213 693 189 717 c 0,51,52
 163 742 163 742 142 742 c 0,53,54
 109 742 109 742 90 692 c 1,0,-1
EndSplineSet
Substitution2: "<39,1> ????? lookup 11 subtable" v
Substitution2: "<21,0> Lower Case Numbers lookup 8 subtable" v
Substitution2: "<21,1> Upper Case Numbers lookup 7 subtable" v
EndChar

StartChar: w
Encoding: 119 119 92
Width: 1280
Flags: W
LayerCount: 2
Fore
SplineSet
113 693 m 1,0,-1
 70 693 l 1,1,2
 109 842 109 842 175 842 c 0,3,4
 215 842 215 842 258 792 c 0,5,6
 300 744 300 744 329 744 c 0,7,8
 357 744 357 744 369 789 c 0,9,10
 385 847 385 847 416 847 c 256,11,12
 447 847 447 847 447 819 c 0,13,14
 447 806 447 806 392 711 c 0,15,16
 265 495 265 495 226.5 353 c 128,-1,17
 188 211 188 211 188 158 c 0,18,19
 188 107 188 107 212.5 71.5 c 128,-1,20
 237 36 237 36 282 36 c 0,21,22
 348 36 348 36 435 99 c 128,-1,23
 522 162 522 162 574 225 c 1,24,25
 571 250 571 250 571 278 c 0,26,27
 571 484 571 484 654 665.5 c 128,-1,28
 737 847 737 847 829 847 c 0,29,30
 867 847 867 847 885.5 820 c 128,-1,31
 904 793 904 793 904 739 c 0,32,33
 904 647 904 647 852.5 537 c 128,-1,34
 801 427 801 427 697 299 c 1,35,36
 706 172 706 172 747.5 102 c 128,-1,37
 789 32 789 32 851 32 c 0,38,39
 910 32 910 32 988 101.5 c 128,-1,40
 1066 171 1066 171 1127.5 311.5 c 128,-1,41
 1189 452 1189 452 1189 549 c 0,42,43
 1189 607 1189 607 1157 676 c 0,44,45
 1128 738 1128 738 1128 780 c 0,46,47
 1128 811 1128 811 1144.5 829 c 128,-1,48
 1161 847 1161 847 1180 847 c 0,49,50
 1208 847 1208 847 1232 808 c 128,-1,51
 1256 769 1256 769 1256 678 c 0,52,53
 1256 546 1256 546 1192.5 356.5 c 128,-1,54
 1129 167 1129 167 1015.5 69.5 c 128,-1,55
 902 -28 902 -28 798 -28 c 0,56,57
 710 -28 710 -28 655.5 36.5 c 128,-1,58
 601 101 601 101 587 170 c 1,59,60
 491 71 491 71 402 21 c 128,-1,61
 313 -29 313 -29 231 -29 c 0,62,63
 148 -29 148 -29 105.5 22 c 128,-1,64
 63 73 63 73 63 149 c 0,65,66
 63 316 63 316 278 621 c 0,67,68
 331 694 331 694 340 711 c 1,69,70
 297 687 297 687 259 687 c 0,71,72
 224 687 224 687 185 724 c 0,73,74
 168 741 168 741 155 741 c 0,75,76
 131 741 131 741 116 702 c 2,77,-1
 113 693 l 1,0,-1
689 360 m 1,78,79
 774 474 774 474 816.5 569.5 c 128,-1,80
 859 665 859 665 859 741 c 0,81,82
 859 772 859 772 850.5 787.5 c 128,-1,83
 842 803 842 803 824 803 c 0,84,85
 784 803 784 803 735.5 703 c 128,-1,86
 687 603 687 603 687 412 c 0,87,88
 687 390 687 390 689 360 c 1,78,79
EndSplineSet
Substitution2: "<39,1> ????? lookup 11 subtable" w
Substitution2: "<21,0> Lower Case Numbers lookup 8 subtable" w
Substitution2: "<21,1> Upper Case Numbers lookup 7 subtable" w
EndChar

StartChar: x
Encoding: 120 120 93
Width: 832
Flags: W
LayerCount: 2
Fore
SplineSet
182 601 m 1,0,-1
 139 601 l 1,1,2
 170 691 170 691 224.5 769 c 128,-1,3
 279 847 279 847 330 847 c 0,4,5
 364 847 364 847 384 815 c 128,-1,6
 404 783 404 783 430 685 c 2,7,-1
 473 521 l 1,8,-1
 633 720 l 2,9,10
 735 847 735 847 784 847 c 0,11,12
 829 847 829 847 829 793 c 0,13,14
 829 716 829 716 790 620 c 1,15,-1
 748 620 l 1,16,17
 782 728 782 728 782 770 c 0,18,19
 782 792 782 792 766 792 c 0,20,21
 745 792 745 792 675 701 c 2,22,-1
 486 468 l 1,23,-1
 547 225 l 2,24,25
 571 128 571 128 583.5 98 c 128,-1,26
 596 68 596 68 613 68 c 0,27,28
 628 68 628 68 653.5 111.5 c 128,-1,29
 679 155 679 155 699 225 c 1,30,-1
 744 225 l 1,31,32
 671 -28 671 -28 564 -28 c 0,33,34
 521 -28 521 -28 494 14.5 c 128,-1,35
 467 57 467 57 436 179 c 2,36,-1
 393 347 l 1,37,-1
 212 112 l 2,38,39
 137 15 137 15 109 -6.5 c 128,-1,40
 81 -28 81 -28 57 -28 c 0,41,42
 9 -28 9 -28 9 34 c 0,43,44
 9 95 9 95 60 199 c 1,45,-1
 102 199 l 1,46,47
 55 92 55 92 55 53 c 0,48,49
 55 24 55 24 72 24 c 0,50,51
 95 24 95 24 191 150 c 2,52,-1
 380 401 l 1,53,-1
 327 620 l 2,54,55
 296 749 296 749 276 749 c 0,56,57
 242 749 242 749 182 601 c 1,0,-1
EndSplineSet
Substitution2: "<39,1> ????? lookup 11 subtable" x
Substitution2: "<21,0> Lower Case Numbers lookup 8 subtable" x
Substitution2: "<21,1> Upper Case Numbers lookup 7 subtable" x
EndChar

StartChar: y
Encoding: 121 121 94
Width: 747
Flags: W
LayerCount: 2
Fore
SplineSet
102 576 m 1,0,-1
 60 576 l 1,1,2
 72 718 72 718 122.5 782.5 c 128,-1,3
 173 847 173 847 231 847 c 0,4,5
 305 847 305 847 349.5 756.5 c 128,-1,6
 394 666 394 666 394 481 c 0,7,8
 394 240 394 240 339 40 c 1,9,10
 437 147 437 147 530.5 312 c 128,-1,11
 624 477 624 477 624 593 c 0,12,13
 624 648 624 648 592 702 c 0,14,15
 560 755 560 755 560 782 c 0,16,17
 560 808 560 808 575.5 827.5 c 128,-1,18
 591 847 591 847 613 847 c 0,19,20
 649 847 649 847 672 806 c 128,-1,21
 695 765 695 765 695 685 c 0,22,23
 695 565 695 565 621.5 392.5 c 128,-1,24
 548 220 548 220 406 50.5 c 128,-1,25
 264 -119 264 -119 123.5 -255.5 c 128,-1,26
 -17 -392 -17 -392 -117.5 -445.5 c 128,-1,27
 -218 -499 -218 -499 -317 -499 c 0,28,29
 -444 -499 -444 -499 -444 -426 c 0,30,31
 -444 -396 -444 -396 -417 -378.5 c 128,-1,32
 -390 -361 -390 -361 -360 -361 c 0,33,34
 -337 -361 -337 -361 -288 -374 c 0,35,36
 -224 -392 -224 -392 -183 -392 c 0,37,38
 -123 -392 -123 -392 -65.5 -358.5 c 128,-1,39
 -8 -325 -8 -325 76.5 -242.5 c 128,-1,40
 161 -160 161 -160 195 -96.5 c 128,-1,41
 229 -33 229 -33 255.5 127 c 128,-1,42
 282 287 282 287 282 471 c 0,43,44
 282 611 282 611 256 687 c 128,-1,45
 230 763 230 763 192 763 c 0,46,47
 119 763 119 763 102 576 c 1,0,-1
EndSplineSet
Substitution2: "<39,1> ????? lookup 11 subtable" y
Substitution2: "<21,0> Lower Case Numbers lookup 8 subtable" y
Substitution2: "<21,1> Upper Case Numbers lookup 7 subtable" y
EndChar

StartChar: z
Encoding: 122 122 95
Width: 875
Flags: W
LayerCount: 2
Fore
SplineSet
287 639 m 1,0,-1
 250 639 l 1,1,2
 311 847 311 847 465 847 c 0,3,4
 544 847 544 847 612 791 c 0,5,6
 671 744 671 744 712 744 c 0,7,8
 768 744 768 744 787 803 c 0,9,10
 801 847 801 847 829 847 c 0,11,12
 856 847 856 847 856 821 c 0,13,14
 856 787 856 787 778 704.5 c 128,-1,15
 700 622 700 622 386 358 c 0,16,17
 161 166 161 166 106 79 c 1,18,19
 145 106 145 106 201 106 c 0,20,21
 300 106 300 106 469 -21 c 0,22,23
 581 -105 581 -105 654 -105 c 0,24,25
 772 -105 772 -105 777 24 c 1,26,-1
 813 24 l 1,27,28
 813 -97 813 -97 753.5 -168 c 128,-1,29
 694 -239 694 -239 607 -239 c 0,30,31
 534 -239 534 -239 485.5 -203.5 c 128,-1,32
 437 -168 437 -168 354 -62 c 0,33,34
 300 9 300 9 267 35.5 c 128,-1,35
 234 62 234 62 192 62 c 0,36,37
 110 62 110 62 69 -16 c 0,38,39
 55 -42 55 -42 41 -42 c 0,40,41
 21 -42 21 -42 21 -12 c 0,42,43
 21 49 21 49 108 157 c 128,-1,44
 195 265 195 265 477 496 c 0,45,46
 624 616 624 616 722 706 c 1,47,48
 682 701 682 701 664 701 c 0,49,50
 602 701 602 701 540 707 c 0,51,52
 471 714 471 714 443 714 c 0,53,54
 397 714 397 714 354.5 703 c 128,-1,55
 312 692 312 692 287 639 c 1,0,-1
EndSplineSet
Substitution2: "<39,1> ????? lookup 11 subtable" z
Substitution2: "<21,0> Lower Case Numbers lookup 8 subtable" z
Substitution2: "<21,1> Upper Case Numbers lookup 7 subtable" z
EndChar

StartChar: braceleft
Encoding: 123 123 96
Width: 981
Flags: W
LayerCount: 2
Fore
SplineSet
269 421 m 1,0,-1
 269 460 l 1,1,2
 370 476 370 476 433 536 c 128,-1,3
 496 596 496 596 496 672 c 0,4,5
 496 724 496 724 472 824 c 0,6,7
 449 917 449 917 449 987 c 0,8,9
 449 1129 449 1129 557 1246 c 128,-1,10
 665 1363 665 1363 827 1380 c 1,11,-1
 827 1341 l 1,12,13
 710 1324 710 1324 652 1253.5 c 128,-1,14
 594 1183 594 1183 594 1100 c 0,15,16
 594 1039 594 1039 613 950 c 0,17,18
 634 844 634 844 634 779 c 0,19,20
 634 671 634 671 556 578 c 128,-1,21
 478 485 478 485 351 443 c 1,22,23
 483 393 483 393 559 301.5 c 128,-1,24
 635 210 635 210 635 102 c 0,25,26
 635 41 635 41 613 -66 c 0,27,28
 595 -156 595 -156 595 -216 c 0,29,30
 595 -406 595 -406 827 -464 c 1,31,-1
 827 -499 l 1,32,33
 667 -481 667 -481 559 -367 c 128,-1,34
 451 -253 451 -253 451 -108 c 0,35,36
 451 -40 451 -40 472 49 c 0,37,38
 497 155 497 155 497 203 c 0,39,40
 497 276 497 276 441 338 c 128,-1,41
 385 400 385 400 269 421 c 1,0,-1
EndSplineSet
Substitution2: "<39,1> ????? lookup 11 subtable" braceleft
Substitution2: "<21,0> Lower Case Numbers lookup 8 subtable" braceleft
Substitution2: "<21,1> Upper Case Numbers lookup 7 subtable" braceleft
EndChar

StartChar: bar
Encoding: 124 124 97
Width: 1045
Flags: W
LayerCount: 2
Fore
SplineSet
551 1375 m 1,0,-1
 660 1375 l 1,1,-1
 660 -487 l 1,2,-1
 551 -487 l 1,3,-1
 551 1375 l 1,0,-1
EndSplineSet
Substitution2: "<39,1> ????? lookup 11 subtable" bar
Substitution2: "<21,0> Lower Case Numbers lookup 8 subtable" bar
Substitution2: "<21,1> Upper Case Numbers lookup 7 subtable" bar
EndChar

StartChar: braceright
Encoding: 125 125 98
Width: 981
Flags: W
LayerCount: 2
Fore
SplineSet
830 460 m 1,0,-1
 830 421 l 1,1,2
 731 405 731 405 667 345 c 128,-1,3
 603 285 603 285 603 209 c 0,4,5
 603 157 603 157 627 56 c 0,6,7
 650 -37 650 -37 650 -106 c 0,8,9
 650 -248 650 -248 541 -365.5 c 128,-1,10
 432 -483 432 -483 272 -499 c 1,11,-1
 272 -461 l 1,12,13
 389 -443 389 -443 446.5 -372.5 c 128,-1,14
 504 -302 504 -302 504 -220 c 0,15,16
 504 -159 504 -159 486 -69 c 0,17,18
 465 37 465 37 465 102 c 0,19,20
 465 209 465 209 543 302 c 128,-1,21
 621 395 621 395 748 438 c 1,22,23
 617 487 617 487 540.5 578.5 c 128,-1,24
 464 670 464 670 464 778 c 0,25,26
 464 840 464 840 486 947 c 0,27,28
 504 1037 504 1037 504 1097 c 0,29,30
 504 1288 504 1288 272 1345 c 1,31,-1
 272 1380 l 1,32,33
 432 1361 432 1361 540 1247 c 128,-1,34
 648 1133 648 1133 648 989 c 0,35,36
 648 920 648 920 627 831 c 0,37,38
 602 726 602 726 602 677 c 0,39,40
 602 605 602 605 657 543.5 c 128,-1,41
 712 482 712 482 830 460 c 1,0,-1
EndSplineSet
Substitution2: "<39,1> ????? lookup 11 subtable" braceright
Substitution2: "<21,0> Lower Case Numbers lookup 8 subtable" braceright
Substitution2: "<21,1> Upper Case Numbers lookup 7 subtable" braceright
EndChar

StartChar: asciitilde
Encoding: 126 126 99
Width: 1365
Flags: W
LayerCount: 2
Fore
SplineSet
1230 800 m 1,0,-1
 1278 800 l 1,1,2
 1275 669 1275 669 1204 591 c 128,-1,3
 1133 513 1133 513 1028 513 c 0,4,5
 976 513 976 513 918.5 530.5 c 128,-1,6
 861 548 861 548 654 633 c 0,7,8
 501 696 501 696 435 696 c 0,9,10
 288 696 288 696 253 515 c 1,11,-1
 206 515 l 1,12,13
 211 660 211 660 284 731 c 128,-1,14
 357 802 357 802 446 802 c 0,15,16
 542 802 542 802 827 680 c 0,17,18
 979 615 979 615 1046 615 c 0,19,20
 1122 615 1122 615 1172.5 664 c 128,-1,21
 1223 713 1223 713 1230 800 c 1,0,-1
EndSplineSet
Substitution2: "<39,1> ????? lookup 11 subtable" asciitilde
Substitution2: "<21,0> Lower Case Numbers lookup 8 subtable" asciitilde
Substitution2: "<21,1> Upper Case Numbers lookup 7 subtable" asciitilde
EndChar

StartChar: Aring
Encoding: 197 197 101
Width: 1173
Flags: W
LayerCount: 2
Fore
SplineSet
873 1338 m 1,0,1
 815 1365 815 1365 786 1409 c 128,-1,2
 757 1453 757 1453 757 1514 c 0,3,4
 757 1594 757 1594 813 1650 c 128,-1,5
 869 1706 869 1706 948 1706 c 0,6,7
 1029 1706 1029 1706 1084.5 1649 c 128,-1,8
 1140 1592 1140 1592 1140 1514 c 0,9,10
 1140 1443 1140 1443 1092 1387.5 c 128,-1,11
 1044 1332 1044 1332 968 1323 c 1,12,-1
 924 281 l 1,13,-1
 918 159 l 2,14,15
 918 94 918 94 955.5 71.5 c 128,-1,16
 993 49 993 49 1082 46 c 1,17,-1
 1067 0 l 1,18,-1
 536 0 l 1,19,-1
 550 46 l 1,20,21
 656 48 656 48 693.5 76.5 c 128,-1,22
 731 105 731 105 737.5 144.5 c 128,-1,23
 744 184 744 184 749 294 c 2,24,-1
 759 513 l 1,25,-1
 372 513 l 1,26,-1
 248 323 l 2,27,28
 187 229 187 229 174 203 c 128,-1,29
 161 177 161 177 161 149 c 0,30,31
 161 51 161 51 304 47 c 2,32,-1
 337 46 l 1,33,-1
 322 0 l 1,34,-1
 -152 0 l 1,35,-1
 -138 46 l 1,36,37
 -40 54 -40 54 25 110.5 c 128,-1,38
 90 167 90 167 211 349 c 2,39,-1
 873 1338 l 1,0,1
814 1514 m 0,40,41
 814 1459 814 1459 853.5 1419.5 c 128,-1,42
 893 1380 893 1380 948 1380 c 0,43,44
 1004 1380 1004 1380 1043 1419.5 c 128,-1,45
 1082 1459 1082 1459 1082 1514 c 256,46,47
 1082 1569 1082 1569 1043 1608.5 c 128,-1,48
 1004 1648 1004 1648 948 1648 c 0,49,50
 890 1648 890 1648 852 1607.5 c 128,-1,51
 814 1567 814 1567 814 1514 c 0,40,41
762 559 m 1,52,-1
 788 1138 l 1,53,-1
 402 559 l 1,54,-1
 762 559 l 1,52,-1
EndSplineSet
Substitution2: "<39,1> ????? lookup 11 subtable" Aring
Substitution2: "<21,0> Lower Case Numbers lookup 8 subtable" Aring
Substitution2: "<21,1> Upper Case Numbers lookup 7 subtable" Aring
EndChar

StartChar: Ccedilla
Encoding: 199 199 102
Width: 1237
Flags: W
LayerCount: 2
Fore
SplineSet
583 -21 m 1,0,1
 392 3 392 3 278.5 152 c 128,-1,2
 165 301 165 301 165 492 c 0,3,4
 165 813 165 813 396 1096.5 c 128,-1,5
 627 1380 627 1380 919 1380 c 0,6,7
 1040 1380 1040 1380 1123.5 1327 c 128,-1,8
 1207 1274 1207 1274 1253 1168 c 1,9,10
 1298 1244 1298 1244 1321 1324 c 1,11,-1
 1365 1324 l 1,12,-1
 1275 929 l 1,13,-1
 1233 929 l 1,14,15
 1236 956 1236 956 1236 980 c 0,16,17
 1236 1152 1236 1152 1155 1245 c 128,-1,18
 1074 1338 1074 1338 941 1338 c 0,19,20
 795 1338 795 1338 669 1232 c 128,-1,21
 543 1126 543 1126 445.5 869.5 c 128,-1,22
 348 613 348 613 348 416 c 0,23,24
 348 244 348 244 431 132.5 c 128,-1,25
 514 21 514 21 656 21 c 0,26,27
 936 21 936 21 1117 423 c 1,28,-1
 1162 423 l 1,29,-1
 1026 -17 l 1,30,-1
 984 -17 l 1,31,32
 984 46 984 46 974 118 c 1,33,34
 830 -24 830 -24 630 -24 c 1,35,-1
 589 -121 l 1,36,37
 657 -131 657 -131 702 -173.5 c 128,-1,38
 747 -216 747 -216 747 -275 c 0,39,40
 747 -377 747 -377 641.5 -435 c 128,-1,41
 536 -493 536 -493 327 -493 c 0,42,43
 294 -493 294 -493 235 -491 c 1,44,-1
 249 -446 l 1,45,46
 435 -446 435 -446 528 -413.5 c 128,-1,47
 621 -381 621 -381 621 -316 c 0,48,49
 621 -240 621 -240 487 -230 c 1,50,-1
 583 -21 l 1,0,1
EndSplineSet
Substitution2: "<39,1> ????? lookup 11 subtable" Ccedilla
Substitution2: "<21,0> Lower Case Numbers lookup 8 subtable" Ccedilla
Substitution2: "<21,1> Upper Case Numbers lookup 7 subtable" Ccedilla
EndChar

StartChar: ccedilla
Encoding: 231 231 113
Width: 661
Flags: W
LayerCount: 2
Fore
SplineSet
190 -22 m 1,0,1
 124 -3 124 -3 90.5 53 c 128,-1,2
 57 109 57 109 57 203 c 0,3,4
 57 332 57 332 123.5 484.5 c 128,-1,5
 190 637 190 637 310.5 742 c 128,-1,6
 431 847 431 847 523 847 c 0,7,8
 576 847 576 847 613 813 c 128,-1,9
 650 779 650 779 650 731 c 0,10,11
 650 660 650 660 593 660 c 0,12,13
 535 660 535 660 532 739 c 0,14,15
 530 798 530 798 487 798 c 0,16,17
 456 798 456 798 408.5 757.5 c 128,-1,18
 361 717 361 717 302 601 c 128,-1,19
 243 485 243 485 210 351 c 128,-1,20
 177 217 177 217 177 156 c 0,21,22
 177 99 177 99 206 65 c 128,-1,23
 235 31 235 31 276 31 c 0,24,25
 340 31 340 31 408.5 105 c 128,-1,26
 477 179 477 179 516 284 c 1,27,-1
 556 284 l 1,28,29
 509 144 509 144 421 58 c 128,-1,30
 333 -28 333 -28 233 -28 c 1,31,-1
 187 -96 l 1,32,33
 245 -96 245 -96 291 -136 c 128,-1,34
 337 -176 337 -176 337 -240 c 0,35,36
 337 -342 337 -342 231 -412 c 128,-1,37
 125 -482 125 -482 -85 -482 c 1,38,-1
 -72 -439 l 1,39,40
 78 -439 78 -439 153.5 -393 c 128,-1,41
 229 -347 229 -347 229 -287 c 0,42,43
 229 -197 229 -197 91 -197 c 2,44,-1
 70 -197 l 1,45,-1
 190 -22 l 1,0,1
EndSplineSet
Substitution2: "<39,1> ????? lookup 11 subtable" ccedilla
Substitution2: "<21,0> Lower Case Numbers lookup 8 subtable" ccedilla
Substitution2: "<21,1> Upper Case Numbers lookup 7 subtable" ccedilla
Ligature2: "<27,0> Canonical Decomposition in Latin lookup 1 subtable" c cedillacmb
EndChar

StartChar: degree
Encoding: 176 176 132
Width: 811
Flags: W
LayerCount: 2
Fore
SplineSet
609 1349 m 0,0,1
 736 1349 736 1349 826.5 1259 c 128,-1,2
 917 1169 917 1169 917 1042 c 256,3,4
 917 915 917 915 826.5 824.5 c 128,-1,5
 736 734 736 734 609 734 c 256,6,7
 482 734 482 734 392 824 c 128,-1,8
 302 914 302 914 302 1042 c 0,9,10
 302 1169 302 1169 392.5 1259 c 128,-1,11
 483 1349 483 1349 609 1349 c 0,0,1
609 1265 m 256,12,13
 519 1265 519 1265 452.5 1201.5 c 128,-1,14
 386 1138 386 1138 386 1042 c 0,15,16
 386 950 386 950 451.5 884.5 c 128,-1,17
 517 819 517 819 609 819 c 256,18,19
 701 819 701 819 766.5 885 c 128,-1,20
 832 951 832 951 832 1042 c 0,21,22
 832 1138 832 1138 765.5 1201.5 c 128,-1,23
 699 1265 699 1265 609 1265 c 256,12,13
EndSplineSet
Substitution2: "<39,1> ????? lookup 11 subtable" degree
Substitution2: "<21,0> Lower Case Numbers lookup 8 subtable" degree
Substitution2: "<21,1> Upper Case Numbers lookup 7 subtable" degree
EndChar

StartChar: cent
Encoding: 162 162 133
Width: 917
Flags: W
LayerCount: 2
Fore
SplineSet
329 -26 m 1,0,1
 178 0 178 0 178 203 c 0,2,3
 178 339 178 339 243.5 482.5 c 128,-1,4
 309 626 309 626 410 721.5 c 128,-1,5
 511 817 511 817 592 840 c 1,6,-1
 715 1244 l 1,7,-1
 758 1244 l 1,8,-1
 637 847 l 1,9,10
 691 847 691 847 731 815.5 c 128,-1,11
 771 784 771 784 771 731 c 0,12,13
 771 660 771 660 714 660 c 0,14,15
 656 660 656 660 653 739 c 0,16,17
 652 786 652 786 621 796 c 1,18,-1
 389 32 l 1,19,-1
 399 31 l 1,20,21
 460 31 460 31 528.5 103 c 128,-1,22
 597 175 597 175 637 284 c 1,23,-1
 677 284 l 1,24,25
 631 149 631 149 548 64.5 c 128,-1,26
 465 -20 465 -20 372 -27 c 1,27,-1
 264 -381 l 1,28,-1
 221 -381 l 1,29,-1
 329 -26 l 1,0,1
351 45 m 1,30,-1
 577 790 l 1,31,32
 470 735 470 735 384 510.5 c 128,-1,33
 298 286 298 286 298 157 c 0,34,35
 298 79 298 79 351 45 c 1,30,-1
EndSplineSet
Substitution2: "<39,1> ????? lookup 11 subtable" cent
Substitution2: "<21,0> Lower Case Numbers lookup 8 subtable" cent
Substitution2: "<21,1> Upper Case Numbers lookup 7 subtable" cent
EndChar

StartChar: sterling
Encoding: 163 163 134
Width: 1621
Flags: W
LayerCount: 2
Fore
SplineSet
461 242 m 1,0,1
 849 920 849 920 1099 1150 c 128,-1,2
 1349 1380 1349 1380 1573 1380 c 0,3,4
 1666 1380 1666 1380 1730.5 1346.5 c 128,-1,5
 1795 1313 1795 1313 1795 1259 c 0,6,7
 1795 1225 1795 1225 1772 1199.5 c 128,-1,8
 1749 1174 1749 1174 1719 1174 c 0,9,10
 1682 1174 1682 1174 1663 1233 c 0,11,12
 1646 1286 1646 1286 1614 1308 c 0,13,14
 1581 1330 1581 1330 1520 1330 c 0,15,16
 1441 1330 1441 1330 1341.5 1270.5 c 128,-1,17
 1242 1211 1242 1211 1166 1108.5 c 128,-1,18
 1090 1006 1090 1006 973 810 c 0,19,20
 763 461 763 461 601 242 c 1,21,-1
 974 242 l 1,22,-1
 943 196 l 1,23,-1
 567 196 l 1,24,25
 488 88 488 88 307 -120 c 1,26,27
 335 -107 335 -107 365.5 -101 c 128,-1,28
 396 -95 396 -95 428 -95 c 0,29,30
 510 -95 510 -95 565 -133.5 c 128,-1,31
 620 -172 620 -172 679 -253 c 0,32,33
 735 -328 735 -328 773.5 -345.5 c 128,-1,34
 812 -363 812 -363 848 -363 c 0,35,36
 945 -363 945 -363 1031 -291 c 128,-1,37
 1117 -219 1117 -219 1117 -135 c 0,38,39
 1117 -111 1117 -111 1106 -72 c 0,40,41
 1100 -54 1100 -54 1100 -46 c 0,42,43
 1100 -6 1100 -6 1127 15.5 c 128,-1,44
 1154 37 1154 37 1182 37 c 0,45,46
 1236 37 1236 37 1236 -32 c 0,47,48
 1236 -169 1236 -169 1070 -312.5 c 128,-1,49
 904 -456 904 -456 740 -456 c 0,50,51
 658 -456 658 -456 599.5 -416.5 c 128,-1,52
 541 -377 541 -377 484 -288 c 0,53,54
 401 -160 401 -160 323 -160 c 0,55,56
 308 -160 308 -160 290.5 -164.5 c 128,-1,57
 273 -169 273 -169 253 -179 c 1,58,59
 246 -188 246 -188 214 -229 c 0,60,61
 34 -459 34 -459 -45 -459 c 0,62,63
 -86 -459 -86 -459 -86 -423 c 0,64,65
 -86 -374 -86 -374 0.5 -297.5 c 128,-1,66
 87 -221 87 -221 224 -146 c 1,67,68
 282 -60 282 -60 433 196 c 1,69,-1
 111 196 l 1,70,-1
 141 242 l 1,71,-1
 461 242 l 1,0,1
EndSplineSet
Substitution2: "<39,1> ????? lookup 11 subtable" sterling
Substitution2: "<21,0> Lower Case Numbers lookup 8 subtable" sterling
Substitution2: "<21,1> Upper Case Numbers lookup 7 subtable" sterling
EndChar

StartChar: section
Encoding: 167 167 135
Width: 853
Flags: W
LayerCount: 2
Fore
SplineSet
439 717 m 1,0,1
 330 857 330 857 330 1002 c 0,2,3
 330 1160 330 1160 429 1255 c 128,-1,4
 528 1350 528 1350 668 1350 c 0,5,6
 779 1350 779 1350 859.5 1284.5 c 128,-1,7
 940 1219 940 1219 940 1144 c 0,8,9
 940 1110 940 1110 921.5 1087 c 128,-1,10
 903 1064 903 1064 872 1064 c 0,11,12
 808 1064 808 1064 794 1169 c 0,13,14
 776 1310 776 1310 640 1310 c 0,15,16
 556 1310 556 1310 485.5 1250 c 128,-1,17
 415 1190 415 1190 415 1084 c 0,18,19
 415 1024 415 1024 443 953.5 c 128,-1,20
 471 883 471 883 579 772 c 0,21,22
 699 649 699 649 733 566 c 128,-1,23
 767 483 767 483 767 417 c 0,24,25
 767 303 767 303 696.5 225.5 c 128,-1,26
 626 148 626 148 513 148 c 0,27,28
 474 148 474 148 418 166 c 1,29,30
 537 34 537 34 537 -112 c 0,31,32
 537 -257 537 -257 442 -363 c 128,-1,33
 347 -469 347 -469 190 -469 c 0,34,35
 46 -469 46 -469 -32 -387.5 c 128,-1,36
 -110 -306 -110 -306 -110 -229 c 0,37,38
 -110 -196 -110 -196 -91.5 -170.5 c 128,-1,39
 -73 -145 -73 -145 -39 -145 c 0,40,41
 27 -145 27 -145 45 -248 c 0,42,43
 76 -429 76 -429 221 -429 c 0,44,45
 269 -429 269 -429 324.5 -403 c 128,-1,46
 380 -377 380 -377 415 -318 c 128,-1,47
 450 -259 450 -259 450 -192 c 0,48,49
 450 -132 450 -132 420.5 -67 c 128,-1,50
 391 -2 391 -2 272 137 c 0,51,52
 184 241 184 241 145.5 315 c 128,-1,53
 107 389 107 389 107 474 c 0,54,55
 107 575 107 575 173 652 c 128,-1,56
 239 729 239 729 358 729 c 0,57,58
 392 729 392 729 439 717 c 1,0,1
358 692 m 0,59,60
 281 692 281 692 239 645.5 c 128,-1,61
 197 599 197 599 197 541 c 0,62,63
 197 442 197 442 298.5 313.5 c 128,-1,64
 400 185 400 185 512 185 c 0,65,66
 574 185 574 185 619 230.5 c 128,-1,67
 664 276 664 276 664 338 c 0,68,69
 664 458 664 458 564 575 c 128,-1,70
 464 692 464 692 358 692 c 0,59,60
EndSplineSet
Substitution2: "<39,1> ????? lookup 11 subtable" section
Substitution2: "<21,0> Lower Case Numbers lookup 8 subtable" section
Substitution2: "<21,1> Upper Case Numbers lookup 7 subtable" section
EndChar

StartChar: paragraph
Encoding: 182 182 136
Width: 917
Flags: W
LayerCount: 2
Fore
SplineSet
833 1301 m 1,0,-1
 833 -504 l 1,1,-1
 761 -504 l 1,2,-1
 761 1301 l 1,3,-1
 574 1301 l 1,4,-1
 574 -504 l 1,5,-1
 501 -504 l 1,6,-1
 501 601 l 1,7,8
 21 607 21 607 21 981 c 0,9,10
 21 1096 21 1096 76.5 1181.5 c 128,-1,11
 132 1267 132 1267 228.5 1311.5 c 128,-1,12
 325 1356 325 1356 471 1356 c 2,13,-1
 966 1356 l 1,14,-1
 966 1301 l 1,15,-1
 833 1301 l 1,0,-1
EndSplineSet
Substitution2: "<39,1> ????? lookup 11 subtable" paragraph
Substitution2: "<21,0> Lower Case Numbers lookup 8 subtable" paragraph
Substitution2: "<21,1> Upper Case Numbers lookup 7 subtable" paragraph
EndChar

StartChar: germandbls
Encoding: 223 223 137
Width: 896
Flags: W
LayerCount: 2
Fore
SplineSet
472 727 m 1,0,-1
 481 770 l 1,1,2
 598 770 598 770 669.5 825 c 128,-1,3
 741 880 741 880 773 997 c 128,-1,4
 805 1114 805 1114 805 1186 c 0,5,6
 805 1253 805 1253 777.5 1286.5 c 128,-1,7
 750 1320 750 1320 695 1320 c 0,8,9
 633 1320 633 1320 576 1277 c 128,-1,10
 519 1234 519 1234 480.5 1145 c 128,-1,11
 442 1056 442 1056 386 840 c 2,12,-1
 185 75 l 2,13,14
 96 -263 96 -263 4 -375 c 0,15,16
 -89 -488 -89 -488 -226 -488 c 0,17,18
 -312 -488 -312 -488 -364.5 -442 c 128,-1,19
 -417 -396 -417 -396 -417 -340 c 0,20,21
 -417 -280 -417 -280 -360 -280 c 0,22,23
 -294 -280 -294 -280 -294 -352 c 0,24,25
 -294 -364 -294 -364 -299 -386 c 2,26,-1
 -302 -403 l 2,27,28
 -302 -423 -302 -423 -283.5 -433 c 128,-1,29
 -265 -443 -265 -443 -228 -443 c 0,30,31
 -157 -443 -157 -443 -114 -397.5 c 128,-1,32
 -71 -352 -71 -352 -40.5 -277.5 c 128,-1,33
 -10 -203 -10 -203 54 37 c 2,34,-1
 269 851 l 2,35,36
 353 1169 353 1169 462 1271 c 256,37,38
 571 1373 571 1373 691 1373 c 0,39,40
 806 1373 806 1373 867.5 1298 c 128,-1,41
 929 1223 929 1223 929 1115 c 0,42,43
 929 997 929 997 849 892 c 128,-1,44
 769 787 769 787 599 744 c 1,45,46
 686 727 686 727 748.5 652.5 c 128,-1,47
 811 578 811 578 811 468 c 0,48,49
 811 269 811 269 685 116.5 c 128,-1,50
 559 -36 559 -36 406 -36 c 0,51,52
 348 -36 348 -36 303.5 -2.5 c 128,-1,53
 259 31 259 31 259 83 c 0,54,55
 259 144 259 144 310 144 c 0,56,57
 365 144 365 144 370 59 c 0,58,59
 373 7 373 7 422 7 c 256,60,61
 471 7 471 7 529 68.5 c 128,-1,62
 587 130 587 130 632.5 266 c 128,-1,63
 678 402 678 402 678 526 c 0,64,65
 678 631 678 631 628 677 c 128,-1,66
 578 723 578 723 472 727 c 1,0,-1
EndSplineSet
Substitution2: "<39,1> ????? lookup 11 subtable" germandbls
Substitution2: "<21,0> Lower Case Numbers lookup 8 subtable" germandbls
Substitution2: "<21,1> Upper Case Numbers lookup 7 subtable" germandbls
EndChar

StartChar: registered
Encoding: 174 174 138
Width: 1557
Flags: W
LayerCount: 2
Fore
SplineSet
849 1380 m 0,0,1
 1028 1380 1028 1380 1196 1289.5 c 128,-1,2
 1364 1199 1364 1199 1461.5 1029.5 c 128,-1,3
 1559 860 1559 860 1559 671 c 0,4,5
 1559 379 1559 379 1350.5 170 c 128,-1,6
 1142 -39 1142 -39 849 -39 c 0,7,8
 557 -39 557 -39 348.5 169.5 c 128,-1,9
 140 378 140 378 140 671 c 0,10,11
 140 965 140 965 348.5 1172.5 c 128,-1,12
 557 1380 557 1380 849 1380 c 0,0,1
849 1319 m 256,13,14
 686 1319 686 1319 533 1236 c 128,-1,15
 380 1153 380 1153 291 998.5 c 128,-1,16
 202 844 202 844 202 671 c 0,17,18
 202 403 202 403 391.5 213 c 128,-1,19
 581 23 581 23 849 23 c 0,20,21
 1118 23 1118 23 1307.5 213 c 128,-1,22
 1497 403 1497 403 1497 671 c 0,23,24
 1497 843 1497 843 1408 998 c 128,-1,25
 1319 1153 1319 1153 1165.5 1236 c 128,-1,26
 1012 1319 1012 1319 849 1319 c 256,13,14
475 1107 m 1,27,-1
 861 1107 l 2,28,29
 997 1107 997 1107 1078 1044.5 c 128,-1,30
 1159 982 1159 982 1159 883 c 0,31,32
 1159 801 1159 801 1103.5 745.5 c 128,-1,33
 1048 690 1048 690 936 661 c 1,34,-1
 1145 363 l 2,35,36
 1180 314 1180 314 1205 296 c 128,-1,37
 1230 278 1230 278 1266 275 c 1,38,-1
 1266 241 l 1,39,-1
 1083 241 l 1,40,-1
 788 647 l 1,41,-1
 712 647 l 1,42,-1
 712 337 l 1,43,44
 717 312 717 312 735.5 293.5 c 128,-1,45
 754 275 754 275 830 275 c 1,46,-1
 830 241 l 1,47,-1
 463 241 l 1,48,-1
 463 275 l 1,49,50
 512 275 512 275 534 288 c 128,-1,51
 556 301 556 301 561.5 321 c 128,-1,52
 567 341 567 341 567 413 c 2,53,-1
 567 935 l 2,54,55
 567 1006 567 1006 563 1024.5 c 128,-1,56
 559 1043 559 1043 540 1056.5 c 128,-1,57
 521 1070 521 1070 475 1071 c 1,58,-1
 475 1107 l 1,27,-1
712 690 m 1,59,-1
 742 690 l 2,60,61
 868 690 868 690 932.5 739 c 128,-1,62
 997 788 997 788 997 871 c 0,63,64
 997 952 997 952 941 1007 c 128,-1,65
 885 1062 885 1062 798 1062 c 0,66,67
 755 1062 755 1062 712 1047 c 1,68,-1
 712 690 l 1,59,-1
EndSplineSet
Substitution2: "<39,1> ????? lookup 11 subtable" registered
Substitution2: "<21,0> Lower Case Numbers lookup 8 subtable" registered
Substitution2: "<21,1> Upper Case Numbers lookup 7 subtable" registered
EndChar

StartChar: copyright
Encoding: 169 169 139
Width: 1557
Flags: W
LayerCount: 2
Fore
SplineSet
849 1380 m 0,0,1
 1028 1380 1028 1380 1196 1289.5 c 128,-1,2
 1364 1199 1364 1199 1461.5 1029.5 c 128,-1,3
 1559 860 1559 860 1559 671 c 0,4,5
 1559 379 1559 379 1350.5 170 c 128,-1,6
 1142 -39 1142 -39 849 -39 c 0,7,8
 557 -39 557 -39 348.5 169.5 c 128,-1,9
 140 378 140 378 140 671 c 0,10,11
 140 965 140 965 348.5 1172.5 c 128,-1,12
 557 1380 557 1380 849 1380 c 0,0,1
849 1319 m 256,13,14
 686 1319 686 1319 533 1236 c 128,-1,15
 380 1153 380 1153 291 998.5 c 128,-1,16
 202 844 202 844 202 671 c 0,17,18
 202 403 202 403 391.5 213 c 128,-1,19
 581 23 581 23 849 23 c 0,20,21
 1118 23 1118 23 1307.5 213 c 128,-1,22
 1497 403 1497 403 1497 671 c 0,23,24
 1497 843 1497 843 1408 998 c 128,-1,25
 1319 1153 1319 1153 1165.5 1236 c 128,-1,26
 1012 1319 1012 1319 849 1319 c 256,13,14
1200 1127 m 1,27,-1
 1220 847 l 1,28,-1
 1181 847 l 1,29,30
 1109 1083 1109 1083 881 1083 c 0,31,32
 731 1083 731 1083 644 979 c 128,-1,33
 557 875 557 875 557 692 c 0,34,35
 557 482 557 482 648.5 381.5 c 128,-1,36
 740 281 740 281 890 281 c 0,37,38
 1083 281 1083 281 1200 443 c 1,39,-1
 1237 424 l 1,40,41
 1104 221 1104 221 850 221 c 0,42,43
 654 221 654 221 522.5 351 c 128,-1,44
 391 481 391 481 391 665 c 0,45,46
 391 851 391 851 528 989 c 128,-1,47
 665 1127 665 1127 890 1127 c 0,48,49
 962 1127 962 1127 1074 1090 c 0,50,51
 1099 1082 1099 1082 1111 1082 c 0,52,53
 1144 1082 1144 1082 1160 1127 c 1,54,-1
 1200 1127 l 1,27,-1
EndSplineSet
Substitution2: "<39,1> ????? lookup 11 subtable" copyright
Substitution2: "<21,0> Lower Case Numbers lookup 8 subtable" copyright
Substitution2: "<21,1> Upper Case Numbers lookup 7 subtable" copyright
EndChar

StartChar: acute
Encoding: 180 180 140
Width: 683
Flags: W
LayerCount: 2
Fore
SplineSet
427 910 m 1,0,-1
 407 928 l 1,1,-1
 549 1153 l 2,2,3
 602 1237 602 1237 626.5 1252 c 128,-1,4
 651 1267 651 1267 670 1267 c 0,5,6
 693 1267 693 1267 712 1250 c 128,-1,7
 731 1233 731 1233 731 1208 c 0,8,9
 731 1170 731 1170 651 1101 c 2,10,-1
 427 910 l 1,0,-1
EndSplineSet
Substitution2: "<39,1> ????? lookup 11 subtable" acute
Substitution2: "<21,0> Lower Case Numbers lookup 8 subtable" acute
Substitution2: "<21,1> Upper Case Numbers lookup 7 subtable" acute
EndChar

StartChar: dieresis
Encoding: 168 168 141
Width: 683
Flags: W
LayerCount: 2
Fore
SplineSet
610 1086 m 256,0,1
 610 1120 610 1120 634.5 1145 c 128,-1,2
 659 1170 659 1170 694 1170 c 256,3,4
 729 1170 729 1170 753.5 1145 c 128,-1,5
 778 1120 778 1120 778 1086 c 0,6,7
 778 1051 778 1051 753.5 1026 c 128,-1,8
 729 1001 729 1001 694 1001 c 0,9,10
 658 1001 658 1001 634 1026.5 c 128,-1,11
 610 1052 610 1052 610 1086 c 256,0,1
260 1086 m 256,12,13
 260 1120 260 1120 285 1145 c 128,-1,14
 310 1170 310 1170 344 1170 c 0,15,16
 379 1170 379 1170 404 1145.5 c 128,-1,17
 429 1121 429 1121 429 1086 c 0,18,19
 429 1050 429 1050 404 1025.5 c 128,-1,20
 379 1001 379 1001 344 1001 c 256,21,22
 309 1001 309 1001 284.5 1026.5 c 128,-1,23
 260 1052 260 1052 260 1086 c 256,12,13
EndSplineSet
Substitution2: "<39,1> ????? lookup 11 subtable" dieresis
Substitution2: "<21,0> Lower Case Numbers lookup 8 subtable" dieresis
Substitution2: "<21,1> Upper Case Numbers lookup 7 subtable" dieresis
EndChar

StartChar: AE
Encoding: 198 198 142
Width: 1899
Flags: W
LayerCount: 2
Fore
SplineSet
986 680 m 1,0,-1
 647 680 l 1,1,-1
 352 296 l 2,2,3
 293 219 293 219 279.5 194 c 128,-1,4
 266 169 266 169 266 142 c 0,5,6
 266 53 266 53 420 46 c 1,7,-1
 407 0 l 1,8,-1
 -34 0 l 1,9,-1
 -34 46 l 1,10,11
 70 70 70 70 132.5 118.5 c 128,-1,12
 195 167 195 167 291 290 c 2,13,-1
 961 1150 l 2,14,15
 1008 1210 1008 1210 1016.5 1225 c 128,-1,16
 1025 1240 1025 1240 1025 1258 c 0,17,18
 1025 1289 1025 1289 997 1299.5 c 128,-1,19
 969 1310 969 1310 884 1310 c 2,20,-1
 854 1310 l 1,21,-1
 863 1356 l 1,22,-1
 1873 1356 l 1,23,-1
 1877 1050 l 1,24,-1
 1831 1050 l 1,25,26
 1814 1133 1814 1133 1768.5 1205 c 128,-1,27
 1723 1277 1723 1277 1687.5 1293.5 c 128,-1,28
 1652 1310 1652 1310 1578 1310 c 2,29,-1
 1358 1310 l 1,30,-1
 1179 726 l 1,31,-1
 1250 726 l 2,32,33
 1381 726 1381 726 1451 770 c 128,-1,34
 1521 814 1521 814 1580 949 c 1,35,-1
 1624 949 l 1,36,-1
 1462 416 l 1,37,-1
 1419 416 l 1,38,39
 1428 467 1428 467 1428 527 c 0,40,41
 1428 595 1428 595 1407.5 630 c 128,-1,42
 1387 665 1387 665 1358 672.5 c 128,-1,43
 1329 680 1329 680 1256 680 c 2,44,-1
 1165 680 l 1,45,-1
 1035 256 l 2,46,47
 1008 169 1008 169 1008 145 c 0,48,49
 1008 46 1008 46 1188 46 c 2,50,-1
 1264 46 l 2,51,52
 1583 46 1583 46 1703 337 c 1,53,-1
 1747 337 l 1,54,-1
 1644 0 l 1,55,-1
 589 0 l 1,56,-1
 603 46 l 1,57,-1
 630 46 l 2,58,59
 693 46 693 46 737.5 67.5 c 128,-1,60
 782 89 782 89 801 120.5 c 128,-1,61
 820 152 820 152 853 258 c 2,62,-1
 986 680 l 1,0,-1
1000 726 m 1,63,-1
 1178 1310 l 1,64,-1
 1142 1310 l 1,65,-1
 683 726 l 1,66,-1
 1000 726 l 1,63,-1
EndSplineSet
Substitution2: "<39,1> ????? lookup 11 subtable" AE
Substitution2: "<21,0> Lower Case Numbers lookup 8 subtable" AE
Substitution2: "<21,1> Upper Case Numbers lookup 7 subtable" AE
EndChar

StartChar: Oslash
Encoding: 216 216 143
Width: 1344
Flags: W
LayerCount: 2
Fore
SplineSet
287 146 m 1,0,1
 181 287 181 287 181 507 c 0,2,3
 181 718 181 718 301.5 939.5 c 128,-1,4
 422 1161 422 1161 589.5 1270.5 c 128,-1,5
 757 1380 757 1380 907 1380 c 0,6,7
 1091 1380 1091 1380 1214 1238 c 1,8,-1
 1330 1375 l 1,9,-1
 1365 1346 l 1,10,-1
 1242 1201 l 1,11,12
 1340 1050 1340 1050 1340 847 c 0,13,14
 1340 638 1340 638 1238.5 434.5 c 128,-1,15
 1137 231 1137 231 973 103.5 c 128,-1,16
 809 -24 809 -24 636 -24 c 0,17,18
 444 -24 444 -24 315 113 c 1,19,-1
 194 -29 l 1,20,-1
 161 -2 l 1,21,-1
 287 146 l 1,0,1
374 248 m 1,22,-1
 1144 1155 l 1,23,24
 1076 1333 1076 1333 904 1333 c 0,25,26
 769 1333 769 1333 647.5 1205.5 c 128,-1,27
 526 1078 526 1078 443.5 839.5 c 128,-1,28
 361 601 361 601 361 401 c 0,29,30
 361 313 361 313 374 248 c 1,22,-1
1159 1104 m 1,31,-1
 388 198 l 1,32,33
 415 118 415 118 481 69 c 128,-1,34
 547 20 547 20 632 20 c 0,35,36
 759 20 759 20 879.5 143 c 128,-1,37
 1000 266 1000 266 1086 522 c 128,-1,38
 1172 778 1172 778 1172 974 c 0,39,40
 1172 1038 1172 1038 1159 1104 c 1,31,-1
EndSplineSet
Substitution2: "<39,1> ????? lookup 11 subtable" Oslash
Substitution2: "<21,0> Lower Case Numbers lookup 8 subtable" Oslash
Substitution2: "<21,1> Upper Case Numbers lookup 7 subtable" Oslash
EndChar

StartChar: plusminus
Encoding: 177 177 144
Width: 1365
Flags: W
LayerCount: 2
Fore
SplineSet
201 835 m 1,0,-1
 686 835 l 1,1,-1
 686 1323 l 1,2,-1
 794 1323 l 1,3,-1
 794 835 l 1,4,-1
 1283 835 l 1,5,-1
 1283 727 l 1,6,-1
 794 727 l 1,7,-1
 794 242 l 1,8,-1
 686 242 l 1,9,-1
 686 727 l 1,10,-1
 201 727 l 1,11,-1
 201 835 l 1,0,-1
201 108 m 1,12,-1
 1283 108 l 1,13,-1
 1283 0 l 1,14,-1
 201 0 l 1,15,-1
 201 108 l 1,12,-1
EndSplineSet
Substitution2: "<39,1> ????? lookup 11 subtable" plusminus
Substitution2: "<21,0> Lower Case Numbers lookup 8 subtable" plusminus
Substitution2: "<21,1> Upper Case Numbers lookup 7 subtable" plusminus
EndChar

StartChar: yen
Encoding: 165 165 145
Width: 1024
Flags: W
LayerCount: 2
Fore
SplineSet
618 597 m 1,0,-1
 1043 597 l 1,1,-1
 1026 538 l 1,2,-1
 599 538 l 1,3,4
 558 411 558 411 533 319 c 1,5,-1
 967 319 l 1,6,-1
 950 261 l 1,7,-1
 518 261 l 1,8,9
 492 168 492 168 492 142 c 0,10,11
 492 93 492 93 527.5 69.5 c 128,-1,12
 563 46 563 46 618 46 c 2,13,-1
 671 46 l 1,14,-1
 658 0 l 1,15,-1
 93 0 l 1,16,-1
 106 46 l 1,17,-1
 160 46 l 2,18,19
 211 46 211 46 251.5 65 c 128,-1,20
 292 84 292 84 312.5 119 c 128,-1,21
 333 154 333 154 360 261 c 1,22,-1
 -20 261 l 1,23,-1
 -4 319 l 1,24,-1
 376 319 l 1,25,26
 399 410 399 410 426 538 c 1,27,-1
 56 538 l 1,28,-1
 72 597 l 1,29,-1
 438 597 l 1,30,31
 489 865 489 865 489 1051 c 0,32,33
 489 1172 489 1172 473.5 1232 c 128,-1,34
 458 1292 458 1292 426 1292 c 0,35,36
 381 1292 381 1292 312.5 1171 c 128,-1,37
 244 1050 244 1050 214 951 c 1,38,-1
 173 951 l 1,39,40
 240 1146 240 1146 324 1263 c 128,-1,41
 408 1380 408 1380 484 1380 c 0,42,43
 544 1380 544 1380 587 1296.5 c 128,-1,44
 630 1213 630 1213 630 1063 c 0,45,46
 630 870 630 870 576 597 c 1,47,48
 714 943 714 943 858.5 1161.5 c 128,-1,49
 1003 1380 1003 1380 1116 1380 c 0,50,51
 1169 1380 1169 1380 1203 1347 c 128,-1,52
 1237 1314 1237 1314 1237 1264 c 0,53,54
 1237 1233 1237 1233 1220 1209.5 c 128,-1,55
 1203 1186 1203 1186 1178 1186 c 0,56,57
 1122 1186 1122 1186 1122 1271 c 0,58,59
 1122 1321 1122 1321 1081 1321 c 0,60,61
 1020 1321 1020 1321 892.5 1141.5 c 128,-1,62
 765 962 765 962 618 597 c 1,0,-1
EndSplineSet
Substitution2: "<39,1> ????? lookup 11 subtable" yen
Substitution2: "<21,0> Lower Case Numbers lookup 8 subtable" yen
Substitution2: "<21,1> Upper Case Numbers lookup 7 subtable" yen
EndChar

StartChar: mu
Encoding: 181 181 146
Width: 1024
Flags: W
LayerCount: 2
Fore
SplineSet
-8 -429 m 0,0,1
 -8 -408 -8 -408 -3 -379.5 c 128,-1,2
 2 -351 2 -351 17 -305 c 2,3,-1
 328 656 l 2,4,5
 341 696 341 696 348 720 c 128,-1,6
 355 744 355 744 355 752 c 0,7,8
 355 778 355 778 329 778 c 0,9,10
 266 778 266 778 191 609 c 1,11,-1
 143 609 l 1,12,13
 163 661 163 661 190 704.5 c 128,-1,14
 217 748 217 748 248 779.5 c 128,-1,15
 279 811 279 811 311.5 829 c 128,-1,16
 344 847 344 847 376 847 c 0,17,18
 415 847 415 847 442.5 822.5 c 128,-1,19
 470 798 470 798 470 749 c 0,20,21
 470 712 470 712 435 609 c 2,22,-1
 309 239 l 2,23,24
 290 185 290 185 281.5 149.5 c 128,-1,25
 273 114 273 114 273 97 c 0,26,27
 273 66 273 66 288.5 50 c 128,-1,28
 304 34 304 34 342 34 c 0,29,30
 381 34 381 34 431.5 81.5 c 128,-1,31
 482 129 482 129 539 222.5 c 128,-1,32
 596 316 596 316 655 455 c 128,-1,33
 714 594 714 594 769 777 c 2,34,-1
 786 834 l 1,35,-1
 906 834 l 1,36,-1
 731 260 l 2,37,38
 689 120 689 120 689 91 c 0,39,40
 689 41 689 41 729 41 c 0,41,42
 805 41 805 41 873 206 c 1,43,-1
 915 206 l 1,44,45
 829 -28 829 -28 685 -28 c 0,46,47
 587 -28 587 -28 587 80 c 0,48,49
 587 156 587 156 641 323 c 1,50,51
 553 146 553 146 470 59 c 128,-1,52
 387 -28 387 -28 319 -28 c 0,53,54
 279 -28 279 -28 248.5 -9.5 c 128,-1,55
 218 9 218 9 213 54 c 1,56,57
 189 -17 189 -17 176.5 -82.5 c 128,-1,58
 164 -148 164 -148 157.5 -205.5 c 128,-1,59
 151 -263 151 -263 149 -311 c 128,-1,60
 147 -359 147 -359 144 -396 c 0,61,62
 140 -441 140 -441 117 -464 c 128,-1,63
 94 -487 94 -487 58 -487 c 0,64,65
 26 -487 26 -487 9 -473.5 c 128,-1,66
 -8 -460 -8 -460 -8 -429 c 0,0,1
EndSplineSet
Substitution2: "<39,1> ????? lookup 11 subtable" mu
Substitution2: "<21,0> Lower Case Numbers lookup 8 subtable" mu
Substitution2: "<21,1> Upper Case Numbers lookup 7 subtable" mu
EndChar

StartChar: ordfeminine
Encoding: 170 170 147
Width: 555
Flags: W
LayerCount: 2
Fore
SplineSet
667 1374 m 1,0,-1
 745 1374 l 1,1,-1
 629 1022 l 2,2,3
 604 946 604 946 604 930 c 0,4,5
 604 918 604 918 610 912 c 128,-1,6
 616 906 616 906 628 906 c 0,7,8
 672 906 672 906 731 1000 c 1,9,-1
 758 1000 l 1,10,11
 732 946 732 946 685 902 c 128,-1,12
 638 858 638 858 599 858 c 0,13,14
 567 858 567 858 551 876 c 128,-1,15
 535 894 535 894 535 930 c 0,16,17
 535 955 535 955 548 995 c 1,18,19
 455 858 455 858 359 858 c 0,20,21
 319 858 319 858 283.5 890.5 c 128,-1,22
 248 923 248 923 248 989 c 0,23,24
 248 1125 248 1125 362 1254 c 128,-1,25
 476 1383 476 1383 570 1383 c 0,26,27
 604 1383 604 1383 624 1368 c 128,-1,28
 644 1353 644 1353 650 1323 c 1,29,-1
 667 1374 l 1,0,-1
327 972 m 0,30,31
 327 932 327 932 340 912 c 128,-1,32
 353 892 353 892 378 892 c 0,33,34
 424 892 424 892 484 953 c 128,-1,35
 544 1014 544 1014 587 1131.5 c 128,-1,36
 630 1249 630 1249 630 1292 c 0,37,38
 630 1322 630 1322 616.5 1337 c 128,-1,39
 603 1352 603 1352 576 1352 c 0,40,41
 497 1352 497 1352 412 1207.5 c 128,-1,42
 327 1063 327 1063 327 972 c 0,30,31
EndSplineSet
Substitution2: "<39,1> ????? lookup 11 subtable" ordfeminine
Substitution2: "<21,0> Lower Case Numbers lookup 8 subtable" ordfeminine
Substitution2: "<21,1> Upper Case Numbers lookup 7 subtable" ordfeminine
EndChar

StartChar: ordmasculine
Encoding: 186 186 148
Width: 491
Flags: W
LayerCount: 2
Fore
SplineSet
266 1033 m 0,0,1
 266 1163 266 1163 352 1271.5 c 128,-1,2
 438 1380 438 1380 538 1380 c 0,3,4
 595 1380 595 1380 632.5 1335.5 c 128,-1,5
 670 1291 670 1291 670 1212 c 0,6,7
 670 1120 670 1120 627.5 1032.5 c 128,-1,8
 585 945 585 945 520.5 903 c 128,-1,9
 456 861 456 861 401 861 c 0,10,11
 334 861 334 861 300 904 c 128,-1,12
 266 947 266 947 266 1033 c 0,0,1
335 964 m 0,13,14
 335 925 335 925 352.5 905.5 c 128,-1,15
 370 886 370 886 404 886 c 0,16,17
 492 886 492 886 548 1038.5 c 128,-1,18
 604 1191 604 1191 604 1271 c 0,19,20
 604 1313 604 1313 586.5 1333.5 c 128,-1,21
 569 1354 569 1354 534 1354 c 0,22,23
 453 1354 453 1354 394 1212 c 128,-1,24
 335 1070 335 1070 335 964 c 0,13,14
EndSplineSet
Substitution2: "<39,1> ????? lookup 11 subtable" ordmasculine
Substitution2: "<21,0> Lower Case Numbers lookup 8 subtable" ordmasculine
Substitution2: "<21,1> Upper Case Numbers lookup 7 subtable" ordmasculine
EndChar

StartChar: ae
Encoding: 230 230 149
Width: 939
Flags: W
LayerCount: 2
Fore
SplineSet
824 252 m 1,0,-1
 865 252 l 1,1,2
 749 -28 749 -28 548 -28 c 0,3,4
 468 -28 468 -28 426 15 c 128,-1,5
 384 58 384 58 380 143 c 1,6,7
 335 62 335 62 271 17 c 128,-1,8
 207 -28 207 -28 152 -28 c 0,9,10
 99 -28 99 -28 60.5 9 c 128,-1,11
 22 46 22 46 22 127 c 0,12,13
 22 285 22 285 161 461.5 c 128,-1,14
 300 638 300 638 495 743 c 128,-1,15
 690 848 690 848 807 848 c 0,16,17
 872 848 872 848 906.5 808.5 c 128,-1,18
 941 769 941 769 941 713 c 0,19,20
 941 611 941 611 820.5 501.5 c 128,-1,21
 700 392 700 392 515 336 c 1,22,23
 490 259 490 259 490 168 c 0,24,25
 490 96 490 96 512.5 60 c 128,-1,26
 535 24 535 24 580 24 c 0,27,28
 640 24 640 24 710.5 89.5 c 128,-1,29
 781 155 781 155 824 252 c 1,0,-1
527 380 m 1,30,31
 704 435 704 435 782 545.5 c 128,-1,32
 860 656 860 656 860 738 c 0,33,34
 860 769 860 769 842 789 c 128,-1,35
 824 809 824 809 797 809 c 0,36,37
 731 809 731 809 654.5 693.5 c 128,-1,38
 578 578 578 578 527 380 c 1,30,31
680 785 m 1,39,40
 423 687 423 687 282.5 469 c 128,-1,41
 142 251 142 251 142 122 c 0,42,43
 142 81 142 81 156.5 60.5 c 128,-1,44
 171 40 171 40 199 40 c 0,45,46
 245 40 245 40 291.5 88 c 128,-1,47
 338 136 338 136 385 231 c 1,48,49
 433 424 433 424 521 576 c 128,-1,50
 609 728 609 728 680 785 c 1,39,40
EndSplineSet
Substitution2: "<39,1> ????? lookup 11 subtable" ae
Substitution2: "<21,0> Lower Case Numbers lookup 8 subtable" ae
Substitution2: "<21,1> Upper Case Numbers lookup 7 subtable" ae
EndChar

StartChar: oslash
Encoding: 248 248 150
Width: 747
Flags: W
LayerCount: 2
Fore
SplineSet
91 98 m 1,0,1
 63 165 63 165 63 256 c 0,2,3
 63 383 63 383 119 525.5 c 128,-1,4
 175 668 175 668 279.5 755 c 128,-1,5
 384 842 384 842 481 842 c 0,6,7
 581 842 581 842 641 747 c 1,8,-1
 738 861 l 1,9,-1
 738 791 l 1,10,-1
 663 703 l 1,11,12
 685 648 685 648 685 562 c 0,13,14
 685 406 685 406 620.5 265.5 c 128,-1,15
 556 125 556 125 459.5 51 c 128,-1,16
 363 -23 363 -23 270 -23 c 0,17,18
 169 -23 169 -23 113 58 c 1,19,-1
 26 -44 l 1,20,-1
 25 20 l 1,21,-1
 91 98 l 1,0,1
170 192 m 1,22,-1
 582 677 l 1,23,24
 576 798 576 798 475 798 c 0,25,26
 364 798 364 798 278 606.5 c 128,-1,27
 192 415 192 415 170 192 c 1,22,-1
577 602 m 1,28,-1
 171 126 l 1,29,30
 186 18 186 18 275 18 c 0,31,32
 378 18 378 18 456 176.5 c 128,-1,33
 534 335 534 335 577 602 c 1,28,-1
EndSplineSet
Substitution2: "<39,1> ????? lookup 11 subtable" oslash
Substitution2: "<21,0> Lower Case Numbers lookup 8 subtable" oslash
Substitution2: "<21,1> Upper Case Numbers lookup 7 subtable" oslash
EndChar

StartChar: questiondown
Encoding: 191 191 151
Width: 704
Flags: W
LayerCount: 2
Fore
SplineSet
429 797 m 256,0,1
 429 840 429 840 460 871 c 128,-1,2
 491 902 491 902 534 902 c 0,3,4
 578 902 578 902 609 871 c 128,-1,5
 640 840 640 840 640 797 c 0,6,7
 640 753 640 753 608.5 722 c 128,-1,8
 577 691 577 691 534 691 c 0,9,10
 489 691 489 691 459 722.5 c 128,-1,11
 429 754 429 754 429 797 c 256,0,1
431 483 m 1,12,-1
 477 483 l 1,13,-1
 366 114 l 1,14,-1
 335 114 l 1,15,16
 329 195 329 195 272 195 c 0,17,18
 194 195 194 195 130.5 44 c 128,-1,19
 67 -107 67 -107 67 -273 c 0,20,21
 67 -361 67 -361 108.5 -403.5 c 128,-1,22
 150 -446 150 -446 202 -446 c 0,23,24
 248 -446 248 -446 283 -398 c 0,25,26
 325 -341 325 -341 360 -341 c 0,27,28
 409 -341 409 -341 409 -388 c 0,29,30
 409 -432 409 -432 353 -463.5 c 128,-1,31
 297 -495 297 -495 230 -495 c 0,32,33
 117 -495 117 -495 32.5 -396.5 c 128,-1,34
 -52 -298 -52 -298 -52 -157 c 0,35,36
 -52 8 -52 8 40 124.5 c 128,-1,37
 132 241 132 241 255 241 c 0,38,39
 304 241 304 241 352 220 c 1,40,-1
 431 483 l 1,12,-1
EndSplineSet
Substitution2: "<39,1> ????? lookup 11 subtable" questiondown
Substitution2: "<21,0> Lower Case Numbers lookup 8 subtable" questiondown
Substitution2: "<21,1> Upper Case Numbers lookup 7 subtable" questiondown
EndChar

StartChar: exclamdown
Encoding: 161 161 152
Width: 491
Flags: W
LayerCount: 2
Fore
SplineSet
261 797 m 256,0,1
 261 840 261 840 292 871 c 128,-1,2
 323 902 323 902 367 902 c 0,3,4
 410 902 410 902 441 871.5 c 128,-1,5
 472 841 472 841 472 797 c 256,6,7
 472 753 472 753 441 722 c 128,-1,8
 410 691 410 691 367 691 c 0,9,10
 322 691 322 691 291.5 722.5 c 128,-1,11
 261 754 261 754 261 797 c 256,0,1
248 480 m 1,12,-1
 294 480 l 1,13,-1
 104 -274 l 2,14,15
 64 -436 64 -436 33.5 -465.5 c 128,-1,16
 3 -495 3 -495 -28 -495 c 0,17,18
 -57 -495 -57 -495 -76.5 -474.5 c 128,-1,19
 -96 -454 -96 -454 -96 -421 c 0,20,21
 -96 -385 -96 -385 -56 -285 c 2,22,-1
 248 480 l 1,12,-1
EndSplineSet
Substitution2: "<39,1> ????? lookup 11 subtable" exclamdown
Substitution2: "<21,0> Lower Case Numbers lookup 8 subtable" exclamdown
Substitution2: "<21,1> Upper Case Numbers lookup 7 subtable" exclamdown
EndChar

StartChar: logicalnot
Encoding: 172 172 153
Width: 1365
Flags: W
LayerCount: 2
Fore
SplineSet
201 955 m 1,0,-1
 1281 955 l 1,1,-1
 1281 360 l 1,2,-1
 1175 360 l 1,3,-1
 1175 847 l 1,4,-1
 201 847 l 1,5,-1
 201 955 l 1,0,-1
EndSplineSet
Substitution2: "<39,1> ????? lookup 11 subtable" logicalnot
Substitution2: "<21,0> Lower Case Numbers lookup 8 subtable" logicalnot
Substitution2: "<21,1> Upper Case Numbers lookup 7 subtable" logicalnot
EndChar

StartChar: guillemotleft
Encoding: 171 171 154
Width: 683
Flags: W
LayerCount: 2
Fore
SplineSet
184 68 m 1,0,-1
 138 68 l 1,1,-1
 -36 439 l 1,2,-1
 330 804 l 1,3,-1
 389 804 l 1,4,-1
 119 417 l 1,5,-1
 184 68 l 1,0,-1
588 68 m 1,6,-1
 542 68 l 1,7,-1
 368 439 l 1,8,-1
 734 804 l 1,9,-1
 793 804 l 1,10,-1
 524 417 l 1,11,-1
 588 68 l 1,6,-1
EndSplineSet
Substitution2: "<39,1> ????? lookup 11 subtable" guillemotleft
Substitution2: "<21,0> Lower Case Numbers lookup 8 subtable" guillemotleft
Substitution2: "<21,1> Upper Case Numbers lookup 7 subtable" guillemotleft
EndChar

StartChar: guillemotright
Encoding: 187 187 155
Width: 683
Flags: W
LayerCount: 2
Fore
SplineSet
515 804 m 1,0,-1
 561 804 l 1,1,-1
 735 432 l 1,2,-1
 369 68 l 1,3,-1
 310 68 l 1,4,-1
 579 454 l 1,5,-1
 515 804 l 1,0,-1
114 804 m 1,6,-1
 161 804 l 1,7,-1
 334 432 l 1,8,-1
 -32 68 l 1,9,-1
 -91 68 l 1,10,-1
 179 454 l 1,11,-1
 114 804 l 1,6,-1
EndSplineSet
Substitution2: "<39,1> ????? lookup 11 subtable" guillemotright
Substitution2: "<21,0> Lower Case Numbers lookup 8 subtable" guillemotright
Substitution2: "<21,1> Upper Case Numbers lookup 7 subtable" guillemotright
EndChar

StartChar: divide
Encoding: 247 247 160
Width: 1365
Flags: W
LayerCount: 2
Fore
SplineSet
666 1078 m 0,0,1
 666 1105 666 1105 687 1125 c 128,-1,2
 708 1145 708 1145 739 1145 c 0,3,4
 768 1145 768 1145 789 1124 c 128,-1,5
 810 1103 810 1103 810 1074 c 0,6,7
 810 1044 810 1044 789.5 1022.5 c 128,-1,8
 769 1001 769 1001 739 1001 c 256,9,10
 709 1001 709 1001 687.5 1023.5 c 128,-1,11
 666 1046 666 1046 666 1078 c 0,0,1
201 710 m 1,12,-1
 1281 710 l 1,13,-1
 1281 606 l 1,14,-1
 201 606 l 1,15,-1
 201 710 l 1,12,-1
812 250 m 256,16,17
 812 220 812 220 790.5 198.5 c 128,-1,18
 769 177 769 177 739 177 c 256,19,20
 709 177 709 177 687.5 198.5 c 128,-1,21
 666 220 666 220 666 250 c 0,22,23
 666 279 666 279 687.5 300.5 c 128,-1,24
 709 322 709 322 739 322 c 256,25,26
 769 322 769 322 790.5 301 c 128,-1,27
 812 280 812 280 812 250 c 256,16,17
EndSplineSet
Substitution2: "<39,1> ????? lookup 11 subtable" divide
Substitution2: "<21,0> Lower Case Numbers lookup 8 subtable" divide
Substitution2: "<21,1> Upper Case Numbers lookup 7 subtable" divide
EndChar

StartChar: periodcentered
Encoding: 183 183 162
Width: 683
Flags: W
LayerCount: 2
Fore
SplineSet
556 674 m 256,0,1
 556 708 556 708 580.5 733 c 128,-1,2
 605 758 605 758 640 758 c 0,3,4
 676 758 676 758 700.5 733 c 128,-1,5
 725 708 725 708 725 674 c 0,6,7
 725 639 725 639 700 614 c 128,-1,8
 675 589 675 589 640 589 c 256,9,10
 605 589 605 589 580.5 614.5 c 128,-1,11
 556 640 556 640 556 674 c 256,0,1
EndSplineSet
Substitution2: "<39,1> ????? lookup 11 subtable" periodcentered
Substitution2: "<21,0> Lower Case Numbers lookup 8 subtable" periodcentered
Substitution2: "<21,1> Upper Case Numbers lookup 7 subtable" periodcentered
EndChar

StartChar: macron
Encoding: 175 175 178
Width: 1024
Flags: W
LayerCount: 2
Fore
SplineSet
507 1612 m 1,0,-1
 1155 1612 l 1,1,-1
 1155 1510 l 1,2,-1
 507 1510 l 1,3,-1
 507 1612 l 1,0,-1
EndSplineSet
Substitution2: "<39,1> ????? lookup 11 subtable" macron
Substitution2: "<21,0> Lower Case Numbers lookup 8 subtable" macron
Substitution2: "<21,1> Upper Case Numbers lookup 7 subtable" macron
EndChar

StartChar: cedilla
Encoding: 184 184 179
Width: 683
Flags: W
LayerCount: 2
Fore
SplineSet
-28 -485 m 1,0,-1
 -16 -445 l 1,1,2
 9 -447 9 -447 25 -447 c 0,3,4
 154 -447 154 -447 224 -403.5 c 128,-1,5
 294 -360 294 -360 294 -303 c 0,6,7
 294 -216 294 -216 157 -204 c 1,8,-1
 293 15 l 1,9,-1
 345 15 l 1,10,-1
 265 -112 l 1,11,12
 338 -122 338 -122 382.5 -165 c 128,-1,13
 427 -208 427 -208 427 -269 c 0,14,15
 427 -369 427 -369 327.5 -429.5 c 128,-1,16
 228 -490 228 -490 56 -490 c 0,17,18
 17 -490 17 -490 -28 -485 c 1,0,-1
EndSplineSet
Substitution2: "<39,1> ????? lookup 11 subtable" cedilla
Substitution2: "<21,0> Lower Case Numbers lookup 8 subtable" cedilla
Substitution2: "<21,1> Upper Case Numbers lookup 7 subtable" cedilla
EndChar

StartChar: currency
Encoding: 164 164 180
Width: 1365
Flags: W
LayerCount: 2
Fore
SplineSet
264 1060 m 1,0,-1
 338 1135 l 1,1,-1
 466 1009 l 1,2,3
 526 1057 526 1057 595 1081 c 128,-1,4
 664 1105 664 1105 741 1105 c 0,5,6
 895 1105 895 1105 1019 1009 c 1,7,-1
 1146 1135 l 1,8,-1
 1219 1060 l 1,9,-1
 1093 934 l 1,10,11
 1190 806 1190 806 1190 649 c 0,12,13
 1190 500 1190 500 1093 381 c 1,14,-1
 1219 255 l 1,15,-1
 1146 181 l 1,16,-1
 1019 307 l 1,17,18
 957 259 957 259 887.5 234.5 c 128,-1,19
 818 210 818 210 741 210 c 0,20,21
 582 210 582 210 466 307 c 1,22,-1
 339 181 l 1,23,-1
 264 255 l 1,24,-1
 392 381 l 1,25,26
 296 521 296 521 296 665 c 256,27,28
 296 809 296 809 392 934 c 1,29,-1
 264 1060 l 1,0,-1
1084 657 m 0,30,31
 1084 797 1084 797 984 897.5 c 128,-1,32
 884 998 884 998 743 998 c 0,33,34
 603 998 603 998 502.5 897.5 c 128,-1,35
 402 797 402 797 402 657 c 0,36,37
 402 515 402 515 502 415.5 c 128,-1,38
 602 316 602 316 743 316 c 256,39,40
 884 316 884 316 984 416 c 128,-1,41
 1084 516 1084 516 1084 657 c 0,30,31
EndSplineSet
Substitution2: "<39,1> ????? lookup 11 subtable" currency
Substitution2: "<21,0> Lower Case Numbers lookup 8 subtable" currency
Substitution2: "<21,1> Upper Case Numbers lookup 7 subtable" currency
EndChar

StartChar: brokenbar
Encoding: 166 166 181
Width: 1045
Flags: W
LayerCount: 2
Fore
SplineSet
551 1375 m 1,0,-1
 660 1375 l 1,1,-1
 660 654 l 1,2,-1
 551 654 l 1,3,-1
 551 1375 l 1,0,-1
551 235 m 1,4,-1
 660 235 l 1,5,-1
 660 -487 l 1,6,-1
 551 -487 l 1,7,-1
 551 235 l 1,4,-1
EndSplineSet
Substitution2: "<39,1> ????? lookup 11 subtable" brokenbar
Substitution2: "<21,0> Lower Case Numbers lookup 8 subtable" brokenbar
Substitution2: "<21,1> Upper Case Numbers lookup 7 subtable" brokenbar
EndChar

StartChar: Eth
Encoding: 208 208 182
Width: 1387
Flags: W
LayerCount: 2
Fore
SplineSet
329 655 m 1,0,-1
 122 655 l 1,1,-1
 136 701 l 1,2,-1
 342 701 l 1,3,-1
 468 1113 l 2,4,5
 498 1213 498 1213 498 1239 c 0,6,7
 498 1310 498 1310 369 1310 c 2,8,-1
 317 1310 l 1,9,-1
 331 1356 l 1,10,-1
 429 1356 l 2,11,12
 514 1356 514 1356 636 1360 c 0,13,14
 752 1365 752 1365 799 1365 c 0,15,16
 994 1365 994 1365 1129.5 1292 c 128,-1,17
 1265 1219 1265 1219 1331.5 1077.5 c 128,-1,18
 1398 936 1398 936 1398 777 c 0,19,20
 1398 634 1398 634 1340.5 486 c 128,-1,21
 1283 338 1283 338 1182 231.5 c 128,-1,22
 1081 125 1081 125 965 73.5 c 128,-1,23
 849 22 849 22 751.5 11 c 128,-1,24
 654 0 654 0 470 0 c 2,25,-1
 -75 0 l 1,26,-1
 -61 46 l 1,27,-1
 -3 46 l 2,28,29
 59 46 59 46 101.5 68.5 c 128,-1,30
 144 91 144 91 160 120.5 c 128,-1,31
 176 150 176 150 206 250 c 2,32,-1
 329 655 l 1,0,-1
509 655 m 1,33,-1
 387 256 l 2,34,35
 359 163 359 163 359 139 c 0,36,37
 359 43 359 43 564 43 c 0,38,39
 868 43 868 43 1040 291.5 c 128,-1,40
 1212 540 1212 540 1212 839 c 0,41,42
 1212 1053 1212 1053 1107 1188 c 128,-1,43
 1002 1323 1002 1323 788 1323 c 0,44,45
 755 1323 755 1323 710 1318 c 1,46,-1
 522 701 l 1,47,-1
 844 701 l 1,48,-1
 831 655 l 1,49,-1
 509 655 l 1,33,-1
EndSplineSet
Substitution2: "<39,1> ????? lookup 11 subtable" Eth
Substitution2: "<21,0> Lower Case Numbers lookup 8 subtable" Eth
Substitution2: "<21,1> Upper Case Numbers lookup 7 subtable" Eth
EndChar

StartChar: eth
Encoding: 240 240 183
Width: 789
Flags: W
LayerCount: 2
Fore
SplineSet
381 1285 m 1,0,-1
 464 1346 l 1,1,2
 527 1275 527 1275 579 1193 c 1,3,-1
 743 1280 l 1,4,-1
 768 1231 l 1,5,-1
 606 1144 l 1,6,7
 704 918 704 918 704 679 c 0,8,9
 704 344 704 344 567 156.5 c 128,-1,10
 430 -31 430 -31 271 -31 c 0,11,12
 182 -31 182 -31 122 41.5 c 128,-1,13
 62 114 62 114 62 246 c 0,14,15
 62 468 62 468 195 656.5 c 128,-1,16
 328 845 328 845 485 845 c 0,17,18
 507 845 507 845 530.5 840 c 128,-1,19
 554 835 554 835 579 824 c 1,20,21
 548 995 548 995 499 1091 c 1,22,-1
 267 969 l 1,23,-1
 243 1017 l 1,24,-1
 476 1139 l 1,25,26
 434 1214 434 1214 381 1285 c 1,0,-1
175 153 m 0,27,28
 175 83 175 83 201.5 47.5 c 128,-1,29
 228 12 228 12 281 12 c 0,30,31
 341 12 341 12 396 74 c 128,-1,32
 451 136 451 136 519 329 c 128,-1,33
 587 522 587 522 587 668 c 0,34,35
 587 734 587 734 561.5 767 c 128,-1,36
 536 800 536 800 484 800 c 0,37,38
 426 800 426 800 370 749 c 128,-1,39
 314 698 314 698 244.5 494.5 c 128,-1,40
 175 291 175 291 175 153 c 0,27,28
EndSplineSet
Substitution2: "<39,1> ????? lookup 11 subtable" eth
Substitution2: "<21,0> Lower Case Numbers lookup 8 subtable" eth
Substitution2: "<21,1> Upper Case Numbers lookup 7 subtable" eth
EndChar

StartChar: Thorn
Encoding: 222 222 186
Width: 1109
Flags: W
LayerCount: 2
Fore
SplineSet
904 1356 m 1,0,-1
 890 1310 l 1,1,-1
 859 1310 l 2,2,3
 722 1310 722 1310 681 1189 c 1,4,-1
 632 1027 l 1,5,6
 815 1027 815 1027 917 1002.5 c 128,-1,7
 1019 978 1019 978 1089.5 894.5 c 128,-1,8
 1160 811 1160 811 1160 705 c 0,9,10
 1160 561 1160 561 1034.5 445 c 128,-1,11
 909 329 909 329 518 329 c 2,12,-1
 420 329 l 1,13,-1
 401 260 l 2,14,15
 372 157 372 157 372 141 c 0,16,17
 372 93 372 93 411 69.5 c 128,-1,18
 450 46 450 46 511 46 c 2,19,-1
 543 46 l 1,20,-1
 529 0 l 1,21,-1
 -10 0 l 1,22,-1
 4 46 l 1,23,24
 67 46 67 46 110 68 c 128,-1,25
 153 90 153 90 168.5 120 c 128,-1,26
 184 150 184 150 214 250 c 2,27,-1
 476 1113 l 2,28,29
 507 1213 507 1213 507 1239 c 0,30,31
 507 1310 507 1310 377 1310 c 2,32,-1
 331 1310 l 1,33,-1
 345 1356 l 1,34,-1
 904 1356 l 1,0,-1
434 375 m 1,35,-1
 493 375 l 2,36,37
 643 375 643 375 739 402 c 128,-1,38
 835 429 835 429 904.5 527.5 c 128,-1,39
 974 626 974 626 974 743 c 0,40,41
 974 835 974 835 932 893.5 c 128,-1,42
 890 952 890 952 834 966.5 c 128,-1,43
 778 981 778 981 665 981 c 2,44,-1
 617 981 l 1,45,-1
 434 375 l 1,35,-1
EndSplineSet
Substitution2: "<39,1> ????? lookup 11 subtable" Thorn
Substitution2: "<21,0> Lower Case Numbers lookup 8 subtable" Thorn
Substitution2: "<21,1> Upper Case Numbers lookup 7 subtable" Thorn
EndChar

StartChar: thorn
Encoding: 254 254 187
Width: 853
Flags: W
LayerCount: 2
Fore
SplineSet
326 1297 m 1,0,-1
 338 1339 l 1,1,2
 497 1343 497 1343 573 1375 c 1,3,-1
 598 1375 l 1,4,-1
 384 677 l 1,5,6
 511 847 511 847 626 847 c 0,7,8
 700 847 700 847 752 778.5 c 128,-1,9
 804 710 804 710 804 607 c 0,10,11
 804 486 804 486 742 330 c 128,-1,12
 680 174 680 174 566.5 73 c 128,-1,13
 453 -28 453 -28 340 -28 c 0,14,15
 232 -28 232 -28 203 74 c 1,16,-1
 86 -313 l 2,17,18
 64 -385 64 -385 64 -401 c 0,19,20
 64 -418 64 -418 78.5 -430 c 128,-1,21
 93 -442 93 -442 163 -442 c 2,22,-1
 208 -442 l 1,23,-1
 194 -486 l 1,24,-1
 -224 -486 l 1,25,-1
 -210 -442 l 1,26,-1
 -188 -442 l 2,27,28
 -101 -442 -101 -442 -83.5 -430 c 128,-1,29
 -66 -418 -66 -418 -31 -305 c 2,30,-1
 409 1147 l 2,31,32
 437 1238 437 1238 437 1254 c 0,33,34
 437 1277 437 1277 424 1287 c 128,-1,35
 411 1297 411 1297 358 1297 c 2,36,-1
 326 1297 l 1,0,-1
259 259 m 2,37,38
 232 170 232 170 232 131 c 0,39,40
 232 82 232 82 259 48 c 128,-1,41
 286 14 286 14 335 14 c 0,42,43
 408 14 408 14 484.5 97.5 c 128,-1,44
 561 181 561 181 624.5 375.5 c 128,-1,45
 688 570 688 570 688 668 c 0,46,47
 688 732 688 732 668 764 c 128,-1,48
 648 796 648 796 608 796 c 0,49,50
 554 796 554 796 464.5 717 c 128,-1,51
 375 638 375 638 299 390 c 2,52,-1
 259 259 l 2,37,38
EndSplineSet
Substitution2: "<39,1> ????? lookup 11 subtable" thorn
Substitution2: "<21,0> Lower Case Numbers lookup 8 subtable" thorn
Substitution2: "<21,1> Upper Case Numbers lookup 7 subtable" thorn
EndChar

StartChar: multiply
Encoding: 215 215 188
Width: 1365
Flags: W
LayerCount: 2
Fore
SplineSet
264 1073 m 1,0,-1
 339 1150 l 1,1,-1
 757 731 l 1,2,-1
 1175 1150 l 1,3,-1
 1250 1073 l 1,4,-1
 833 655 l 1,5,-1
 1246 241 l 1,6,-1
 1170 165 l 1,7,-1
 757 579 l 1,8,-1
 341 165 l 1,9,-1
 265 241 l 1,10,-1
 681 655 l 1,11,-1
 264 1073 l 1,0,-1
EndSplineSet
Substitution2: "<39,1> ????? lookup 11 subtable" multiply
Substitution2: "<21,0> Lower Case Numbers lookup 8 subtable" multiply
Substitution2: "<21,1> Upper Case Numbers lookup 7 subtable" multiply
EndChar

StartChar: onesuperior
Encoding: 185 185 189
Width: 619
Flags: W
LayerCount: 2
Fore
SplineSet
582 1346 m 1,0,-1
 637 1346 l 1,1,-1
 423 738 l 2,2,3
 411 703 411 703 411 695 c 0,4,5
 411 683 411 683 458 683 c 2,6,-1
 513 683 l 1,7,-1
 500 647 l 1,8,-1
 183 647 l 1,9,-1
 196 683 l 1,10,-1
 239 683 l 2,11,12
 285 683 285 683 292 686 c 128,-1,13
 299 689 299 689 321 750 c 2,14,-1
 470 1176 l 2,15,16
 485 1218 485 1218 485 1228 c 0,17,18
 485 1254 485 1254 422 1256 c 2,19,-1
 373 1258 l 1,20,-1
 385 1292 l 1,21,22
 534 1292 534 1292 582 1346 c 1,0,-1
EndSplineSet
Substitution2: "<39,1> ????? lookup 11 subtable" onesuperior
Substitution2: "<21,0> Lower Case Numbers lookup 8 subtable" onesuperior
Substitution2: "<21,1> Upper Case Numbers lookup 7 subtable" onesuperior
EndChar

StartChar: twosuperior
Encoding: 178 178 190
Width: 619
Flags: W
LayerCount: 2
Fore
SplineSet
583 719 m 1,0,-1
 545 611 l 1,1,-1
 504 611 l 1,2,-1
 505 623 l 2,3,4
 505 640 505 640 499.5 643.5 c 128,-1,5
 494 647 494 647 444 647 c 2,6,-1
 135 647 l 1,7,8
 135 681 135 681 142 692 c 128,-1,9
 149 703 149 703 183 729 c 0,10,11
 467 953 467 953 532 1042 c 128,-1,12
 597 1131 597 1131 597 1203 c 0,13,14
 597 1246 597 1246 566 1277 c 128,-1,15
 535 1308 535 1308 481 1308 c 0,16,17
 430 1308 430 1308 396 1282 c 128,-1,18
 362 1256 362 1256 362 1218 c 0,19,20
 362 1174 362 1174 394 1154 c 0,21,22
 401 1149 401 1149 401 1143 c 0,23,24
 401 1135 401 1135 373 1116 c 128,-1,25
 345 1097 345 1097 327 1097 c 0,26,27
 306 1097 306 1097 289 1121.5 c 128,-1,28
 272 1146 272 1146 272 1183 c 0,29,30
 272 1245 272 1245 335.5 1296 c 128,-1,31
 399 1347 399 1347 502 1347 c 0,32,33
 600 1347 600 1347 653 1303.5 c 128,-1,34
 706 1260 706 1260 706 1195 c 0,35,36
 706 1118 706 1118 642 1046 c 128,-1,37
 578 974 578 974 377 828 c 0,38,39
 334 798 334 798 275 750 c 2,40,-1
 237 719 l 1,41,-1
 583 719 l 1,0,-1
EndSplineSet
Substitution2: "<39,1> ????? lookup 11 subtable" twosuperior
Substitution2: "<21,0> Lower Case Numbers lookup 8 subtable" twosuperior
Substitution2: "<21,1> Upper Case Numbers lookup 7 subtable" twosuperior
EndChar

StartChar: threesuperior
Encoding: 179 179 191
Width: 619
Flags: W
LayerCount: 2
Fore
SplineSet
511 1040 m 1,0,1
 581 1029 581 1029 616 993 c 128,-1,2
 651 957 651 957 651 896 c 0,3,4
 651 795 651 795 555 712.5 c 128,-1,5
 459 630 459 630 331 630 c 0,6,7
 255 630 255 630 200.5 657.5 c 128,-1,8
 146 685 146 685 146 717 c 0,9,10
 146 760 146 760 195 760 c 0,11,12
 234 760 234 760 258 718 c 0,13,14
 288 665 288 665 337 665 c 0,15,16
 428 665 428 665 487 754.5 c 128,-1,17
 546 844 546 844 546 924 c 0,18,19
 546 966 546 966 528 987 c 128,-1,20
 510 1008 510 1008 474 1008 c 0,21,22
 442 1008 442 1008 389 971 c 0,23,24
 367 955 367 955 351 955 c 0,25,26
 321 955 321 955 321 976 c 0,27,28
 321 988 321 988 347 1002 c 128,-1,29
 373 1016 373 1016 465 1059 c 0,30,31
 630 1135 630 1135 630 1231 c 0,32,33
 630 1272 630 1272 602.5 1292 c 128,-1,34
 575 1312 575 1312 519 1312 c 0,35,36
 466 1312 466 1312 437 1284.5 c 128,-1,37
 408 1257 408 1257 408 1223 c 0,38,39
 408 1201 408 1201 419 1186 c 2,40,-1
 426 1172 l 1,41,42
 426 1163 426 1163 403 1148 c 128,-1,43
 380 1133 380 1133 366 1133 c 0,44,45
 350 1133 350 1133 333.5 1151.5 c 128,-1,46
 317 1170 317 1170 317 1204 c 0,47,48
 317 1265 317 1265 379.5 1305.5 c 128,-1,49
 442 1346 442 1346 540 1346 c 0,50,51
 630 1346 630 1346 682.5 1313.5 c 128,-1,52
 735 1281 735 1281 735 1231 c 0,53,54
 735 1134 735 1134 511 1040 c 1,0,1
EndSplineSet
Substitution2: "<39,1> ????? lookup 11 subtable" threesuperior
Substitution2: "<21,0> Lower Case Numbers lookup 8 subtable" threesuperior
Substitution2: "<21,1> Upper Case Numbers lookup 7 subtable" threesuperior
EndChar

StartChar: onehalf
Encoding: 189 189 192
Width: 1792
Flags: W
LayerCount: 2
Fore
SplineSet
331 0 m 1,0,-1
 259 0 l 1,1,-1
 1391 1356 l 1,2,-1
 1463 1356 l 1,3,-1
 331 0 l 1,0,-1
671 1346 m 1,4,-1
 457 738 l 2,5,6
 445 705 445 705 444 693 c 0,7,8
 444 683 444 683 492 683 c 2,9,-1
 547 683 l 1,10,-1
 534 647 l 1,11,-1
 217 647 l 1,12,-1
 230 683 l 1,13,-1
 273 683 l 2,14,15
 319 683 319 683 326 686 c 128,-1,16
 333 689 333 689 355 750 c 2,17,-1
 504 1176 l 2,18,19
 519 1218 519 1218 519 1228 c 0,20,21
 519 1254 519 1254 456 1256 c 2,22,-1
 407 1258 l 1,23,-1
 419 1292 l 1,24,25
 479 1292 479 1292 529.5 1302 c 128,-1,26
 580 1312 580 1312 612 1342 c 2,27,-1
 617 1346 l 1,28,-1
 671 1346 l 1,4,-1
1509 73 m 1,29,-1
 1471 -36 l 1,30,-1
 1430 -36 l 1,31,-1
 1431 -23 l 2,32,33
 1431 -6 1431 -6 1425 -3 c 128,-1,34
 1419 0 1419 0 1369 0 c 2,35,-1
 1061 0 l 1,36,37
 1061 33 1061 33 1066.5 43.5 c 128,-1,38
 1072 54 1072 54 1109 83 c 0,39,40
 1393 306 1393 306 1458 396 c 0,41,42
 1523 485 1523 485 1523 556 c 0,43,44
 1523 599 1523 599 1492 630 c 128,-1,45
 1461 661 1461 661 1407 661 c 0,46,47
 1356 661 1356 661 1321.5 635 c 128,-1,48
 1287 609 1287 609 1287 572 c 0,49,50
 1287 528 1287 528 1320 507 c 0,51,52
 1327 503 1327 503 1327 496 c 0,53,54
 1327 488 1327 488 1298.5 469 c 128,-1,55
 1270 450 1270 450 1253 450 c 0,56,57
 1231 450 1231 450 1214 474.5 c 128,-1,58
 1197 499 1197 499 1197 536 c 0,59,60
 1197 598 1197 598 1261 649 c 128,-1,61
 1325 700 1325 700 1428 700 c 0,62,63
 1526 700 1526 700 1578.5 657 c 128,-1,64
 1631 614 1631 614 1631 549 c 0,65,66
 1631 471 1631 471 1567 399 c 128,-1,67
 1503 327 1503 327 1302 182 c 0,68,69
 1260 151 1260 151 1201 104 c 2,70,-1
 1162 73 l 1,71,-1
 1509 73 l 1,29,-1
EndSplineSet
Substitution2: "<39,1> ????? lookup 11 subtable" onehalf
Substitution2: "<21,0> Lower Case Numbers lookup 8 subtable" onehalf
Substitution2: "<21,1> Upper Case Numbers lookup 7 subtable" onehalf
EndChar

StartChar: onequarter
Encoding: 188 188 193
Width: 1792
Flags: W
LayerCount: 2
Fore
SplineSet
436 0 m 1,0,-1
 364 0 l 1,1,-1
 1496 1356 l 1,2,-1
 1569 1356 l 1,3,-1
 436 0 l 1,0,-1
668 1346 m 1,4,-1
 454 738 l 2,5,6
 442 705 442 705 441 693 c 0,7,8
 441 683 441 683 489 683 c 2,9,-1
 544 683 l 1,10,-1
 531 647 l 1,11,-1
 214 647 l 1,12,-1
 227 683 l 1,13,-1
 270 683 l 2,14,15
 316 683 316 683 323 686 c 128,-1,16
 330 689 330 689 352 750 c 2,17,-1
 501 1176 l 2,18,19
 516 1218 516 1218 516 1228 c 0,20,21
 516 1254 516 1254 453 1256 c 2,22,-1
 404 1258 l 1,23,-1
 416 1292 l 1,24,25
 476 1292 476 1292 526.5 1302 c 128,-1,26
 577 1312 577 1312 609 1342 c 2,27,-1
 614 1346 l 1,28,-1
 668 1346 l 1,4,-1
1350 231 m 1,29,-1
 1089 231 l 1,30,-1
 1104 272 l 1,31,-1
 1562 700 l 1,32,-1
 1621 700 l 1,33,-1
 1473 277 l 1,34,-1
 1497 277 l 2,35,36
 1520 277 1520 277 1527 280.5 c 128,-1,37
 1534 284 1534 284 1552 310 c 2,38,-1
 1555 315 l 1,39,-1
 1602 315 l 1,40,-1
 1573 231 l 1,41,-1
 1456 231 l 1,42,-1
 1407 91 l 2,43,44
 1396 59 1396 59 1395 45 c 0,45,46
 1395 36 1395 36 1442 36 c 2,47,-1
 1479 36 l 1,48,-1
 1467 0 l 1,49,-1
 1188 0 l 1,50,-1
 1201 36 l 1,51,-1
 1223 36 l 2,52,53
 1271 36 1271 36 1278 41.5 c 128,-1,54
 1285 47 1285 47 1305 103 c 2,55,-1
 1350 231 l 1,29,-1
1366 277 m 1,56,-1
 1461 547 l 1,57,-1
 1173 277 l 1,58,-1
 1366 277 l 1,56,-1
EndSplineSet
Substitution2: "<39,1> ????? lookup 11 subtable" onequarter
Substitution2: "<21,0> Lower Case Numbers lookup 8 subtable" onequarter
Substitution2: "<21,1> Upper Case Numbers lookup 7 subtable" onequarter
EndChar

StartChar: threequarters
Encoding: 190 190 194
Width: 1792
Flags: W
LayerCount: 2
Fore
SplineSet
437 0 m 1,0,-1
 365 0 l 1,1,-1
 1497 1356 l 1,2,-1
 1569 1356 l 1,3,-1
 437 0 l 1,0,-1
507 1040 m 1,4,5
 577 1029 577 1029 612 993 c 128,-1,6
 647 957 647 957 647 896 c 0,7,8
 647 795 647 795 551 712.5 c 128,-1,9
 455 630 455 630 327 630 c 0,10,11
 251 630 251 630 196.5 657.5 c 128,-1,12
 142 685 142 685 142 717 c 0,13,14
 142 760 142 760 191 760 c 0,15,16
 230 760 230 760 254 718 c 0,17,18
 284 665 284 665 333 665 c 0,19,20
 424 665 424 665 483 754.5 c 128,-1,21
 542 844 542 844 542 924 c 0,22,23
 542 966 542 966 524 987 c 128,-1,24
 506 1008 506 1008 470 1008 c 0,25,26
 438 1008 438 1008 385 971 c 0,27,28
 363 955 363 955 347 955 c 0,29,30
 317 955 317 955 317 976 c 0,31,32
 317 988 317 988 343 1002 c 128,-1,33
 369 1016 369 1016 461 1059 c 0,34,35
 626 1135 626 1135 626 1231 c 0,36,37
 626 1272 626 1272 598.5 1292 c 128,-1,38
 571 1312 571 1312 515 1312 c 0,39,40
 462 1312 462 1312 433 1284.5 c 128,-1,41
 404 1257 404 1257 404 1223 c 0,42,43
 404 1201 404 1201 415 1186 c 2,44,-1
 422 1172 l 1,45,46
 422 1163 422 1163 399 1148 c 128,-1,47
 376 1133 376 1133 362 1133 c 0,48,49
 346 1133 346 1133 329.5 1151.5 c 128,-1,50
 313 1170 313 1170 313 1204 c 0,51,52
 313 1265 313 1265 375.5 1305.5 c 128,-1,53
 438 1346 438 1346 536 1346 c 0,54,55
 626 1346 626 1346 678.5 1313.5 c 128,-1,56
 731 1281 731 1281 731 1231 c 0,57,58
 731 1134 731 1134 507 1040 c 1,4,5
1348 231 m 1,59,-1
 1088 231 l 1,60,-1
 1102 272 l 1,61,-1
 1560 700 l 1,62,-1
 1620 700 l 1,63,-1
 1471 277 l 1,64,-1
 1495 277 l 2,65,66
 1518 277 1518 277 1525.5 280.5 c 128,-1,67
 1533 284 1533 284 1550 310 c 2,68,-1
 1554 315 l 1,69,-1
 1601 315 l 1,70,-1
 1571 231 l 1,71,-1
 1455 231 l 1,72,-1
 1406 91 l 2,73,74
 1394 59 1394 59 1393 45 c 0,75,76
 1393 36 1393 36 1441 36 c 2,77,-1
 1478 36 l 1,78,-1
 1465 0 l 1,79,-1
 1187 0 l 1,80,-1
 1199 36 l 1,81,-1
 1221 36 l 2,82,83
 1269 36 1269 36 1276.5 41.5 c 128,-1,84
 1284 47 1284 47 1303 103 c 2,85,-1
 1348 231 l 1,59,-1
1364 277 m 1,86,-1
 1459 547 l 1,87,-1
 1171 277 l 1,88,-1
 1364 277 l 1,86,-1
EndSplineSet
Substitution2: "<39,1> ????? lookup 11 subtable" threequarters
Substitution2: "<21,0> Lower Case Numbers lookup 8 subtable" threequarters
Substitution2: "<21,1> Upper Case Numbers lookup 7 subtable" threequarters
EndChar

